<svg width="100%" height="100%" viewBox="0 0 25 24" fill="none" xmlns="http://www.w3.org/2000/svg">
<path d="M14.171 3.34571C15.2585 2.57444 16.8303 3.15305 17.0782 4.52735L17.2921 5.6504L17.2931 5.65919L17.3282 5.78614C17.4341 6.07296 17.708 6.26759 18.0157 6.26759H19.173L19.3038 6.27442C20.6351 6.38433 21.4625 7.85686 20.7677 9.06837L20.2091 10.0615L20.2052 10.0703C20.0312 10.3728 20.0987 10.773 20.3741 11.0107H20.3732L21.2335 11.7481H21.2345C22.325 12.6746 22.0044 14.4113 20.6876 14.918L20.6837 14.9199L19.6163 15.3242L19.6134 15.3252C19.3121 15.4384 19.1242 15.7131 19.1241 16.0195L19.1368 16.1533L19.1378 16.1582L19.3282 17.2813L19.3302 17.2891L19.3458 17.418C19.4652 18.7001 18.254 19.7437 16.9952 19.3926L16.8692 19.3516L15.7901 18.9697L15.7862 18.9688C15.4543 18.8496 15.0777 18.9807 14.8868 19.3018L14.8858 19.3008L14.3028 20.29L14.3019 20.2881C13.5828 21.5145 11.8079 21.5147 11.089 20.2881V20.29L10.504 19.3008V19.2998C10.3129 18.9799 9.93593 18.85 9.6046 18.9688L9.60069 18.9697L8.52257 19.3516C7.19808 19.8202 5.81554 18.7025 6.06261 17.2793L6.25304 16.1631C6.31158 15.8048 6.10582 15.4502 5.77452 15.3232V15.3242L4.70714 14.9199V14.918C3.36747 14.4172 3.08588 12.6793 4.1505 11.7549L4.15441 11.751L5.01964 11.0098L5.02257 11.0049L5.55675 11.6357L5.02355 11.0059C5.29561 10.7755 5.36513 10.3809 5.18663 10.0703L5.18077 10.0615L4.61925 9.06251V9.06153C3.92515 7.83057 4.80565 6.29979 6.21886 6.2793H7.36437C7.72652 6.27364 8.03327 6.01225 8.09679 5.65919L8.09874 5.6504L8.31163 4.52735L8.31261 4.5254L8.34191 4.39845C8.6792 3.11203 10.2617 2.54164 11.3302 3.42872L11.3292 3.42969L12.214 4.15723L12.2159 4.15821L12.3224 4.23145C12.5472 4.35764 12.8318 4.36025 13.0675 4.2295L13.1817 4.15333L14.0646 3.42677L14.0675 3.42481L14.171 3.34571ZM15.421 4.82911C15.3999 4.70802 15.2568 4.63312 15.1358 4.72755L14.2482 5.45802L14.2423 5.46192C13.341 6.19272 12.0421 6.19892 11.1437 5.45704V5.45802L10.256 4.72755L10.254 4.72559C10.2068 4.68636 10.1501 4.67645 10.088 4.69923C10.025 4.72258 9.98049 4.77114 9.96691 4.8418L9.75401 5.96387L9.75304 5.9629C9.54384 7.11054 8.55106 7.9464 7.38878 7.96387H6.24327L6.19444 7.97169C6.10337 7.99896 6.04753 8.09684 6.06944 8.18848L6.08702 8.23438L6.08898 8.23731L6.6505 9.23634H6.64855C7.22791 10.2498 7.00567 11.5357 6.11241 12.292L5.25401 13.0264L5.25499 13.0274C5.14729 13.1212 5.17345 13.259 5.25792 13.3203L5.29796 13.3408L5.3048 13.3438L6.37218 13.7481L6.37316 13.749L6.57042 13.834C7.53325 14.3022 8.09242 15.3619 7.91612 16.4365L7.91515 16.4414L7.72374 17.5645V17.5674C7.70187 17.694 7.82455 17.8104 7.96007 17.7627L9.03819 17.3809C10.0739 17.0106 11.2083 17.3861 11.836 18.2607L11.9542 18.4424L11.9552 18.4434L12.5392 19.4326L12.5411 19.4365L12.5714 19.4746C12.6509 19.5509 12.7902 19.5384 12.8497 19.4365L12.8526 19.4326L13.4366 18.4434L13.4376 18.4424L13.5558 18.2607C14.1844 17.3853 15.32 17.0103 16.3566 17.3828H16.3556L17.4308 17.7627L17.4747 17.7725C17.5184 17.7764 17.5613 17.7637 17.6007 17.7305C17.654 17.6854 17.6768 17.6243 17.6661 17.5576H17.6651L17.4767 16.4453V16.4463C17.2706 15.2776 17.9284 14.1588 19.0196 13.7481L20.0821 13.3447L20.131 13.3203C20.2286 13.2493 20.2304 13.1063 20.1437 13.0322L20.1407 13.0303L19.2745 12.2891L19.2726 12.2861C18.403 11.5354 18.1562 10.2512 18.7452 9.22852L19.3019 8.23731L19.3067 8.2295L19.3253 8.1836C19.349 8.08969 19.2938 7.98922 19.1993 7.96095L19.1485 7.95313H18.0157C16.8395 7.95313 15.8409 7.10512 15.6349 5.95509V5.95411L15.423 4.84083L15.421 4.82911ZM15.588 9.33497C15.9171 9.00617 16.4504 9.00601 16.7794 9.33497C17.1081 9.66395 17.1081 10.1974 16.7794 10.5264L12.8927 14.4131C12.5843 14.7213 12.0956 14.7404 11.7648 14.4707L11.7003 14.4131L9.19542 11.9082C8.86662 11.5792 8.86664 11.0448 9.19542 10.7158C9.52435 10.3872 10.0579 10.3873 10.3868 10.7158L12.296 12.625L15.588 9.33497Z" fill="#1F9F8A"/>
</svg>
