<svg width="100%" height="100%" viewBox="0 0 24 25" fill="none" xmlns="http://www.w3.org/2000/svg">
<path fill-rule="evenodd" clip-rule="evenodd" d="M4.61321 5.1137C4.96468 4.76223 5.53453 4.76223 5.886 5.1137L11.9996 11.2273L18.1132 5.1137C18.4647 4.76223 19.0345 4.76223 19.386 5.1137C19.7375 5.46517 19.7375 6.03502 19.386 6.38649L13.2724 12.5001L19.386 18.6137C19.7375 18.9652 19.7375 19.535 19.386 19.8865C19.0345 20.238 18.4647 20.238 18.1132 19.8865L11.9996 13.7729L5.886 19.8865C5.53453 20.238 4.96468 20.238 4.61321 19.8865C4.26174 19.535 4.26174 18.9652 4.61321 18.6137L10.7268 12.5001L4.61321 6.38649C4.26174 6.03502 4.26174 5.46517 4.61321 5.1137Z" fill="currentColor"/>
</svg>
