<svg width="157" height="158" viewBox="0 0 157 158" fill="none" xmlns="http://www.w3.org/2000/svg">
<rect width="156.491" height="157.535" rx="20.8655" fill="white"/>
<g clip-path="url(#clip0_2413_64833)">
<path d="M94.4512 127.28C100.295 127.28 105.033 122.508 105.033 116.623C105.033 110.738 100.295 105.967 94.4512 105.967C88.6077 105.967 83.8699 110.738 83.8699 116.623C83.8699 122.508 88.6077 127.28 94.4512 127.28Z" fill="#A468FF"/>
<path d="M89.1285 48.7347C89.3536 48.7347 89.5638 48.6188 89.6838 48.4223L95.5124 38.9146C95.6975 38.6123 96.0877 38.5115 96.3929 38.6929L139.479 63.7596C139.759 63.9209 139.879 64.2736 139.754 64.5759L126.916 95.6738C126.791 95.9811 126.451 96.1424 126.136 96.0517L79.6728 82.6794C79.0875 82.5131 78.4671 82.5131 77.8768 82.6794L31.4139 96.0517C31.0937 96.1424 30.7585 95.9761 30.6334 95.6738L17.7857 64.5708C17.6606 64.2685 17.7807 63.9209 18.0609 63.7546L61.1467 38.6929C61.4519 38.5115 61.8421 38.6123 62.0272 38.9146L67.8557 48.4223C67.9708 48.6188 68.1859 48.7347 68.4111 48.7347H89.1285Z" fill="#56E2C3"/>
</g>
<defs>
<clipPath id="clip0_2413_64833">
<rect width="122.063" height="88.6784" fill="white" transform="translate(17.7354 38.6016)"/>
</clipPath>
</defs>
</svg>
