<svg width="72" height="73" viewBox="0 0 72 73" fill="none" xmlns="http://www.w3.org/2000/svg">
<circle cx="36" cy="36.1465" r="35.5" fill="#CAFFF3" stroke="#37CDAC"/>
<path d="M44 36.6866C44.8786 36.7468 45.7328 37.0171 46.4883 37.4766C47.3515 38.0018 48.055 38.755 48.5195 39.6524C48.9838 40.5497 49.1916 41.5586 49.1221 42.5665C49.0523 43.5743 48.7063 44.5434 48.123 45.3682C47.5397 46.1931 46.7414 46.8416 45.8145 47.2432C44.8873 47.6448 43.867 47.7843 42.8662 47.6456C41.8654 47.5067 40.9215 47.0958 40.1387 46.4571C39.3993 45.8538 38.8321 45.0685 38.4873 44.1807H33.5098C33.0415 45.3872 32.1668 46.3947 31.0293 47.0196C29.8423 47.6714 28.4563 47.864 27.1367 47.5596C25.817 47.2552 24.6546 46.4743 23.873 45.3682C23.0919 44.2622 22.7456 42.9069 22.8994 41.5616C23.0534 40.2159 23.6978 38.9734 24.709 38.0723C25.72 37.1715 27.0277 36.6745 28.3818 36.6758C29.7362 36.6774 31.0436 37.1778 32.0527 38.0811C33.009 38.9373 33.63 40.0995 33.8213 41.3643H38.1787C38.3697 40.0982 38.9916 38.9349 39.9492 38.0782C40.9595 37.1744 42.2674 36.6732 43.623 36.6729L44 36.6866ZM29.4092 39.6934C28.9163 39.4893 28.3728 39.437 27.8496 39.5411C27.3269 39.6453 26.8467 39.9015 26.4697 40.2784C26.0927 40.6554 25.8356 41.1363 25.7314 41.6592C25.6274 42.1823 25.6808 42.7251 25.8848 43.2178C26.0889 43.7107 26.4354 44.1324 26.8789 44.4288C27.3224 44.7249 27.8437 44.8829 28.377 44.8829L28.6406 44.8702C28.9042 44.8442 29.1636 44.7795 29.4092 44.6778C29.7364 44.5422 30.0338 44.3432 30.2842 44.0928C30.5345 43.8424 30.7336 43.545 30.8691 43.2178C31.0046 42.8907 31.0732 42.5396 31.0732 42.1856C31.0732 41.6525 30.9162 41.1309 30.6201 40.6876C30.3237 40.2441 29.902 39.8975 29.4092 39.6934ZM44.6553 39.6934C44.1626 39.4894 43.6197 39.4371 43.0967 39.5411C42.5738 39.6452 42.0929 39.9014 41.7158 40.2784C41.3388 40.6554 41.0827 41.1363 40.9785 41.6592C40.8745 42.1823 40.9269 42.7251 41.1309 43.2178C41.335 43.7106 41.6816 44.1324 42.125 44.4288C42.5684 44.7249 43.0898 44.8828 43.623 44.8829C44.3385 44.8829 45.0244 44.5987 45.5303 44.0928C46.0361 43.587 46.3203 42.9009 46.3203 42.1856C46.3202 41.6525 46.1623 41.1309 45.8662 40.6876C45.5698 40.2441 45.148 39.8975 44.6553 39.6934ZM31.2871 21.4297C31.6811 21.4186 32.073 21.4986 32.4316 21.6622C32.7881 21.8249 33.1025 22.0668 33.3516 22.3692L35.2354 24.5528L35.2656 24.586L35.2715 24.5938L35.3418 24.6729C35.4154 24.7465 35.5015 24.8081 35.5957 24.8536C35.7217 24.9143 35.8601 24.9454 36 24.9454L36.1035 24.9395C36.2074 24.9278 36.3096 24.8992 36.4043 24.8536C36.5303 24.7928 36.6414 24.7033 36.7285 24.5938L36.7344 24.586L38.6484 22.3692C38.8975 22.0668 39.2119 21.8249 39.5684 21.6622C39.927 21.4986 40.3189 21.4186 40.7129 21.4297C41.1069 21.441 41.4941 21.5419 41.8428 21.7256C42.104 21.8633 42.3381 22.0456 42.5371 22.2618L42.7256 22.4893L49.6182 31.9815H53.5918C53.965 31.9815 54.324 32.1307 54.5879 32.3946C54.8516 32.6584 54.9999 33.0167 55 33.3897C55 33.7629 54.8518 34.1219 54.5879 34.3858C54.324 34.6497 53.9651 34.7979 53.5918 34.7979H18.4082C18.0349 34.7979 17.676 34.6497 17.4121 34.3858C17.1482 34.1219 17 33.7629 17 33.3897C17.0001 33.0167 17.1484 32.6584 17.4121 32.3946C17.676 32.1307 18.035 31.9815 18.4082 31.9815H22.3818L29.2744 22.4893L29.4629 22.2618C29.6619 22.0456 29.896 21.8633 30.1572 21.7256C30.5059 21.5419 30.8931 21.441 31.2871 21.4297ZM25.8604 31.9815H46.1396L40.624 24.3858L38.9072 26.378L38.9062 26.376C38.5551 26.8063 38.1138 27.154 37.6123 27.3926C37.1087 27.6322 36.5577 27.7579 36 27.7579C35.4423 27.7579 34.8913 27.6322 34.3877 27.3926C33.886 27.1539 33.444 26.8065 33.0928 26.376L31.373 24.3848L25.8604 31.9815Z" fill="#56E2C3"/>
</svg>
