<svg width="100%" height="100%" viewBox="0 0 25 25" fill="none" xmlns="http://www.w3.org/2000/svg">
<path d="M12.4993 3.48759C12.7751 3.35164 13.1075 3.37483 13.3646 3.55595L21.6946 9.42509C21.9206 9.58432 22.055 9.84398 22.055 10.1204V20.7503C22.055 21.2196 21.6746 21.5997 21.2054 21.5999H15.3753C14.9059 21.5999 14.5247 21.2197 14.5247 20.7503V14.8704H11.1849V20.7503C11.1849 21.2196 10.8046 21.5997 10.3353 21.5999H4.55499C4.08555 21.5999 3.70538 21.2197 3.70538 20.7503V10.1204L3.71124 10.0179C3.73996 9.78108 3.86736 9.56546 4.06476 9.42607L12.3851 3.55595L12.4993 3.48759ZM5.4046 10.5608V19.9007H9.48468V14.0198C9.48493 13.5506 9.86598 13.1702 10.3353 13.1702H15.3753C15.8444 13.1704 16.2247 13.5507 16.2249 14.0198V19.9007H20.3548V10.5599L12.8743 5.28935L5.4046 10.5608Z" fill="currentColor"/>
</svg>
