<svg width="147" height="104" viewBox="0 0 147 104" fill="none" xmlns="http://www.w3.org/2000/svg">
<g clip-path="url(#clip0_452_24607)">
<path d="M92.3886 104C99.4259 104 105.132 98.4042 105.132 91.5024C105.132 84.6006 99.4259 79.0046 92.3886 79.0046C85.3513 79.0046 79.6456 84.6006 79.6456 91.5024C79.6456 98.4042 85.3513 104 92.3886 104Z" fill="#A468FF"/>
<path d="M85.9781 11.8833C86.2493 11.8833 86.5023 11.7474 86.6469 11.5169L93.6661 0.366493C93.8891 0.0119471 94.359 -0.106235 94.7266 0.106493L146.615 29.5042C146.952 29.6933 147.097 30.107 146.946 30.4615L131.486 66.9324C131.335 67.2929 130.925 67.482 130.546 67.3756L74.5907 51.6929C73.8858 51.4979 73.1387 51.4979 72.4277 51.6929L16.4728 67.3756C16.0872 67.482 15.6835 67.287 15.5329 66.9324L0.0604389 30.4556C-0.0901882 30.101 0.0544138 29.6933 0.391818 29.4983L52.2798 0.106493C52.6474 -0.106235 53.1173 0.0119471 53.3403 0.366493L60.3595 11.5169C60.4981 11.7474 60.7571 11.8833 61.0283 11.8833H85.9781Z" fill="#56E2C3"/>
</g>
<defs>
<clipPath id="clip0_452_24607">
<rect width="147" height="104" fill="white"/>
</clipPath>
</defs>
</svg>
