<svg width="100%" height="100%" viewBox="0 0 225 31" fill="none" xmlns="http://www.w3.org/2000/svg">
<g clip-path="url(#clip0_452_24630)">
<path d="M22.7295 1.05139H20.6607C20.5852 1.05139 20.5218 1.11155 20.5218 1.18317V13.6479C20.5218 13.7081 20.4705 13.7596 20.404 13.7596H2.50671C2.44329 13.7596 2.38893 13.7109 2.38893 13.6479V1.18317C2.38893 1.11155 2.3255 1.05139 2.25 1.05139H0.138926C0.0634228 1.05139 0 1.11155 0 1.18317V30.8682C0 30.9399 0.0634228 31 0.138926 31H2.25302C2.32852 31 2.39195 30.9399 2.39195 30.8682V16.1374C2.39195 16.0773 2.44329 16.0257 2.50973 16.0257H20.407C20.4705 16.0257 20.5248 16.0744 20.5248 16.1374V30.8682C20.5248 30.9399 20.5883 31 20.6638 31H22.7326C22.8081 31 22.8715 30.9399 22.8715 30.8682V1.18317C22.8715 1.11155 22.8081 1.05139 22.7326 1.05139H22.7295Z" fill="#0F0F10"/>
<path d="M140.859 11.0409C139.129 10.084 137.244 9.60559 135.199 9.60559C132.194 9.60559 129.534 10.6369 127.214 12.6967L127.196 12.7139C125.018 14.9198 123.928 17.4465 123.928 20.2999C123.928 22.2394 124.43 24.027 125.441 25.6685C126.45 27.3101 127.815 28.6078 129.546 29.5618C131.273 30.5186 133.161 30.9971 135.205 30.9971C138.213 30.9971 140.877 29.9657 143.203 27.8973L143.221 27.8801C145.392 25.6771 146.48 23.1532 146.48 20.3056C146.48 18.3661 145.975 16.5785 144.966 14.937C143.958 13.2955 142.593 12.0006 140.862 11.0437L140.859 11.0409ZM142.895 24.514C142.094 25.8118 141.022 26.8374 139.669 27.5937C138.316 28.35 136.797 28.7253 135.205 28.7253C133.614 28.7253 132.131 28.3471 130.766 27.5937C129.398 26.8374 128.316 25.8118 127.519 24.514C126.722 23.2191 126.326 21.8412 126.326 20.3028C126.326 18.7644 126.725 17.352 127.519 16.0686C128.316 14.7851 129.398 13.7653 130.766 13.009C132.131 12.2527 133.611 11.8774 135.205 11.8774C136.8 11.8774 138.316 12.2555 139.669 13.009C141.022 13.7653 142.097 14.7851 142.895 16.0686C143.692 17.352 144.091 18.793 144.091 20.3028C144.091 21.8125 143.692 23.2163 142.895 24.514Z" fill="#0F0F10"/>
<path d="M221.411 30.8128C223.433 30.7729 225.039 29.1852 224.997 27.2664C224.955 25.3476 223.281 23.8244 221.259 23.8643C219.236 23.9042 217.63 25.4919 217.672 27.4107C217.714 29.3295 219.388 30.8527 221.411 30.8128Z" fill="#56E2C3"/>
<path d="M67.2342 10.8692V10.8749C65.7151 10.0326 64.054 9.61151 62.251 9.61151C60.7771 9.61151 59.3849 9.90372 58.0802 10.4881C56.848 11.041 55.7788 11.7716 54.8818 12.694C54.8245 12.7542 54.7218 12.717 54.7218 12.6367V9.76621C54.7218 9.68026 54.6463 9.60864 54.5557 9.60864H52.4959C52.4053 9.60864 52.3298 9.68026 52.3298 9.76621V30.8425C52.3298 30.9285 52.4053 31.0001 52.4959 31.0001H54.5557C54.6463 31.0001 54.7218 30.9285 54.7218 30.8425V20.6238C54.7218 18.0226 55.1295 16.6876 55.3379 16.1776C56.0355 14.7051 57.0805 13.5735 58.4879 12.7943C59.6446 12.1526 60.901 11.8317 62.254 11.8317C63.607 11.8317 64.8634 12.1612 66.0201 12.8172C67.1768 13.4733 68.101 14.3499 68.7926 15.4471C69.4842 16.5443 69.8315 17.7361 69.8315 19.0195V30.8425C69.8315 30.9285 69.907 31.0001 69.9976 31.0001H72.0121C72.1027 31.0001 72.1782 30.9285 72.1782 30.8425V19.0195C72.1782 17.3064 71.7342 15.7307 70.8463 14.2926C69.9584 12.8545 68.7563 11.7143 67.2402 10.872L67.2342 10.8692Z" fill="#0F0F10"/>
<path d="M181.211 10.869V10.8747C179.689 10.0324 178.088 9.61132 176.225 9.61132C174.361 9.61132 172.646 10.0611 171.085 10.9578C169.659 11.78 168.533 12.8543 167.705 14.1864C167.599 14.3554 167.352 14.3554 167.249 14.1864C166.422 12.8543 165.295 11.7771 163.866 10.9578C162.305 10.0582 160.59 9.61132 158.726 9.61132C157.252 9.61132 155.863 9.90353 154.555 10.4879C153.314 11.0437 152.236 11.7857 151.336 12.7139C151.285 12.7655 151.197 12.734 151.197 12.6623V9.76602C151.197 9.67721 151.122 9.60559 151.028 9.60559H148.974C148.881 9.60559 148.805 9.67721 148.805 9.76602V30.8338C148.805 30.9226 148.881 30.9942 148.974 30.9942H151.028C151.122 30.9942 151.197 30.9226 151.197 30.8338V19.2285C151.197 19.2285 151.209 17.882 151.436 17.1056C151.49 16.9481 151.544 16.7905 151.605 16.6387C152.293 14.9341 153.411 13.6507 154.963 12.7912C156.12 12.1495 157.376 11.8287 158.729 11.8287C160.082 11.8287 161.339 12.1581 162.495 12.8142C163.652 13.4702 164.576 14.3468 165.268 15.4441C165.959 16.5413 166.307 17.733 166.307 19.0165V30.8366C166.307 30.9254 166.382 30.9971 166.476 30.9971H168.484C168.578 30.9971 168.653 30.9254 168.653 30.8366V19.0165C168.653 17.733 169.001 16.5413 169.692 15.4441C170.384 14.3468 171.308 13.4702 172.465 12.8142C173.621 12.1581 174.878 11.8287 176.231 11.8287C177.584 11.8287 178.84 12.1581 179.997 12.8142C181.154 13.4702 182.072 14.3468 182.748 15.4441C183.425 16.5413 183.763 17.733 183.763 19.0165V30.8366C183.763 30.9254 183.839 30.9971 183.932 30.9971H185.986C186.08 30.9971 186.155 30.9254 186.155 30.8366V19.0165C186.155 17.3033 185.711 15.7277 184.823 14.2895C183.935 12.8514 182.733 11.7112 181.217 10.869H181.211Z" fill="#0F0F10"/>
<path d="M48.2558 9.60559H46.1417C46.0632 9.60559 46.0028 9.66575 46.0028 9.73737V13.3527C46.0028 13.4731 45.8457 13.5246 45.7642 13.433C44.7554 12.2842 43.5323 11.3703 42.1007 10.6971C40.5514 9.96656 38.8873 9.60559 37.1175 9.60559C34.1125 9.60559 31.4517 10.6369 29.1323 12.6967L29.1142 12.7139C26.9366 14.9198 25.8464 17.4465 25.8464 20.2999C25.8464 22.2394 26.3507 24.027 27.3595 25.6685C28.3682 27.3101 29.7333 28.6078 31.4638 29.5618C33.1944 30.5186 35.0789 30.9971 37.1236 30.9971C38.8994 30.9971 40.5574 30.6332 42.1068 29.9056C43.4387 29.281 44.5863 28.4474 45.5528 27.4132C45.8548 27.0952 46.0088 26.6511 46.0088 27.5793V30.8653C46.0088 30.9398 46.0722 30.9971 46.1477 30.9971H48.2588C48.3373 30.9971 48.3977 30.9369 48.3977 30.8653V9.74024C48.3977 9.66575 48.3343 9.60846 48.2588 9.60846L48.2558 9.60559ZM44.8128 24.5169C44.0125 25.8146 42.9403 26.8402 41.5873 27.5965C40.2343 28.3528 38.7152 28.7281 37.1236 28.7281C35.5319 28.7281 34.0491 28.35 32.6809 27.5965C31.3128 26.8402 30.2316 25.8146 29.4343 24.5169C28.637 23.222 28.2413 21.844 28.2413 20.3056C28.2413 18.7672 28.64 17.3549 29.4343 16.0714C30.2316 14.788 31.3128 13.7681 32.6809 13.0118C34.0491 12.2555 35.4987 11.8802 37.1236 11.8802C38.7484 11.8802 40.2343 12.2584 41.5873 13.0118C42.9403 13.7681 44.0155 14.788 44.8128 16.0714C45.6101 17.3549 46.0058 18.7959 46.0058 20.3056C46.0058 21.8154 45.6071 23.2191 44.8128 24.5169Z" fill="#0F0F10"/>
<path d="M78.7198 9.0758C79.0671 8.73489 79.2393 8.31949 79.2393 7.83534C79.2393 7.37984 79.0641 6.98736 78.7198 6.65791C78.3725 6.32845 77.9436 6.16516 77.4332 6.16516C76.9228 6.16516 76.491 6.33132 76.1467 6.65791C75.7993 6.98736 75.6272 7.37697 75.6272 7.83534C75.6272 8.31949 75.7993 8.73489 76.1467 9.0758C76.494 9.41671 76.9228 9.5886 77.4332 9.5886C77.9436 9.5886 78.3725 9.41671 78.7198 9.0758Z" fill="#0F0F10"/>
<path d="M108.818 1.33784V1.3579L96.6292 13.3328C96.3453 13.602 96.0584 13.8026 96.8165 13.7567H109.788H100.749H120.971C121.11 13.7567 121.225 13.8656 121.225 13.9974V30.7823C121.225 30.9026 121.122 31 120.996 31H119.105C118.981 31 118.879 30.9026 118.879 30.7851V16.1746C118.879 16.0772 118.794 15.997 118.691 15.997H100.894C100.812 15.997 100.746 16.06 100.746 16.1374V30.7479C100.746 30.8281 100.703 30.8968 100.643 30.9427C100.625 30.957 100.61 30.9685 100.589 30.9771C100.57 30.9828 100.552 30.9857 100.534 30.9885C100.522 30.9885 100.513 30.9942 100.501 30.9942C100.501 30.9942 100.492 30.9942 100.489 30.9942H98.6255C98.6255 30.9942 98.6164 30.9942 98.6134 30.9942H76.5091C76.3732 30.9942 76.2675 30.8825 76.2675 30.745V16.2176C76.2675 16.0944 76.3732 15.9942 76.503 15.9942H78.3785C78.5084 15.9942 78.6141 16.0944 78.6141 16.2176V28.6451C78.6141 28.7139 78.6745 28.7712 78.747 28.7712H98.2148C98.2963 28.7712 98.3628 28.7081 98.3628 28.6308V16.1374C98.3628 16.06 98.2963 15.997 98.2148 15.997H91.4708C91.2383 15.997 91.1175 15.7306 91.2836 15.573L107.311 0.00571182C107.311 0.00571182 107.333 -0.00288258 107.342 0.00571182L108.818 1.33784Z" fill="#0F0F10"/>
<path d="M201.86 9.8148C201.129 9.69162 200.371 9.60281 199.595 9.60854C196.596 9.60854 193.935 10.637 191.615 12.6911L191.597 12.7083C189.411 14.917 188.32 17.4466 188.32 20.3028C188.32 22.2423 188.825 24.0299 189.834 25.6715C190.842 27.313 192.207 28.6108 193.938 29.5647C195.668 30.5216 197.553 31 199.598 31C201.642 31 203.527 30.5158 205.257 29.5447C206.166 29.0376 206.97 28.436 207.683 27.7456C209.661 25.9895 210.204 24.2276 210.328 23.6976C210.346 23.6145 210.28 23.5372 210.192 23.5372H208.102C208.036 23.5372 207.979 23.5773 207.954 23.6346C207.586 24.5227 206.922 25.279 206.623 25.5941C205.735 26.4908 204.835 27.2127 203.926 27.7485C202.811 28.4045 201.476 28.7339 199.912 28.7339C197.565 28.7339 195.56 28.0693 193.893 26.7429C192.259 25.4452 191.25 23.7263 190.873 21.5949C190.86 21.5261 190.918 21.4602 190.993 21.4602H210.552C210.691 21.4602 210.808 21.3599 210.814 21.2339C210.824 21.105 210.827 20.7326 210.827 20.7326C210.824 20.5721 210.817 20.4174 210.811 20.2627C210.7 18.392 209.766 11.1326 201.857 9.8148H201.86ZM207.852 19.2772H190.984C190.912 19.2772 190.854 19.2199 190.863 19.1512C190.969 18.1342 191.319 17.0771 191.911 15.9827C192.528 14.8425 193.482 13.8714 194.778 13.0749C196.07 12.2757 197.68 11.8746 199.604 11.8746C199.604 11.8746 207.106 11.5566 207.979 19.1512C207.991 19.2171 207.927 19.2772 207.858 19.2772H207.852Z" fill="#0F0F10"/>
</g>
<defs>
<clipPath id="clip0_452_24630">
<rect width="225" height="31" fill="white"/>
</clipPath>
</defs>
</svg>
