<svg width="25" height="25" viewBox="0 0 25 25" fill="none" xmlns="http://www.w3.org/2000/svg">
<path d="M14.7256 13.2402C17.7935 13.2405 20.2947 15.7293 20.2949 18.8096V20.75L20.291 20.8369C20.2475 21.2654 19.8853 21.5995 19.4453 21.5996H4.8252L4.73828 21.5957C4.30972 21.5521 3.97559 21.1901 3.97559 20.75V18.8096C3.97582 15.7416 6.46463 13.2404 9.54492 13.2402H14.7256ZM9.54492 14.9404C7.40586 14.9406 5.67601 16.6782 5.67578 18.8096V19.9004H18.5957V18.8096C18.5955 16.6706 16.8569 14.9407 14.7256 14.9404H9.54492ZM12.125 3.62988C14.4443 3.6301 16.325 5.51079 16.3252 7.83008C16.3249 10.1493 14.4443 12.0301 12.125 12.0303C9.80575 12.0301 7.92605 10.1493 7.92578 7.83008C7.92599 5.51079 9.80572 3.6301 12.125 3.62988ZM12.125 5.33008C10.7446 5.33029 9.62521 6.44968 9.625 7.83008C9.62526 9.21043 10.7446 10.3299 12.125 10.3301C13.5054 10.3299 14.6247 9.21043 14.625 7.83008C14.6248 6.44968 13.5054 5.33029 12.125 5.33008Z" fill="currentColor"/>
</svg>
