<svg width="113" height="113" viewBox="0 0 113 113" fill="none" xmlns="http://www.w3.org/2000/svg">
<g clip-path="url(#clip0_900_94246)">
<path d="M113 0H0V113H113V0Z" fill="#CAFFF3"/>
<path d="M84.8504 37.8399V75.3399H28.1504V37.8399L56.5004 29.4199L84.8504 37.8399Z" fill="white"/>
<path d="M35.24 61.35C37.69 61.35 39.69 59.36 39.69 56.91C39.69 54.46 37.7 52.47 35.24 52.47C32.78 52.47 30.79 54.46 30.79 56.91C30.79 59.36 32.78 61.35 35.24 61.35Z" fill="#A568FF"/>
<path d="M36.6308 73.72L54.2808 70.7C54.2808 70.7 54.3008 70.68 54.2808 70.67L41.3608 56.44C41.3608 56.44 41.3108 56.43 41.3108 56.45L36.5908 73.68C36.5908 73.68 36.6008 73.72 36.6308 73.72Z" fill="#37CDAC"/>
<path d="M66.8507 42.25C66.8507 42.25 63.2207 50.76 63.0107 51.26C63.0107 51.28 63.0107 51.29 63.0107 51.31L68.4007 66.36C68.4007 66.36 68.4307 66.4 68.4507 66.39L82.8807 63.14C82.8807 63.14 82.9107 63.12 82.9107 63.1L80.8107 41.33C80.8107 41.33 80.7907 41.29 80.7607 41.29L66.8507 42.25Z" fill="#37CDAC"/>
<path d="M49.7605 33.6298C49.7605 33.6298 49.6905 33.5898 49.6605 33.6298L45.3205 38.5198L36.4605 48.4898C36.4605 48.4898 36.4505 48.5298 36.4605 48.5398L51.6605 62.8898C51.6605 62.8898 51.7405 62.9198 51.7705 62.8898L62.5905 53.9198C62.5905 53.9198 62.6205 53.8698 62.6005 53.8398L49.7505 33.6298H49.7605Z" fill="#37CDAC"/>
<path d="M68.0404 72.5898L65.3304 66.0798C65.3104 66.0298 65.2504 65.9898 65.1904 65.9998L55.2804 66.3498C55.2304 66.3498 55.2104 66.4098 55.2604 66.4298L67.9704 72.6498C67.9704 72.6498 68.0504 72.6398 68.0404 72.5998V72.5898Z" fill="#37CDAC"/>
</g>
<defs>
<clipPath id="clip0_900_94246">
<rect width="113" height="113" fill="white"/>
</clipPath>
</defs>
</svg>
