<svg width="25" height="25" viewBox="0 0 25 25" fill="none" xmlns="http://www.w3.org/2000/svg">
<path fill-rule="evenodd" clip-rule="evenodd" d="M13.6783 3.35013C12.9282 3.01659 12.0719 3.01659 11.3218 3.35013C10.7991 3.58254 10.4215 4.00838 10.0932 4.47191C9.76778 4.93132 9.40971 5.54983 8.97415 6.3022L3.4797 15.7926C3.04249 16.5478 2.68318 17.1684 2.44608 17.6809C2.20695 18.1978 2.02515 18.7388 2.0846 19.309C2.16987 20.1269 2.59841 20.8702 3.26355 21.3538C3.72722 21.6909 4.28652 21.8047 4.85366 21.8567C5.41599 21.9083 6.13311 21.9083 7.00568 21.9082H17.9944C18.867 21.9083 19.5841 21.9083 20.1465 21.8567C20.7136 21.8047 21.2729 21.6909 21.7366 21.3538C22.4017 20.8702 22.8302 20.1269 22.9155 19.309C22.975 18.7388 22.7932 18.1977 22.554 17.6809C22.3169 17.1684 21.9576 16.5477 21.5204 15.7926L16.026 6.30219C15.5904 5.54982 15.2323 4.93132 14.9069 4.47191C14.5786 4.00838 14.201 3.58254 13.6783 3.35013ZM12.947 4.99486C12.6625 4.86835 12.3377 4.86835 12.0531 4.99486C11.9827 5.02616 11.8366 5.12475 11.562 5.51231C11.2902 5.89617 10.973 6.44211 10.5096 7.24263L5.05982 16.6559C4.59472 17.4592 4.27794 18.0082 4.07972 18.4366C3.8795 18.8694 3.86691 19.0458 3.87489 19.1223C3.90724 19.4326 4.06979 19.7145 4.32208 19.8979C4.38432 19.9432 4.54324 20.0206 5.0181 20.0642C5.48822 20.1073 6.12203 20.1082 7.0503 20.1082H17.9498C18.8781 20.1082 19.5119 20.1073 19.982 20.0642C20.4569 20.0206 20.6158 19.9432 20.678 19.8979C20.9303 19.7145 21.0929 19.4326 21.1252 19.1223C21.1332 19.0458 21.1206 18.8694 20.9204 18.4366C20.7222 18.0082 20.4054 17.4592 19.9403 16.6559L14.4905 7.24262C14.0271 6.44211 13.71 5.89616 13.4381 5.51231C13.1636 5.12475 13.0174 5.02616 12.947 4.99486ZM11.6001 9.51374H13.4001V15.5111H11.6001V9.51374ZM13.7001 17.7101C13.7001 18.3726 13.1628 18.9096 12.5001 18.9096C11.8373 18.9096 11.3001 18.3726 11.3001 17.7101C11.3001 17.0477 11.8373 16.5107 12.5001 16.5107C13.1628 16.5107 13.7001 17.0477 13.7001 17.7101Z" fill="#FF585B"/>
</svg>
