<svg width="18" height="18" viewBox="0 0 18 18" fill="none" xmlns="http://www.w3.org/2000/svg">
<path fill-rule="evenodd" clip-rule="evenodd" d="M7.20848 1.76245H10.7919C11.6072 1.76245 12.2602 1.76244 12.788 1.80557C13.33 1.84985 13.7992 1.94295 14.2311 2.163C14.9226 2.51534 15.4848 3.07754 15.8371 3.76904C16.0572 4.20092 16.1503 4.67009 16.1946 5.21209C16.2377 5.73992 16.2377 6.39293 16.2377 7.20824V10.7917C16.2377 11.607 16.2377 12.26 16.1946 12.7878C16.1503 13.3298 16.0572 13.799 15.8371 14.2309C15.4848 14.9224 14.9226 15.4846 14.2311 15.8369C13.7992 16.057 13.33 16.1501 12.788 16.1943C12.2602 16.2375 11.6072 16.2375 10.7919 16.2375H7.20848C6.39317 16.2375 5.74016 16.2375 5.21233 16.1943C4.67033 16.1501 4.20116 16.057 3.76928 15.8369C3.07778 15.4846 2.51558 14.9224 2.16325 14.2309C1.94319 13.799 1.85009 13.3298 1.80581 12.7878C1.76268 12.26 1.76269 11.607 1.7627 10.7917V7.20824C1.76269 6.39293 1.76268 5.73992 1.80581 5.21209C1.85009 4.67009 1.94319 4.20092 2.16325 3.76904C2.51558 3.07754 3.07778 2.51534 3.76928 2.163C4.20116 1.94295 4.67033 1.84985 5.21233 1.80557C5.74016 1.76244 6.39317 1.76245 7.20848 1.76245ZM5.32226 3.15108C4.86375 3.18854 4.59202 3.25894 4.38217 3.36586C3.94469 3.58877 3.58901 3.94445 3.3661 4.38192C3.25918 4.59178 3.18879 4.86351 3.15133 5.32202C3.11322 5.78842 3.11269 6.38623 3.11269 7.23745V10.7625C3.11269 11.6137 3.11322 12.2115 3.15133 12.6779C3.18879 13.1364 3.25918 13.4081 3.3661 13.618C3.58901 14.0555 3.94469 14.4111 4.38217 14.634C4.59202 14.741 4.86375 14.8114 5.32226 14.8488C5.78866 14.8869 6.38647 14.8875 7.23769 14.8875H10.7627C11.6139 14.8875 12.2117 14.8869 12.6781 14.8488C13.1366 14.8114 13.4084 14.741 13.6182 14.634C14.0557 14.4111 14.4114 14.0555 14.6343 13.618C14.7412 13.4081 14.8116 13.1364 14.8491 12.6779C14.8872 12.2115 14.8877 11.6137 14.8877 10.7625V7.23745C14.8877 6.38623 14.8872 5.78842 14.8491 5.32202C14.8116 4.86351 14.7412 4.59178 14.6343 4.38192C14.4114 3.94445 14.0557 3.58877 13.6182 3.36586C13.4084 3.25894 13.1366 3.18854 12.6781 3.15108C12.2117 3.11298 11.6139 3.11245 10.7627 3.11245H7.23769C6.38647 3.11245 5.78866 3.11298 5.32226 3.15108Z" fill="#71747C"/>
</svg>
