<svg width="18" height="18" viewBox="0 0 18 18" fill="none" xmlns="http://www.w3.org/2000/svg">
<path fill-rule="evenodd" clip-rule="evenodd" d="M7.20848 1.76245H10.7919C11.6072 1.76245 12.2602 1.76244 12.788 1.80557C13.33 1.84985 13.7992 1.94295 14.2311 2.163C14.9226 2.51534 15.4848 3.07754 15.8371 3.76904C16.0572 4.20092 16.1503 4.67009 16.1946 5.21209C16.2377 5.73992 16.2377 6.39293 16.2377 7.20824V10.7917C16.2377 11.607 16.2377 12.26 16.1946 12.7878C16.1503 13.3298 16.0572 13.799 15.8371 14.2309C15.4848 14.9224 14.9226 15.4846 14.2311 15.8369C13.7992 16.057 13.33 16.1501 12.788 16.1943C12.2602 16.2375 11.6072 16.2375 10.7919 16.2375H7.20848C6.39317 16.2375 5.74016 16.2375 5.21233 16.1943C4.67033 16.1501 4.20116 16.057 3.76928 15.8369C3.07778 15.4846 2.51558 14.9224 2.16325 14.2309C1.94319 13.799 1.85009 13.3298 1.80581 12.7878C1.76268 12.26 1.76269 11.607 1.7627 10.7917V7.20824C1.76269 6.39293 1.76268 5.73992 1.80581 5.21209C1.85009 4.67009 1.94319 4.20092 2.16325 3.76904C2.51558 3.07754 3.07778 2.51534 3.76928 2.163C4.20116 1.94295 4.67033 1.84985 5.21233 1.80557C5.74016 1.76244 6.39317 1.76245 7.20848 1.76245Z" fill="#71747C"/>
</svg>
