<svg width="223" height="121" viewBox="0 0 223 121" fill="none" xmlns="http://www.w3.org/2000/svg">
<g clip-path="url(#clip0_489_40720)">
<mask id="mask0_489_40720" style="mask-type:luminance" maskUnits="userSpaceOnUse" x="0" y="0" width="223" height="121">
<path d="M223 0H0V121H223V0Z" fill="white"/>
</mask>
<g mask="url(#mask0_489_40720)">
<path d="M220.048 38.3483L158.086 1.33839C157.02 0.700968 155.82 0.382385 154.621 0.382385H69.4682C68.8263 0.382385 68.3062 0.901616 68.3062 1.5421V120.804H89.306H154.621H219.935C221.552 120.804 222.863 119.495 222.863 117.881V43.3037C222.863 41.2725 221.794 39.3911 220.048 38.3483Z" fill="#CAFFF2"/>
<path d="M133.734 38.3485L117.542 28.677V10.7312C117.542 8.97439 116.116 7.54971 114.355 7.54971H105.959C104.198 7.54971 102.772 8.97439 102.772 10.7312V19.8544L71.7723 1.33863C69.6379 0.0640446 66.9744 0.0640446 64.8403 1.33863L2.87832 38.3485C1.13267 39.3911 0.0639648 41.2725 0.0639648 43.3037V117.882C0.0639648 119.496 1.3746 120.804 2.99161 120.804H133.621C135.238 120.804 136.549 119.496 136.549 117.882V43.3037C136.549 41.2725 135.48 39.3911 133.734 38.3485Z" fill="#56E2C2"/>
<path d="M165.623 63.0326H157.252V54.6774H165.623V63.0326Z" fill="#56E2C2"/>
<path d="M175.573 63.0326H167.202V54.6774H175.573V63.0326Z" fill="#56E2C2"/>
<path d="M165.623 72.8279H157.252V64.4725H165.623V72.8279Z" fill="#56E2C2"/>
<path d="M175.573 72.8279H167.202V64.4725H175.573V72.8279Z" fill="#56E2C2"/>
<path d="M201.579 63.0326H193.208V54.6774H201.579V63.0326Z" fill="#56E2C2"/>
<path d="M211.529 63.0326H203.158V54.6774H211.529V63.0326Z" fill="#56E2C2"/>
<path d="M201.579 72.8279H193.208V64.4725H201.579V72.8279Z" fill="#56E2C2"/>
<path d="M211.529 72.8279H203.158V64.4725H211.529V72.8279Z" fill="#56E2C2"/>
<path d="M77.003 59.2846H59.1372V38.7371C59.1372 37.7234 59.9602 36.9017 60.9759 36.9017H75.1638C76.1798 36.9017 77.003 37.7234 77.003 38.7371V59.2846Z" fill="#CAFFF2"/>
<path d="M68.8597 63.4469H67.2803V29.8627H68.8597V63.4469Z" fill="#56E2C2"/>
<path d="M51.248 47.3049H84.8924V48.8814H51.248V47.3049Z" fill="#56E2C2"/>
</g>
</g>
<defs>
<clipPath id="clip0_489_40720">
<rect width="223" height="121" fill="white"/>
</clipPath>
</defs>
</svg>
