<svg
  width="24"
  height="24"
  viewBox="0 0 24 24"
  fill="none"
  xmlns="http://www.w3.org/2000/svg"
  class="text-gray-400"
>
  <path
    fill-rule="evenodd"
    clip-rule="evenodd"
    d="M9.99985 2.10004C5.6368 2.10004 2.09985 5.63699 2.09985 10C2.09985 14.3631 5.6368 17.9 9.99985 17.9C11.8571 17.9 13.5647 17.2591 14.9135 16.1863L19.8636 21.1364C20.2151 21.4879 20.7849 21.4879 21.1364 21.1364C21.4879 20.7849 21.4879 20.2151 21.1364 19.8636L16.1863 14.9135C17.259 13.5648 17.8998 11.8572 17.8998 10C17.8998 5.63699 14.3629 2.10004 9.99985 2.10004ZM3.89985 10C3.89985 6.6311 6.63091 3.90004 9.99985 3.90004C13.3688 3.90004 16.0998 6.6311 16.0998 10C16.0998 13.369 13.3688 16.1 9.99985 16.1C6.63091 16.1 3.89985 13.369 3.89985 10Z"
    fill="currentColor"
  />
</svg>
