<svg width="25" height="24" viewBox="0 0 25 24" fill="none" xmlns="http://www.w3.org/2000/svg">
<g clip-path="url(#clip0_1204_7814)">
<path d="M23 14.2505H19.2078C19.2355 14.0014 19.2496 13.7511 19.25 13.5005C19.25 11.7103 18.5388 9.99338 17.273 8.72751C16.0071 7.46164 14.2902 6.75048 12.5 6.75048C10.7098 6.75048 8.9929 7.46164 7.72703 8.72751C6.46116 9.99338 5.75 11.7103 5.75 13.5005C5.75042 13.7511 5.76451 14.0014 5.79219 14.2505H2C1.80109 14.2505 1.61032 14.3295 1.46967 14.4701C1.32902 14.6108 1.25 14.8016 1.25 15.0005C1.25 15.1994 1.32902 15.3902 1.46967 15.5308C1.61032 15.6715 1.80109 15.7505 2 15.7505H23C23.1989 15.7505 23.3897 15.6715 23.5303 15.5308C23.671 15.3902 23.75 15.1994 23.75 15.0005C23.75 14.8016 23.671 14.6108 23.5303 14.4701C23.3897 14.3295 23.1989 14.2505 23 14.2505ZM7.25 13.5005C7.24862 12.7785 7.39617 12.064 7.68341 11.4017C7.97066 10.7393 8.39143 10.1433 8.91943 9.65092C9.44743 9.15854 10.0713 8.78034 10.7521 8.53998C11.4329 8.29961 12.1559 8.20224 12.876 8.25395C13.5961 8.30566 14.2978 8.50534 14.9373 8.8405C15.5767 9.17567 16.1402 9.63912 16.5924 10.2019C17.0446 10.7647 17.3759 11.4147 17.5656 12.1113C17.7553 12.8079 17.7992 13.5361 17.6947 14.2505H7.30531C7.26901 14.0021 7.25053 13.7515 7.25 13.5005ZM20.75 18.7505C20.75 18.9494 20.671 19.1402 20.5303 19.2808C20.3897 19.4215 20.1989 19.5005 20 19.5005H5C4.80109 19.5005 4.61032 19.4215 4.46967 19.2808C4.32902 19.1402 4.25 18.9494 4.25 18.7505C4.25 18.5516 4.32902 18.3608 4.46967 18.2201C4.61032 18.0795 4.80109 18.0005 5 18.0005H20C20.1989 18.0005 20.3897 18.0795 20.5303 18.2201C20.671 18.3608 20.75 18.5516 20.75 18.7505ZM7.32875 4.08611C7.23974 3.90808 7.22509 3.70198 7.28803 3.51316C7.35097 3.32433 7.48635 3.16824 7.66437 3.07923C7.8424 2.99022 8.0485 2.97557 8.23732 3.03851C8.42615 3.10145 8.58224 3.23683 8.67125 3.41486L9.42125 4.91486C9.46533 5.00301 9.49161 5.09897 9.49859 5.19728C9.50558 5.29559 9.49313 5.39431 9.46197 5.4878C9.4308 5.5813 9.38153 5.66774 9.31695 5.7422C9.25238 5.81665 9.17378 5.87766 9.08563 5.92173C8.99748 5.96581 8.90151 5.99209 8.8032 5.99907C8.70489 6.00606 8.60617 5.99361 8.51268 5.96245C8.41918 5.93128 8.33274 5.88201 8.25828 5.81743C8.18383 5.75286 8.12282 5.67426 8.07875 5.58611L7.32875 4.08611ZM2.07875 8.66486C2.12286 8.57674 2.1839 8.49819 2.25838 8.43367C2.33286 8.36916 2.41933 8.31996 2.51284 8.28888C2.60634 8.25779 2.70506 8.24544 2.80334 8.25253C2.90162 8.25961 2.99754 8.286 3.08562 8.33017L4.58563 9.08017C4.76353 9.16918 4.89878 9.32522 4.96164 9.51396C5.02449 9.7027 5.00979 9.90867 4.92078 10.0866C4.83177 10.2645 4.67573 10.3997 4.48699 10.4626C4.29825 10.5254 4.09228 10.5107 3.91437 10.4217L2.41438 9.67173C2.32618 9.6277 2.24753 9.56672 2.18292 9.49228C2.11831 9.41783 2.06901 9.33138 2.03784 9.23787C2.00667 9.14435 1.99424 9.04561 2.00126 8.94729C2.00828 8.84897 2.03461 8.75299 2.07875 8.66486ZM20.0788 10.0861C19.9899 9.9082 19.9753 9.70228 20.0383 9.51365C20.1012 9.32501 20.2365 9.16909 20.4144 9.08017L21.9144 8.33017C22.0025 8.28609 22.0984 8.2598 22.1966 8.25279C22.2949 8.24578 22.3935 8.25819 22.487 8.28931C22.5804 8.32044 22.6669 8.36966 22.7413 8.43418C22.8157 8.49869 22.8767 8.57724 22.9208 8.66533C22.9649 8.75341 22.9911 8.84932 22.9982 8.94757C23.0052 9.04582 22.9928 9.14449 22.9616 9.23794C22.9305 9.33139 22.8813 9.4178 22.8168 9.49223C22.7523 9.56666 22.6737 9.62766 22.5856 9.67173L21.0856 10.4217C20.9975 10.4659 20.9015 10.4922 20.8032 10.4992C20.7049 10.5062 20.6061 10.4938 20.5126 10.4626C20.4191 10.4315 20.3326 10.3822 20.2582 10.3176C20.1838 10.2529 20.1228 10.1743 20.0788 10.0861ZM15.5787 4.91486L16.3287 3.41486C16.4178 3.23683 16.5739 3.10145 16.7627 3.03851C16.9515 2.97557 17.1576 2.99022 17.3356 3.07923C17.5137 3.16824 17.649 3.32433 17.712 3.51316C17.7749 3.70198 17.7603 3.90808 17.6712 4.08611L16.9213 5.58611C16.8322 5.76413 16.6761 5.89951 16.4873 5.96245C16.2985 6.02539 16.0924 6.01074 15.9144 5.92173C15.7363 5.83272 15.601 5.67663 15.538 5.4878C15.4751 5.29898 15.4897 5.09288 15.5787 4.91486Z" fill="currentColor"/>
</g>
<defs>
<clipPath id="clip0_1204_7814">
<rect width="24" height="24" fill="white" transform="translate(0.5)"/>
</clipPath>
</defs>
</svg>
