<svg width="25" height="24" viewBox="0 0 25 24" fill="none" xmlns="http://www.w3.org/2000/svg">
<g clip-path="url(#clip0_1204_7821)">
<path d="M22.3944 13.3348C22.2982 13.2384 22.1775 13.17 22.0454 13.1369C21.9133 13.1039 21.7746 13.1075 21.6444 13.1473C20.2143 13.5796 18.6937 13.6159 17.2446 13.2522C15.7956 12.8885 14.4723 12.1384 13.4159 11.082C12.3595 10.0256 11.6094 8.70234 11.2457 7.25327C10.882 5.8042 10.9183 4.28361 11.3506 2.85352C11.3908 2.72321 11.3946 2.58443 11.3617 2.4521C11.3289 2.31977 11.2606 2.1989 11.1642 2.10248C11.0678 2.00607 10.9469 1.93776 10.8146 1.90491C10.6822 1.87206 10.5434 1.8759 10.4131 1.91602C8.43597 2.52169 6.7002 3.73552 5.45282 5.38477C4.36195 6.83308 3.69655 8.55687 3.53138 10.3625C3.3662 12.1681 3.70779 13.984 4.51776 15.6062C5.32774 17.2284 6.57401 18.5926 8.11656 19.5456C9.65912 20.4985 11.4368 21.0024 13.25 21.0007C15.3653 21.0072 17.4244 20.3196 19.1113 19.0432C20.7605 17.7958 21.9743 16.0601 22.58 14.0829C22.6197 13.9531 22.6233 13.8149 22.5907 13.6832C22.558 13.5514 22.4901 13.431 22.3944 13.3348ZM18.2094 17.8451C16.6208 19.0416 14.6535 19.624 12.6696 19.4851C10.6858 19.3462 8.81882 18.4953 7.41251 17.0891C6.0062 15.6829 5.15517 13.816 5.0161 11.8321C4.87703 9.84827 5.45926 7.88092 6.65563 6.29227C7.43507 5.26296 8.44275 4.42857 9.59938 3.85477C9.53349 4.31717 9.50028 4.78364 9.5 5.25071C9.50273 7.83573 10.5308 10.3141 12.3587 12.142C14.1866 13.9699 16.665 14.998 19.25 15.0007C19.718 15.0006 20.1854 14.9674 20.6488 14.9013C20.0744 16.0582 19.2394 17.0659 18.2094 17.8451Z"  fill="currentColor"/>
</g>
<defs>
<clipPath id="clip0_1204_7821">
<rect width="24" height="24" fill="white" transform="translate(0.5)"/>
</clipPath>
</defs>
</svg>
