<svg width="25" height="24" viewBox="0 0 25 24" fill="none" xmlns="http://www.w3.org/2000/svg">
<g clip-path="url(#clip0_1204_7807)">
<mask id="path-1-outside-1_1204_7807" maskUnits="userSpaceOnUse" x="1.5" y="1" width="22" height="22" fill="black">
<rect fill="white" x="1.5" y="1" width="22" height="22"/>
<path d="M11.8333 4.66667V2.66667C11.8333 2.48986 11.9036 2.32029 12.0286 2.19526C12.1536 2.07024 12.3232 2 12.5 2C12.6768 2 12.8464 2.07024 12.9714 2.19526C13.0964 2.32029 13.1667 2.48986 13.1667 2.66667V4.66667C13.1667 4.84348 13.0964 5.01305 12.9714 5.13807C12.8464 5.2631 12.6768 5.33333 12.5 5.33333C12.3232 5.33333 12.1536 5.2631 12.0286 5.13807C11.9036 5.01305 11.8333 4.84348 11.8333 4.66667ZM17.8333 12C17.8333 13.0548 17.5205 14.086 16.9345 14.963C16.3485 15.8401 15.5155 16.5237 14.541 16.9274C13.5664 17.331 12.4941 17.4366 11.4595 17.2309C10.425 17.0251 9.47464 16.5171 8.72876 15.7712C7.98288 15.0254 7.47493 14.075 7.26915 13.0405C7.06336 12.0059 7.16898 10.9336 7.57264 9.95902C7.97631 8.98448 8.6599 8.15153 9.53696 7.5655C10.414 6.97946 11.4452 6.66667 12.5 6.66667C13.914 6.66821 15.2697 7.23061 16.2695 8.23047C17.2694 9.23033 17.8318 10.586 17.8333 12ZM16.5 12C16.5 11.2089 16.2654 10.4355 15.8259 9.77772C15.3864 9.11992 14.7616 8.60723 14.0307 8.30448C13.2998 8.00173 12.4956 7.92252 11.7196 8.07686C10.9437 8.2312 10.231 8.61216 9.67157 9.17157C9.11216 9.73098 8.7312 10.4437 8.57686 11.2196C8.42252 11.9956 8.50173 12.7998 8.80448 13.5307C9.10723 14.2616 9.61992 14.8864 10.2777 15.3259C10.9355 15.7654 11.7089 16 12.5 16C13.5605 15.9989 14.5773 15.5771 15.3272 14.8272C16.0771 14.0773 16.4989 13.0605 16.5 12ZM6.695 7.13833C6.82009 7.26343 6.98976 7.3337 7.16667 7.3337C7.34358 7.3337 7.51324 7.26343 7.63833 7.13833C7.76343 7.01324 7.8337 6.84358 7.8337 6.66667C7.8337 6.48976 7.76343 6.32009 7.63833 6.195L6.305 4.86167C6.17991 4.73657 6.01024 4.6663 5.83333 4.6663C5.65642 4.6663 5.48676 4.73657 5.36167 4.86167C5.23657 4.98676 5.1663 5.15642 5.1663 5.33333C5.1663 5.51024 5.23657 5.67991 5.36167 5.805L6.695 7.13833ZM6.695 16.8617L5.36167 18.195C5.23657 18.3201 5.1663 18.4898 5.1663 18.6667C5.1663 18.8436 5.23657 19.0132 5.36167 19.1383C5.48676 19.2634 5.65642 19.3337 5.83333 19.3337C6.01024 19.3337 6.17991 19.2634 6.305 19.1383L7.63833 17.805C7.70027 17.7431 7.74941 17.6695 7.78293 17.5886C7.81645 17.5077 7.8337 17.4209 7.8337 17.3333C7.8337 17.2457 7.81645 17.159 7.78293 17.0781C7.74941 16.9971 7.70027 16.9236 7.63833 16.8617C7.57639 16.7997 7.50286 16.7506 7.42193 16.7171C7.341 16.6835 7.25426 16.6663 7.16667 16.6663C7.07907 16.6663 6.99233 16.6835 6.9114 16.7171C6.83047 16.7506 6.75694 16.7997 6.695 16.8617ZM17.8333 7.33333C17.9209 7.3334 18.0076 7.31622 18.0886 7.28276C18.1695 7.2493 18.243 7.20022 18.305 7.13833L19.6383 5.805C19.7634 5.67991 19.8337 5.51024 19.8337 5.33333C19.8337 5.15642 19.7634 4.98676 19.6383 4.86167C19.5132 4.73657 19.3436 4.6663 19.1667 4.6663C18.9898 4.6663 18.8201 4.73657 18.695 4.86167L17.3617 6.195C17.2683 6.28824 17.2047 6.40707 17.179 6.53646C17.1532 6.66585 17.1664 6.79998 17.2169 6.92186C17.2674 7.04374 17.3529 7.1479 17.4627 7.22115C17.5724 7.29439 17.7014 7.33344 17.8333 7.33333ZM18.305 16.8617C18.1799 16.7366 18.0102 16.6663 17.8333 16.6663C17.6564 16.6663 17.4868 16.7366 17.3617 16.8617C17.2366 16.9868 17.1663 17.1564 17.1663 17.3333C17.1663 17.5102 17.2366 17.6799 17.3617 17.805L18.695 19.1383C18.7569 19.2003 18.8305 19.2494 18.9114 19.2829C18.9923 19.3165 19.0791 19.3337 19.1667 19.3337C19.2543 19.3337 19.341 19.3165 19.4219 19.2829C19.5029 19.2494 19.5764 19.2003 19.6383 19.1383C19.7003 19.0764 19.7494 19.0029 19.7829 18.9219C19.8165 18.841 19.8337 18.7543 19.8337 18.6667C19.8337 18.5791 19.8165 18.4923 19.7829 18.4114C19.7494 18.3305 19.7003 18.2569 19.6383 18.195L18.305 16.8617ZM5.83333 12C5.83333 11.8232 5.7631 11.6536 5.63807 11.5286C5.51305 11.4036 5.34348 11.3333 5.16667 11.3333H3.16667C2.98986 11.3333 2.82029 11.4036 2.69526 11.5286C2.57024 11.6536 2.5 11.8232 2.5 12C2.5 12.1768 2.57024 12.3464 2.69526 12.4714C2.82029 12.5964 2.98986 12.6667 3.16667 12.6667H5.16667C5.34348 12.6667 5.51305 12.5964 5.63807 12.4714C5.7631 12.3464 5.83333 12.1768 5.83333 12ZM12.5 18.6667C12.3232 18.6667 12.1536 18.7369 12.0286 18.8619C11.9036 18.987 11.8333 19.1565 11.8333 19.3333V21.3333C11.8333 21.5101 11.9036 21.6797 12.0286 21.8047C12.1536 21.9298 12.3232 22 12.5 22C12.6768 22 12.8464 21.9298 12.9714 21.8047C13.0964 21.6797 13.1667 21.5101 13.1667 21.3333V19.3333C13.1667 19.1565 13.0964 18.987 12.9714 18.8619C12.8464 18.7369 12.6768 18.6667 12.5 18.6667ZM21.8333 11.3333H19.8333C19.6565 11.3333 19.487 11.4036 19.3619 11.5286C19.2369 11.6536 19.1667 11.8232 19.1667 12C19.1667 12.1768 19.2369 12.3464 19.3619 12.4714C19.487 12.5964 19.6565 12.6667 19.8333 12.6667H21.8333C22.0101 12.6667 22.1797 12.5964 22.3047 12.4714C22.4298 12.3464 22.5 12.1768 22.5 12C22.5 11.8232 22.4298 11.6536 22.3047 11.5286C22.1797 11.4036 22.0101 11.3333 21.8333 11.3333Z"/>
</mask>
<path d="M11.8333 4.66667V2.66667C11.8333 2.48986 11.9036 2.32029 12.0286 2.19526C12.1536 2.07024 12.3232 2 12.5 2C12.6768 2 12.8464 2.07024 12.9714 2.19526C13.0964 2.32029 13.1667 2.48986 13.1667 2.66667V4.66667C13.1667 4.84348 13.0964 5.01305 12.9714 5.13807C12.8464 5.2631 12.6768 5.33333 12.5 5.33333C12.3232 5.33333 12.1536 5.2631 12.0286 5.13807C11.9036 5.01305 11.8333 4.84348 11.8333 4.66667ZM17.8333 12C17.8333 13.0548 17.5205 14.086 16.9345 14.963C16.3485 15.8401 15.5155 16.5237 14.541 16.9274C13.5664 17.331 12.4941 17.4366 11.4595 17.2309C10.425 17.0251 9.47464 16.5171 8.72876 15.7712C7.98288 15.0254 7.47493 14.075 7.26915 13.0405C7.06336 12.0059 7.16898 10.9336 7.57264 9.95902C7.97631 8.98448 8.6599 8.15153 9.53696 7.5655C10.414 6.97946 11.4452 6.66667 12.5 6.66667C13.914 6.66821 15.2697 7.23061 16.2695 8.23047C17.2694 9.23033 17.8318 10.586 17.8333 12ZM16.5 12C16.5 11.2089 16.2654 10.4355 15.8259 9.77772C15.3864 9.11992 14.7616 8.60723 14.0307 8.30448C13.2998 8.00173 12.4956 7.92252 11.7196 8.07686C10.9437 8.2312 10.231 8.61216 9.67157 9.17157C9.11216 9.73098 8.7312 10.4437 8.57686 11.2196C8.42252 11.9956 8.50173 12.7998 8.80448 13.5307C9.10723 14.2616 9.61992 14.8864 10.2777 15.3259C10.9355 15.7654 11.7089 16 12.5 16C13.5605 15.9989 14.5773 15.5771 15.3272 14.8272C16.0771 14.0773 16.4989 13.0605 16.5 12ZM6.695 7.13833C6.82009 7.26343 6.98976 7.3337 7.16667 7.3337C7.34358 7.3337 7.51324 7.26343 7.63833 7.13833C7.76343 7.01324 7.8337 6.84358 7.8337 6.66667C7.8337 6.48976 7.76343 6.32009 7.63833 6.195L6.305 4.86167C6.17991 4.73657 6.01024 4.6663 5.83333 4.6663C5.65642 4.6663 5.48676 4.73657 5.36167 4.86167C5.23657 4.98676 5.1663 5.15642 5.1663 5.33333C5.1663 5.51024 5.23657 5.67991 5.36167 5.805L6.695 7.13833ZM6.695 16.8617L5.36167 18.195C5.23657 18.3201 5.1663 18.4898 5.1663 18.6667C5.1663 18.8436 5.23657 19.0132 5.36167 19.1383C5.48676 19.2634 5.65642 19.3337 5.83333 19.3337C6.01024 19.3337 6.17991 19.2634 6.305 19.1383L7.63833 17.805C7.70027 17.7431 7.74941 17.6695 7.78293 17.5886C7.81645 17.5077 7.8337 17.4209 7.8337 17.3333C7.8337 17.2457 7.81645 17.159 7.78293 17.0781C7.74941 16.9971 7.70027 16.9236 7.63833 16.8617C7.57639 16.7997 7.50286 16.7506 7.42193 16.7171C7.341 16.6835 7.25426 16.6663 7.16667 16.6663C7.07907 16.6663 6.99233 16.6835 6.9114 16.7171C6.83047 16.7506 6.75694 16.7997 6.695 16.8617ZM17.8333 7.33333C17.9209 7.3334 18.0076 7.31622 18.0886 7.28276C18.1695 7.2493 18.243 7.20022 18.305 7.13833L19.6383 5.805C19.7634 5.67991 19.8337 5.51024 19.8337 5.33333C19.8337 5.15642 19.7634 4.98676 19.6383 4.86167C19.5132 4.73657 19.3436 4.6663 19.1667 4.6663C18.9898 4.6663 18.8201 4.73657 18.695 4.86167L17.3617 6.195C17.2683 6.28824 17.2047 6.40707 17.179 6.53646C17.1532 6.66585 17.1664 6.79998 17.2169 6.92186C17.2674 7.04374 17.3529 7.1479 17.4627 7.22115C17.5724 7.29439 17.7014 7.33344 17.8333 7.33333ZM18.305 16.8617C18.1799 16.7366 18.0102 16.6663 17.8333 16.6663C17.6564 16.6663 17.4868 16.7366 17.3617 16.8617C17.2366 16.9868 17.1663 17.1564 17.1663 17.3333C17.1663 17.5102 17.2366 17.6799 17.3617 17.805L18.695 19.1383C18.7569 19.2003 18.8305 19.2494 18.9114 19.2829C18.9923 19.3165 19.0791 19.3337 19.1667 19.3337C19.2543 19.3337 19.341 19.3165 19.4219 19.2829C19.5029 19.2494 19.5764 19.2003 19.6383 19.1383C19.7003 19.0764 19.7494 19.0029 19.7829 18.9219C19.8165 18.841 19.8337 18.7543 19.8337 18.6667C19.8337 18.5791 19.8165 18.4923 19.7829 18.4114C19.7494 18.3305 19.7003 18.2569 19.6383 18.195L18.305 16.8617ZM5.83333 12C5.83333 11.8232 5.7631 11.6536 5.63807 11.5286C5.51305 11.4036 5.34348 11.3333 5.16667 11.3333H3.16667C2.98986 11.3333 2.82029 11.4036 2.69526 11.5286C2.57024 11.6536 2.5 11.8232 2.5 12C2.5 12.1768 2.57024 12.3464 2.69526 12.4714C2.82029 12.5964 2.98986 12.6667 3.16667 12.6667H5.16667C5.34348 12.6667 5.51305 12.5964 5.63807 12.4714C5.7631 12.3464 5.83333 12.1768 5.83333 12ZM12.5 18.6667C12.3232 18.6667 12.1536 18.7369 12.0286 18.8619C11.9036 18.987 11.8333 19.1565 11.8333 19.3333V21.3333C11.8333 21.5101 11.9036 21.6797 12.0286 21.8047C12.1536 21.9298 12.3232 22 12.5 22C12.6768 22 12.8464 21.9298 12.9714 21.8047C13.0964 21.6797 13.1667 21.5101 13.1667 21.3333V19.3333C13.1667 19.1565 13.0964 18.987 12.9714 18.8619C12.8464 18.7369 12.6768 18.6667 12.5 18.6667ZM21.8333 11.3333H19.8333C19.6565 11.3333 19.487 11.4036 19.3619 11.5286C19.2369 11.6536 19.1667 11.8232 19.1667 12C19.1667 12.1768 19.2369 12.3464 19.3619 12.4714C19.487 12.5964 19.6565 12.6667 19.8333 12.6667H21.8333C22.0101 12.6667 22.1797 12.5964 22.3047 12.4714C22.4298 12.3464 22.5 12.1768 22.5 12C22.5 11.8232 22.4298 11.6536 22.3047 11.5286C22.1797 11.4036 22.0101 11.3333 21.8333 11.3333Z" fill="currentColor"/>
<path d="M11.8333 4.66667V2.66667C11.8333 2.48986 11.9036 2.32029 12.0286 2.19526C12.1536 2.07024 12.3232 2 12.5 2C12.6768 2 12.8464 2.07024 12.9714 2.19526C13.0964 2.32029 13.1667 2.48986 13.1667 2.66667V4.66667C13.1667 4.84348 13.0964 5.01305 12.9714 5.13807C12.8464 5.2631 12.6768 5.33333 12.5 5.33333C12.3232 5.33333 12.1536 5.2631 12.0286 5.13807C11.9036 5.01305 11.8333 4.84348 11.8333 4.66667ZM17.8333 12C17.8333 13.0548 17.5205 14.086 16.9345 14.963C16.3485 15.8401 15.5155 16.5237 14.541 16.9274C13.5664 17.331 12.4941 17.4366 11.4595 17.2309C10.425 17.0251 9.47464 16.5171 8.72876 15.7712C7.98288 15.0254 7.47493 14.075 7.26915 13.0405C7.06336 12.0059 7.16898 10.9336 7.57264 9.95902C7.97631 8.98448 8.6599 8.15153 9.53696 7.5655C10.414 6.97946 11.4452 6.66667 12.5 6.66667C13.914 6.66821 15.2697 7.23061 16.2695 8.23047C17.2694 9.23033 17.8318 10.586 17.8333 12ZM16.5 12C16.5 11.2089 16.2654 10.4355 15.8259 9.77772C15.3864 9.11992 14.7616 8.60723 14.0307 8.30448C13.2998 8.00173 12.4956 7.92252 11.7196 8.07686C10.9437 8.2312 10.231 8.61216 9.67157 9.17157C9.11216 9.73098 8.7312 10.4437 8.57686 11.2196C8.42252 11.9956 8.50173 12.7998 8.80448 13.5307C9.10723 14.2616 9.61992 14.8864 10.2777 15.3259C10.9355 15.7654 11.7089 16 12.5 16C13.5605 15.9989 14.5773 15.5771 15.3272 14.8272C16.0771 14.0773 16.4989 13.0605 16.5 12ZM6.695 7.13833C6.82009 7.26343 6.98976 7.3337 7.16667 7.3337C7.34358 7.3337 7.51324 7.26343 7.63833 7.13833C7.76343 7.01324 7.8337 6.84358 7.8337 6.66667C7.8337 6.48976 7.76343 6.32009 7.63833 6.195L6.305 4.86167C6.17991 4.73657 6.01024 4.6663 5.83333 4.6663C5.65642 4.6663 5.48676 4.73657 5.36167 4.86167C5.23657 4.98676 5.1663 5.15642 5.1663 5.33333C5.1663 5.51024 5.23657 5.67991 5.36167 5.805L6.695 7.13833ZM6.695 16.8617L5.36167 18.195C5.23657 18.3201 5.1663 18.4898 5.1663 18.6667C5.1663 18.8436 5.23657 19.0132 5.36167 19.1383C5.48676 19.2634 5.65642 19.3337 5.83333 19.3337C6.01024 19.3337 6.17991 19.2634 6.305 19.1383L7.63833 17.805C7.70027 17.7431 7.74941 17.6695 7.78293 17.5886C7.81645 17.5077 7.8337 17.4209 7.8337 17.3333C7.8337 17.2457 7.81645 17.159 7.78293 17.0781C7.74941 16.9971 7.70027 16.9236 7.63833 16.8617C7.57639 16.7997 7.50286 16.7506 7.42193 16.7171C7.341 16.6835 7.25426 16.6663 7.16667 16.6663C7.07907 16.6663 6.99233 16.6835 6.9114 16.7171C6.83047 16.7506 6.75694 16.7997 6.695 16.8617ZM17.8333 7.33333C17.9209 7.3334 18.0076 7.31622 18.0886 7.28276C18.1695 7.2493 18.243 7.20022 18.305 7.13833L19.6383 5.805C19.7634 5.67991 19.8337 5.51024 19.8337 5.33333C19.8337 5.15642 19.7634 4.98676 19.6383 4.86167C19.5132 4.73657 19.3436 4.6663 19.1667 4.6663C18.9898 4.6663 18.8201 4.73657 18.695 4.86167L17.3617 6.195C17.2683 6.28824 17.2047 6.40707 17.179 6.53646C17.1532 6.66585 17.1664 6.79998 17.2169 6.92186C17.2674 7.04374 17.3529 7.1479 17.4627 7.22115C17.5724 7.29439 17.7014 7.33344 17.8333 7.33333ZM18.305 16.8617C18.1799 16.7366 18.0102 16.6663 17.8333 16.6663C17.6564 16.6663 17.4868 16.7366 17.3617 16.8617C17.2366 16.9868 17.1663 17.1564 17.1663 17.3333C17.1663 17.5102 17.2366 17.6799 17.3617 17.805L18.695 19.1383C18.7569 19.2003 18.8305 19.2494 18.9114 19.2829C18.9923 19.3165 19.0791 19.3337 19.1667 19.3337C19.2543 19.3337 19.341 19.3165 19.4219 19.2829C19.5029 19.2494 19.5764 19.2003 19.6383 19.1383C19.7003 19.0764 19.7494 19.0029 19.7829 18.9219C19.8165 18.841 19.8337 18.7543 19.8337 18.6667C19.8337 18.5791 19.8165 18.4923 19.7829 18.4114C19.7494 18.3305 19.7003 18.2569 19.6383 18.195L18.305 16.8617ZM5.83333 12C5.83333 11.8232 5.7631 11.6536 5.63807 11.5286C5.51305 11.4036 5.34348 11.3333 5.16667 11.3333H3.16667C2.98986 11.3333 2.82029 11.4036 2.69526 11.5286C2.57024 11.6536 2.5 11.8232 2.5 12C2.5 12.1768 2.57024 12.3464 2.69526 12.4714C2.82029 12.5964 2.98986 12.6667 3.16667 12.6667H5.16667C5.34348 12.6667 5.51305 12.5964 5.63807 12.4714C5.7631 12.3464 5.83333 12.1768 5.83333 12ZM12.5 18.6667C12.3232 18.6667 12.1536 18.7369 12.0286 18.8619C11.9036 18.987 11.8333 19.1565 11.8333 19.3333V21.3333C11.8333 21.5101 11.9036 21.6797 12.0286 21.8047C12.1536 21.9298 12.3232 22 12.5 22C12.6768 22 12.8464 21.9298 12.9714 21.8047C13.0964 21.6797 13.1667 21.5101 13.1667 21.3333V19.3333C13.1667 19.1565 13.0964 18.987 12.9714 18.8619C12.8464 18.7369 12.6768 18.6667 12.5 18.6667ZM21.8333 11.3333H19.8333C19.6565 11.3333 19.487 11.4036 19.3619 11.5286C19.2369 11.6536 19.1667 11.8232 19.1667 12C19.1667 12.1768 19.2369 12.3464 19.3619 12.4714C19.487 12.5964 19.6565 12.6667 19.8333 12.6667H21.8333C22.0101 12.6667 22.1797 12.5964 22.3047 12.4714C22.4298 12.3464 22.5 12.1768 22.5 12C22.5 11.8232 22.4298 11.6536 22.3047 11.5286C22.1797 11.4036 22.0101 11.3333 21.8333 11.3333Z" stroke="currentColor" stroke-width="0.4" mask="url(#path-1-outside-1_1204_7807)"/>
</g>
<defs>
<clipPath id="clip0_1204_7807">
<rect width="24" height="24" fill="white" transform="translate(0.5)"/>
</clipPath>
</defs>
</svg>
