<svg width="37" height="36" viewBox="0 0 37 36" fill="none" xmlns="http://www.w3.org/2000/svg">
<path d="M9.19602 6.66275L9.3448 6.6707C10.0776 6.74536 10.6498 7.36395 10.6498 8.1165C10.6498 8.86905 10.0776 9.48764 9.3448 9.5623L9.19602 9.57025L8.32376 9.56571V27.5922H28.6763V9.56571H27.3111C26.5082 9.56571 25.8574 8.91484 25.8574 8.11196C25.8574 7.30907 26.5082 6.6582 27.3111 6.6582H30.1301C30.9329 6.6582 31.5838 7.30907 31.5838 8.11196V29.046C31.5838 29.8489 30.9329 30.4997 30.1301 30.4997H6.87001C6.06713 30.4997 5.41626 29.8489 5.41626 29.046V8.11196C5.41626 7.30907 6.06713 6.6582 6.87001 6.6582L9.19602 6.66275Z" fill="#37CDAC"/>
<path d="M10.6499 9.04693C10.6499 9.84981 9.99903 10.5007 9.19615 10.5007C8.39326 10.5007 7.7424 9.84981 7.7424 9.04693L7.7424 6.95375C7.7424 6.15087 8.39326 5.5 9.19615 5.5C9.99904 5.5 10.6499 6.15087 10.6499 6.95375L10.6499 9.04693Z" fill="#1F9F8A"/>
<path d="M16.616 9.04693C16.616 9.84981 15.9651 10.5007 15.1622 10.5007C14.3593 10.5007 13.7085 9.84981 13.7085 9.04693L13.7085 6.95375C13.7085 6.15087 14.3593 5.5 15.1622 5.5C15.9651 5.5 16.616 6.15087 16.616 6.95375L16.616 9.04693Z" fill="#1F9F8A"/>
<path d="M22.582 9.04693C22.582 9.84981 21.9312 10.5007 21.1283 10.5007C20.3254 10.5007 19.6745 9.84981 19.6745 9.04693L19.6745 6.95375C19.6745 6.15087 20.3254 5.5 21.1283 5.5C21.9312 5.5 22.582 6.15087 22.582 6.95375L22.582 9.04693Z" fill="#1F9F8A"/>
<path d="M28.5491 9.04693C28.5491 9.84981 27.8982 10.5007 27.0953 10.5007C26.2924 10.5007 25.6416 9.84981 25.6416 9.04693L25.6416 6.95375C25.6416 6.15087 26.2924 5.5 27.0953 5.5C27.8982 5.5 28.5491 6.15087 28.5491 6.95375L28.5491 9.04693Z" fill="#1F9F8A"/>
<path d="M25.303 12.6523C26.0095 12.6523 26.5818 13.2247 26.5818 13.9312C26.5818 14.6377 26.0095 15.21 25.303 15.21H11.347C10.6404 15.21 10.0681 14.6377 10.0681 13.9312C10.0681 13.2247 10.6404 12.6523 11.347 12.6523H25.303Z" fill="#37CDAC"/>
<path d="M25.303 17.3047C26.0095 17.3047 26.5818 17.877 26.5818 18.5835C26.5818 19.2901 26.0095 19.8624 25.303 19.8624H11.347C10.6404 19.8624 10.0681 19.2901 10.0681 18.5835C10.0681 17.877 10.6404 17.3047 11.347 17.3047H25.303Z" fill="#37CDAC"/>
<path d="M25.303 21.957C26.0095 21.957 26.5818 22.5293 26.5818 23.2359C26.5818 23.9424 26.0095 24.5147 25.303 24.5147H11.347C10.6404 24.5147 10.0681 23.9424 10.0681 23.2359C10.0681 22.5293 10.6404 21.957 11.347 21.957H25.303Z" fill="#37CDAC"/>
</svg>
