<svg width="375" height="221" viewBox="0 0 375 221" fill="none" xmlns="http://www.w3.org/2000/svg">
<g clip-path="url(#clip0_176_22213)">
<path d="M54.0195 207.832L54.0195 135.683H49.2182L49.2182 207.832H54.0195Z" fill="#FAF5FF"/>
<path d="M70.9355 207.828V135.679H66.1343V207.828H70.9355Z" fill="#FAF5FF"/>
<path d="M138.019 134.208H-4.0957V139.02H138.019V134.208Z" fill="#C8CCD7"/>
<path d="M144.193 113.144C143.815 112.827 134.666 105.304 111.708 97.7614C107.478 96.3713 103.145 95.1111 98.7481 93.954C98.6452 93.9196 98.5423 93.8929 98.4394 93.8738C93.238 92.5143 87.949 91.3076 82.6142 90.2421C82.4771 90.1963 82.3399 90.1695 82.1989 90.1581C76.9022 89.1079 71.5599 88.199 66.2289 87.4085C66.0269 87.3436 65.8174 87.313 65.6116 87.3207C60.9475 86.6371 56.2872 86.0414 51.6688 85.5335C51.6497 85.5296 51.6345 85.5182 51.6193 85.5144C51.4325 85.4647 51.2382 85.4571 51.0477 85.4647C47.3476 85.0637 43.6781 84.7124 40.0466 84.4069C39.8409 84.3534 39.6313 84.3382 39.4179 84.3573C35.855 84.0632 32.3379 83.815 28.8779 83.6049C28.695 83.5668 28.5083 83.5591 28.3254 83.5744C16.6232 82.8794 5.60692 82.6349 -4.09473 82.6349C-5.14644 82.6349 -6 83.4904 -6 84.5444C-6 85.0294 -5.81328 85.4685 -5.51606 85.8046C-5.81328 86.1407 -6 86.5798 -6 87.0648C-6 88.1188 -5.14644 88.9742 -4.09473 88.9742C15.8687 88.9742 35.0586 91.4947 52.9491 96.4668C67.2539 100.442 80.7661 105.991 93.1123 112.949C114.139 124.806 124.614 136.824 124.717 136.943C125.094 137.382 125.624 137.607 126.161 137.607C126.599 137.607 127.045 137.455 127.403 137.145C128.2 136.458 128.291 135.251 127.605 134.453C127.396 134.208 124.816 131.245 119.767 126.872L140.527 115.145C141.018 115.496 141.434 115.809 141.758 116.08C142.112 116.378 142.547 116.523 142.973 116.523C143.518 116.523 144.059 116.29 144.437 115.84C145.111 115.03 145.004 113.827 144.196 113.151L144.193 113.144ZM114.326 102.688L100.013 110.448V98.2426C103.748 99.2622 107.131 100.282 110.168 101.271C111.605 101.741 112.984 102.21 114.326 102.684V102.688ZM38.9873 88.7948L39.3379 89.3179C39.0254 89.2568 38.7091 89.1957 38.3967 89.1346L38.9873 88.7948ZM43.3961 88.5198C44.0706 88.5809 44.745 88.6458 45.4119 88.7107L44.0858 89.5471L43.3961 88.5236V88.5198ZM50.4532 90.0473L51.6193 92.1553C50.5523 91.8727 49.4815 91.6016 48.407 91.3343L50.4532 90.0473ZM54.622 89.7075C56.4244 89.9213 58.1963 90.1466 59.9301 90.3758L56.2034 92.5678L54.622 89.7075ZM64.6323 92.037L66.2822 96.6654C64.2741 95.9589 62.2507 95.283 60.2044 94.6414L64.6323 92.037ZM68.5343 91.6245C71.4036 92.0751 74.1625 92.5449 76.8184 93.0299L70.4434 96.9747L68.5343 91.6245ZM80.5375 95.2142L81.6006 102.829C79.0057 101.645 76.3688 100.519 73.6938 99.4493L80.5375 95.2181V95.2142ZM84.2833 94.4887C87.6061 95.1799 90.7383 95.8902 93.6839 96.6119L85.4226 102.63L84.2871 94.4887H84.2833ZM87.6518 105.724L96.2026 99.499V110.325C95.8521 110.123 95.5053 109.921 95.1471 109.718C92.6931 108.332 90.1934 106.999 87.6518 105.724ZM101.918 113.759L116.688 105.747L114.897 122.863C111.342 120.071 107.017 116.966 101.915 113.755L101.918 113.759ZM118.708 123.084L120.594 105.04C127.762 107.893 133.195 110.646 136.884 112.819L118.708 123.088V123.084Z" fill="#FAF5FF"/>
<path d="M329.75 56.1054C329.75 56.1054 329.735 56.1054 329.727 56.1054C329.72 56.1054 329.712 56.1054 329.704 56.1054C311.764 56.5217 323.428 74.8865 323.428 74.8865H336.022C336.022 74.8865 347.686 56.5217 329.746 56.1092L329.75 56.1054Z" fill="#CAFFF3"/>
<path d="M332.341 72.3737H327.113V142.018H332.341V72.3737Z" fill="#56E2C3"/>
<path d="M338.714 82.6311H320.747C320.61 82.6311 320.5 82.5204 320.5 82.3829L317.451 69.2194C317.451 69.0819 317.562 68.9711 317.699 68.9711H341.762C341.9 68.9711 342.01 69.0819 342.01 69.2194L338.962 82.3829C338.962 82.5204 338.851 82.6311 338.714 82.6311Z" fill="#56E2C3"/>
<path d="M237.375 99.6403H348.068C348.068 99.6403 399.003 99.5868 399.003 150.687C399.003 201.787 399.003 197.624 399.003 197.624H237.375V99.6403Z" fill="#FAF5FF"/>
<path d="M399 148.674H228.936V197.624H399V148.674Z" fill="#FAF5FF"/>
<path d="M376.861 158.733H371.617V165.153H376.861V158.733Z" fill="#C8CCD7"/>
<path d="M376.861 166.329H371.617V172.748H376.861V166.329Z" fill="#C8CCD7"/>
<path d="M329.065 121.301C332.182 121.301 334.716 123.836 334.716 126.964V135.136H323.418V126.964C323.418 123.84 325.948 121.301 329.069 121.301H329.065Z" fill="#C8CCD7"/>
<path d="M360.278 121.301C363.395 121.301 365.929 123.836 365.929 126.964V135.136H354.631V126.964C354.631 123.84 357.161 121.301 360.282 121.301H360.278Z" fill="#C8CCD7"/>
<path d="M129.625 131.799C124.085 131.799 119.215 134.667 116.407 139.001C113.534 135.919 109.441 133.991 104.899 133.991C96.1994 133.991 89.146 141.06 89.146 149.778C89.146 150.095 89.1575 150.408 89.1765 150.721C88.7917 150.694 88.403 150.672 88.0067 150.672C79.3072 150.672 72.2539 157.74 72.2539 166.459C72.2539 170.067 73.4618 173.39 75.4967 176.048C70.4286 178.671 66.9648 183.968 66.9648 190.078C66.9648 198.797 74.0182 205.865 82.7176 205.865H140.386C143.145 205.865 145.382 203.624 145.382 200.859V147.582C145.382 138.864 138.329 131.795 129.629 131.795L129.625 131.799Z" fill="#56E2C3"/>
<path d="M187.069 2.21003C187.069 1.1808 186.236 0.346436 185.209 0.346436C184.182 0.346436 183.35 1.1808 183.35 2.21003V28.3768C183.35 29.406 184.182 30.2404 185.209 30.2404C186.236 30.2404 187.069 29.406 187.069 28.3768V2.21003Z" fill="#CAFFF3"/>
<path d="M191.106 11.8594C192.094 12.1396 193.122 11.5639 193.402 10.5736C193.682 9.58323 193.107 8.55322 192.119 8.27297L179.308 4.63992C178.32 4.35968 177.292 4.93534 177.012 5.92569C176.733 6.91604 177.307 7.94606 178.295 8.2263L191.106 11.8594Z" fill="#56E2C3"/>
<path d="M191.108 18.1622C192.096 18.4424 193.124 17.8668 193.404 16.8764C193.683 15.8861 193.109 14.8561 192.121 14.5758L179.31 10.9428C178.322 10.6625 177.294 11.2382 177.014 12.2285C176.735 13.2189 177.309 14.2489 178.297 14.5292L191.108 18.1622Z" fill="#56E2C3"/>
<path d="M139.761 26.4253H228.94V213.996H139.761C136.923 213.996 134.617 211.685 134.617 208.84V31.5807C134.617 28.7357 136.923 26.4253 139.761 26.4253Z" fill="#CAFFF3"/>
<path d="M228.936 213.996H259.656V47.8491C259.656 46.0733 258.73 44.4274 257.21 43.5109L228.936 26.4292V214V213.996Z" fill="#56E2C3"/>
<path d="M207.398 39.967H200.467V46.9135H207.398V39.967Z" fill="#56E2C3"/>
<path d="M220.869 46.9135H207.402V60.4093H220.869V46.9135Z" fill="#56E2C3"/>
<path d="M161.47 65.496H154.539V72.4425H161.47V65.496Z" fill="#56E2C3"/>
<path d="M156.435 84.5406H142.969V98.0364H156.435V84.5406Z" fill="#56E2C3"/>
<path d="M172.452 105.46H168.984V108.935H172.452V105.46Z" fill="#56E2C3"/>
<path d="M216.51 102.233H210.668V115.637H216.51V102.233Z" fill="#56E2C3"/>
<path d="M210.668 93.744H202.197V102.233H210.668V93.744Z" fill="#56E2C3"/>
<path d="M179.266 121.385H170.795V129.874H179.266V121.385Z" fill="#56E2C3"/>
<path d="M171.236 129.523H165.094V135.679H171.236V129.523Z" fill="#56E2C3"/>
<path d="M157.282 148.674H151.029V159.165H157.282V148.674Z" fill="#56E2C3"/>
<path d="M182.253 162H176V172.49H182.253V162Z" fill="#56E2C3"/>
<path d="M179.301 170C176.005 170 173.105 171.707 171.433 174.289C169.722 172.456 167.287 171.306 164.585 171.306C159.407 171.306 155.207 175.514 155.207 180.704C155.207 180.891 155.215 181.078 155.226 181.266C154.998 181.25 154.765 181.239 154.529 181.239C149.351 181.239 145.151 185.447 145.151 190.637C145.151 192.783 145.872 194.761 147.079 196.342C144.065 197.904 142 201.055 142 204.694C142 209.884 146.199 214.092 151.378 214.092H185.699C187.342 214.092 188.672 212.76 188.672 211.114V179.402C188.672 174.212 184.472 170.004 179.294 170.004L179.301 170Z" fill="#C8CCD7"/>
<path d="M196.301 176.505C193.005 176.505 190.105 178.212 188.433 180.793C186.722 178.96 184.287 177.811 181.585 177.811C176.407 177.811 172.207 182.019 172.207 187.209C172.207 187.396 172.215 187.583 172.226 187.77C171.998 187.755 171.765 187.744 171.529 187.744C166.351 187.744 162.151 191.952 162.151 197.142C162.151 199.288 162.872 201.266 164.079 202.847C161.065 204.409 159 207.56 159 211.199C159 216.389 163.199 220.597 168.378 220.597H202.699C204.342 220.597 205.672 219.264 205.672 217.618V185.907C205.672 180.717 201.472 176.508 196.294 176.508L196.301 176.505Z" fill="#FAF5FF"/>
<path d="M363.718 151.779L312.398 121.003C311.514 120.472 310.519 120.209 309.529 120.209H238.999C238.47 120.209 238.035 120.64 238.035 121.175V220.346H363.623C364.961 220.346 366.047 219.258 366.047 217.918V155.903C366.047 154.215 365.163 152.65 363.715 151.783L363.718 151.779Z" fill="#CAFFF3"/>
<path d="M292.229 151.779L278.82 143.737V128.812C278.82 127.35 277.638 126.166 276.179 126.166H269.225C267.765 126.166 266.584 127.35 266.584 128.812V136.401L240.909 121.003C239.141 119.941 236.934 119.941 235.166 121.003L183.846 151.779C182.402 152.646 181.514 154.212 181.514 155.9V217.914C181.514 219.254 182.6 220.343 183.937 220.343H292.13C293.467 220.343 294.553 219.254 294.553 217.914V155.9C294.553 154.212 293.669 152.646 292.221 151.779H292.229Z" fill="#56E2C3"/>
<path d="M318.64 165.359H311.709V172.305H318.64V165.359Z" fill="#56E2C3"/>
<path d="M326.883 165.359H319.951V172.305H326.883V165.359Z" fill="#56E2C3"/>
<path d="M318.64 173.504H311.709V180.451H318.64V173.504Z" fill="#56E2C3"/>
<path d="M326.883 173.504H319.951V180.451H326.883V173.504Z" fill="#56E2C3"/>
<path d="M348.424 165.359H341.492V172.305H348.424V165.359Z" fill="#56E2C3"/>
<path d="M356.662 165.359H349.73V172.305H356.662V165.359Z" fill="#56E2C3"/>
<path d="M348.424 173.504H341.492V180.451H348.424V173.504Z" fill="#56E2C3"/>
<path d="M356.662 173.504H349.73V180.451H356.662V173.504Z" fill="#56E2C3"/>
<path d="M233.185 150.576H242.502C244.015 150.576 245.242 151.806 245.242 153.322V169.189H230.445V153.322C230.445 151.806 231.672 150.576 233.185 150.576Z" fill="#CAFFF3"/>
<path d="M238.498 144.726H237.191V172.653H238.498V144.726Z" fill="#56E2C3"/>
<path d="M251.777 160.539V159.23H223.911V160.539H251.777Z" fill="#56E2C3"/>
<mask id="mask0_176_22213" style="mask-type:luminance" maskUnits="userSpaceOnUse" x="181" y="120" width="185" height="101">
<path d="M365.822 120.209H181.674V220.346H365.822V120.209Z" fill="white"/>
</mask>
<g mask="url(#mask0_176_22213)">
<path d="M247.341 183.155V211.953C247.341 213.052 246.449 213.95 245.352 213.95H230.852C229.755 213.95 228.863 213.056 228.863 211.953V183.155C228.863 182.055 229.755 181.157 230.852 181.157H245.352C246.449 181.157 247.341 182.051 247.341 183.155Z" fill="#CAFFF3"/>
</g>
</g>
<defs>
<clipPath id="clip0_176_22213">
<rect width="375" height="220" fill="white" transform="translate(0 0.346436)"/>
</clipPath>
</defs>
</svg>
