<svg width="187" height="137" viewBox="0 0 187 137" fill="none" xmlns="http://www.w3.org/2000/svg">
<path d="M171.106 135.996H168.303V131.384C166.647 134.38 163.578 136.346 159.94 136.346C156.633 136.346 153.813 135.098 151.82 132.966C149.829 130.834 148.674 127.828 148.674 124.329C148.674 120.805 149.828 117.788 151.819 115.649C153.812 113.51 156.633 112.261 159.94 112.261C163.525 112.262 166.672 114.306 168.303 117.188V100.444H171.106V135.996ZM112.224 127.083C112.224 129.043 112.848 130.696 113.899 131.856C114.949 133.015 116.435 133.693 118.183 133.693C122.237 133.693 125.043 130.619 125.043 127.534V112.511H127.897V135.996H125.043V132.903C123.62 134.978 120.98 136.296 118.183 136.296C113.061 136.295 109.37 132.397 109.37 127.433V112.511H112.224V127.083ZM45.9893 112.462C52.57 112.462 57.2059 117.42 57.2061 124.329C57.2061 131.238 52.5701 136.196 45.9893 136.196C42.7318 136.196 39.9488 134.961 37.9814 132.853C36.015 130.746 34.873 127.778 34.873 124.329C34.8731 120.88 36.0151 117.912 37.9814 115.805C39.9488 113.698 42.7317 112.462 45.9893 112.462ZM97.3047 112.462C103.886 112.462 108.521 117.42 108.521 124.329C108.521 131.238 103.886 136.196 97.3047 136.196C94.0473 136.196 91.2642 134.961 89.2969 132.853C87.3305 130.746 86.1885 127.778 86.1885 124.329C86.1885 120.88 87.3306 117.912 89.2969 115.805C91.2642 113.698 94.0472 112.462 97.3047 112.462ZM18.7461 115.549C20.1192 113.727 22.8435 112.512 25.707 112.511C30.8724 112.512 34.5193 116.155 34.5195 121.175V135.996H31.666V121.675C31.6659 119.56 31.0518 117.923 30.0117 116.817C28.9725 115.712 27.4884 115.115 25.707 115.115C21.5477 115.115 18.7464 118.043 18.7461 121.274V135.996H15.8926V112.511H18.7461V115.549ZM62.0469 112.511H67.7549V115.065H62.0469V135.996H59.2432V115.065H54.7861V112.511H59.2432V104.9H62.0469V112.511ZM84.9883 99.5925C86.6945 99.5926 88.2435 100.265 89.4287 101.347L89.5762 101.482L89.4424 101.63L87.9404 103.282L87.8027 103.432L87.6553 103.294C86.8335 102.52 86.029 102.146 84.9883 102.146C83.8881 102.146 82.9648 102.551 82.3164 103.235C81.6674 103.92 81.2824 104.895 81.2822 106.052V112.511H88.3926V115.065H81.2822V135.996H78.4287V115.065H73.7715V112.511H78.4287V106.052C78.4291 102.283 81.1758 99.5925 84.9883 99.5925ZM132.547 115.549C133.92 113.727 136.644 112.511 139.508 112.511C144.673 112.512 148.32 116.155 148.32 121.175V135.996H145.467V121.675C145.467 119.56 144.853 117.923 143.812 116.817C142.773 115.712 141.289 115.115 139.508 115.115C135.348 115.115 132.547 118.043 132.547 121.274V135.996H129.693V112.511H132.547V115.549ZM159.99 114.865C157.466 114.865 155.355 115.832 153.874 117.49C152.391 119.15 151.527 121.515 151.527 124.329C151.527 127.117 152.391 129.484 153.874 131.15C155.356 132.815 157.467 133.794 159.99 133.794C164.415 133.793 168.303 129.549 168.303 124.329C168.303 119.109 164.415 114.865 159.99 114.865ZM45.9893 115.015C43.5411 115.015 41.4807 115.968 40.0303 117.601C38.5782 119.236 37.7266 121.566 37.7266 124.329C37.7266 127.092 38.5782 129.421 40.0303 131.056C41.4807 132.689 43.5409 133.643 45.9893 133.643C48.4636 133.643 50.5623 132.688 52.0439 131.054C53.5267 129.419 54.4023 127.091 54.4023 124.329C54.4023 121.567 53.5268 119.239 52.0439 117.603C50.5623 115.969 48.4636 115.015 45.9893 115.015ZM97.3047 115.015C94.8566 115.015 92.7961 115.968 91.3457 117.601C89.8937 119.236 89.0421 121.566 89.042 124.329C89.042 127.092 89.8937 129.421 91.3457 131.056C92.7961 132.689 94.8565 133.643 97.3047 133.643C99.7791 133.643 101.878 132.688 103.359 131.054C104.842 129.419 105.718 127.091 105.718 124.329C105.718 121.567 104.842 119.239 103.359 117.603C101.878 115.969 99.779 115.015 97.3047 115.015ZM40.167 131.496C40.1961 131.525 40.2273 131.553 40.2568 131.582C40.2209 131.546 40.1838 131.512 40.1484 131.476L40.167 131.496ZM91.4824 131.496C91.5115 131.525 91.5427 131.553 91.5723 131.582C91.5363 131.546 91.4992 131.512 91.4639 131.476L91.4824 131.496ZM168.503 130.538C168.384 130.804 168.252 131.063 168.112 131.314C168.252 131.063 168.384 130.805 168.503 130.539V130.538ZM57.0049 124.329C57.0049 124.752 56.9867 125.168 56.9521 125.575C56.9693 125.373 56.9835 125.168 56.9922 124.962L57.0059 124.329C57.0059 124.119 57.0008 123.91 56.9922 123.704C57.0008 123.91 57.0049 124.119 57.0049 124.329ZM168.45 125.37C168.452 125.351 168.455 125.332 168.457 125.312L168.458 125.298C168.456 125.322 168.453 125.346 168.45 125.37ZM37.665 122.435C37.5735 123.041 37.5264 123.673 37.5264 124.329C37.5264 124.669 37.5395 125.003 37.5645 125.33C37.5523 125.171 37.5434 125.011 37.5371 124.849L37.5273 124.329C37.5274 123.564 37.5912 122.831 37.7148 122.135L37.665 122.435ZM105.917 124.329L105.912 124.556C105.914 124.481 105.918 124.405 105.918 124.329C105.918 124.199 105.915 124.071 105.91 123.943L105.917 124.329ZM108.269 123.078C108.303 123.487 108.321 123.904 108.321 124.329L108.31 123.716C108.301 123.501 108.286 123.288 108.269 123.078ZM168.493 123.924L168.491 123.835C168.487 123.751 168.479 123.668 168.474 123.585C168.482 123.697 168.488 123.81 168.493 123.924ZM88.9316 122.799C88.913 122.954 88.8975 123.111 88.8848 123.27C88.9113 122.943 88.9503 122.623 89.001 122.31L88.9316 122.799ZM89.3184 120.916C89.3072 120.953 89.2978 120.991 89.2871 121.029C89.3057 120.964 89.3249 120.898 89.3447 120.834L89.3184 120.916ZM18.5801 120.65C18.5773 120.676 18.5757 120.702 18.5732 120.727C18.5773 120.684 18.5818 120.641 18.5869 120.597L18.5801 120.65ZM18.7529 119.738C18.7258 119.837 18.7016 119.937 18.6797 120.038L18.7539 119.738C18.7811 119.639 18.8105 119.54 18.8428 119.442L18.7529 119.738ZM38.9443 118.752C38.8272 118.949 38.7177 119.152 38.6143 119.361C38.7195 119.149 38.8309 118.942 38.9502 118.742L38.9443 118.752ZM39.1094 118.485C39.0602 118.561 39.0119 118.638 38.9648 118.717C39.021 118.623 39.0795 118.532 39.1387 118.441L39.1094 118.485ZM90.9238 117.792C90.7475 118.012 90.5816 118.244 90.4258 118.485L90.668 118.131C90.8341 117.9 91.0102 117.679 91.1963 117.469L90.9238 117.792ZM39.8799 117.469C39.7869 117.574 39.6964 117.682 39.6084 117.792L39.8809 117.469C39.974 117.365 40.0691 117.262 40.167 117.163L39.8799 117.469ZM91.7832 116.874C91.6806 116.967 91.5803 117.064 91.4824 117.163L91.7842 116.874C91.8868 116.78 91.9914 116.689 92.0986 116.601L91.7832 116.874ZM93.123 115.892C93.0028 115.962 92.8846 116.034 92.7686 116.11L93.124 115.892C93.2444 115.823 93.3667 115.756 93.4912 115.693L93.123 115.892ZM42.9453 115.352C42.813 115.402 42.6831 115.457 42.5547 115.513L42.9463 115.353C43.0786 115.303 43.2126 115.256 43.3486 115.213L42.9453 115.352ZM94.2617 115.352C94.1292 115.402 93.9988 115.457 93.8701 115.513L94.2617 115.353C94.3943 115.303 94.5287 115.256 94.665 115.213L94.2617 115.352ZM24.9248 114.95C24.854 114.956 24.7838 114.965 24.7139 114.973C24.8024 114.963 24.8916 114.954 24.9814 114.946L24.9248 114.95ZM133.893 114.494C133.866 114.514 133.84 114.537 133.813 114.557C133.904 114.486 133.997 114.415 134.093 114.347L133.893 114.494ZM135.194 113.695C134.88 113.85 134.581 114.021 134.3 114.206L134.515 114.07C134.805 113.892 135.112 113.729 135.434 113.582L135.194 113.695ZM137.793 112.859C137.7 112.875 137.608 112.893 137.516 112.912L137.793 112.86C137.886 112.844 137.979 112.829 138.073 112.815L137.793 112.859ZM44.2383 112.788C44.05 112.815 43.8637 112.847 43.6797 112.884L44.2393 112.788C44.4276 112.76 44.6181 112.737 44.8105 112.719L44.2383 112.788ZM46.6973 112.682C46.6612 112.68 46.6251 112.677 46.5889 112.676L46.5205 112.674C46.5796 112.676 46.6385 112.679 46.6973 112.682ZM98.0127 112.682C97.9766 112.68 97.9405 112.677 97.9043 112.676L97.8359 112.674C97.895 112.676 97.9539 112.679 98.0127 112.682ZM160.329 112.47C160.318 112.47 160.307 112.469 160.296 112.469L159.94 112.462H159.939C160.07 112.462 160.2 112.465 160.329 112.47ZM82.5078 102.787C82.4626 102.824 82.4184 102.862 82.375 102.901C82.4243 102.857 82.4747 102.814 82.5264 102.772L82.5078 102.787ZM84.5645 101.966C84.4953 101.972 84.427 101.98 84.3594 101.99L84.5645 101.967C84.6337 101.96 84.7037 101.954 84.7744 101.951L84.5645 101.966ZM93.5908 0.14624C111.117 0.14624 123.385 19.174 123.385 46.0886C123.385 73.2536 111.117 92.282 93.5908 92.282C76.0651 92.2818 63.6719 73.2535 63.6719 46.0886C63.6719 19.1741 76.0651 0.146391 93.5908 0.14624ZM47.2197 60.1091H62.6182V64.115H47.2197V91.28H42.7139V64.115H0.776367L0.150391 59.8591L42.7139 0.897217H47.2197V60.1091ZM171.451 60.1091H186.849V64.115H171.451V91.28H166.944V64.115H125.008L124.382 59.8591L166.944 0.897217H171.451V60.1091ZM93.5908 4.1521C78.694 4.15226 68.1787 21.4274 68.1787 46.0886C68.1787 70.875 78.694 88.276 93.5908 88.2761C108.488 88.2761 118.878 70.8751 118.878 46.0886C118.878 21.4273 108.488 4.1521 93.5908 4.1521ZM5.5332 60.1091H42.7139V8.65796L5.5332 60.1091ZM129.765 60.1091H166.944V8.65796L129.765 60.1091Z" fill="#56E2C3"/>
</svg>
