<svg width="24" height="24" viewBox="0 0 24 24" fill="none" xmlns="http://www.w3.org/2000/svg">
<path fill-rule="evenodd" clip-rule="evenodd" d="M11.0112 7.24081C9.60213 5.38635 6.92559 5.10543 5.15823 6.60069C3.35362 8.12745 3.24257 10.8651 4.92471 12.5306L12 19.292L19.0752 12.5306C20.7574 10.8651 20.6464 8.12746 18.8418 6.6007C17.0744 5.10543 14.3979 5.38635 12.9888 7.24082L12.7022 7.61793C12.5396 7.83196 12.2783 7.95879 12 7.95879C11.7217 7.95879 11.4604 7.83196 11.2978 7.61793L11.0112 7.24081ZM12 5.79378C14.0841 3.60539 17.6146 3.36354 19.9943 5.37677C22.5361 7.52724 22.6815 11.3397 20.319 13.6715L20.3092 13.681L13.125 20.5465C12.506 21.1512 11.494 21.1512 10.875 20.5465L3.69073 13.681L3.68097 13.6715C1.31848 11.3397 1.46389 7.52725 4.00571 5.37678C6.38532 3.36354 9.91586 3.60539 12 5.79378Z" fill="currentColor"/>
</svg>
