<svg width="18" height="19" viewBox="0 0 18 19" fill="none" xmlns="http://www.w3.org/2000/svg">
<path fill-rule="evenodd" clip-rule="evenodd" d="M10.8749 5.225C10.1707 5.225 9.59986 5.79584 9.59986 6.5C9.59986 7.20416 10.1707 7.775 10.8749 7.775C11.579 7.775 12.1499 7.20416 12.1499 6.5C12.1499 5.79584 11.579 5.225 10.8749 5.225ZM2.24994 6.57498C2.24994 6.94777 2.55215 7.24998 2.92494 7.24998H8.35856C8.68126 8.3343 9.68572 9.125 10.8749 9.125C12.064 9.125 13.0685 8.3343 13.3912 7.24998H15.0749C15.4477 7.24998 15.7499 6.94777 15.7499 6.57498C15.7499 6.20219 15.4477 5.89998 15.0749 5.89998H13.431C13.1596 4.73938 12.1182 3.875 10.8749 3.875C9.63155 3.875 8.59013 4.73938 8.31875 5.89998H2.92494C2.55215 5.89998 2.24994 6.20219 2.24994 6.57498ZM9.64116 13.25H15.0749C15.4477 13.25 15.7499 12.9478 15.7499 12.575C15.7499 12.2022 15.4477 11.9 15.0749 11.9H9.68097C9.40959 10.7394 8.36817 9.875 7.12486 9.875C5.88155 9.875 4.84013 10.7394 4.56875 11.9H2.92494C2.55215 11.9 2.24994 12.2022 2.24994 12.575C2.24994 12.9478 2.55215 13.25 2.92494 13.25H4.60856C4.93126 14.3343 5.93572 15.125 7.12486 15.125C8.314 15.125 9.31846 14.3343 9.64116 13.25ZM5.84986 12.5C5.84986 11.7958 6.4207 11.225 7.12486 11.225C7.82902 11.225 8.39986 11.7958 8.39986 12.5C8.39986 13.2042 7.82902 13.775 7.12486 13.775C6.4207 13.775 5.84986 13.2042 5.84986 12.5Z" fill="#71747C"/>
</svg>
