<svg width="36" height="36" viewBox="0 0 36 36" fill="none" xmlns="http://www.w3.org/2000/svg">
<path d="M31.0943 16.2747L31.0043 9.08974C31.0043 8.68474 30.6593 8.35474 30.2543 8.35474H5.7443C5.3393 8.35474 4.9943 8.68474 4.9943 9.08974L4.9043 16.2747C4.9043 16.3797 4.9193 16.4847 4.9643 16.5747L6.5543 20.2347C6.6743 20.5047 6.9443 20.6847 7.2443 20.6847H28.7543C29.0543 20.6847 29.3243 20.5047 29.4443 20.2347L31.0343 16.5747C31.0793 16.4847 31.0943 16.3797 31.0943 16.2747ZM6.4793 9.85474H29.5043L29.5793 15.5397H6.4043L6.4793 9.85474ZM28.2593 19.1847H7.7393L6.7943 17.0247H29.2043L28.2593 19.1847Z" fill="currentColor"/>
<path d="M21.6891 10.9497H10.6641C10.2441 10.9497 9.91406 11.2797 9.91406 11.6997C9.91406 12.1197 10.2441 12.4497 10.6641 12.4497H21.6891C22.1091 12.4497 22.4391 12.1197 22.4391 11.6997C22.4391 11.2797 22.1091 10.9497 21.6891 10.9497Z" fill="currentColor"/>
<path d="M25.2147 11.0098C25.0347 10.9198 24.8247 10.9198 24.6447 11.0098C24.5547 11.0398 24.4647 11.0998 24.4047 11.1598C24.3297 11.2348 24.2847 11.3248 24.2397 11.4148C24.1947 11.5048 24.1797 11.5948 24.1797 11.6998C24.1797 11.7898 24.1797 11.8948 24.2397 11.9848C24.2847 12.0748 24.3297 12.1498 24.4047 12.2248C24.4797 12.2998 24.5547 12.3448 24.6447 12.3898C24.7347 12.4198 24.8397 12.4498 24.9297 12.4498C25.1247 12.4498 25.3197 12.3598 25.4547 12.2248C25.5297 12.1498 25.5897 12.0748 25.6197 11.9848C25.6647 11.8948 25.6797 11.7898 25.6797 11.6998C25.6797 11.4898 25.6047 11.2948 25.4547 11.1598C25.3947 11.0998 25.3047 11.0398 25.2147 11.0098Z" fill="currentColor"/>
<path d="M10.0639 22.2297C9.64386 22.2297 9.31386 22.5747 9.32886 22.9947C9.32886 23.0397 9.35886 26.8497 6.74886 27.6897C6.35886 27.8097 6.13386 28.2447 6.26886 28.6347C6.37386 28.9497 6.65886 29.1597 6.98886 29.1597C7.06386 29.1597 7.13886 29.1597 7.21386 29.1297C10.9039 27.9597 10.8439 23.1897 10.8439 22.9797C10.8439 22.5747 10.4989 22.2447 10.0939 22.2447L10.0639 22.2297Z" fill="currentColor"/>
<path d="M29.2793 27.6898C26.6543 26.8498 26.6993 23.0398 26.6993 22.9948C26.6993 22.5748 26.3693 22.2448 25.9643 22.2298C25.4993 22.1998 25.2143 22.5448 25.1993 22.9648C25.1993 23.1598 25.1393 27.9448 28.8293 29.1148C28.9043 29.1448 28.9793 29.1448 29.0543 29.1448C29.3693 29.1448 29.6693 28.9348 29.7743 28.6198C29.8943 28.2298 29.6843 27.8098 29.2943 27.6748L29.2793 27.6898Z" fill="currentColor"/>
<path d="M14.9692 22.2447C14.5642 22.2897 14.2642 22.6647 14.3092 23.0697C14.4592 24.4797 14.3842 27.0147 13.5592 27.8847C13.2742 28.1847 13.2892 28.6647 13.5892 28.9497C13.7392 29.0847 13.9192 29.1597 14.0992 29.1597C14.2942 29.1597 14.4892 29.0847 14.6392 28.9197C16.2142 27.2697 15.8392 23.3397 15.7942 22.9047C15.7492 22.4997 15.3742 22.1997 14.9692 22.2447Z" fill="currentColor"/>
<path d="M21.6896 23.0697C21.7346 22.6647 21.4346 22.2897 21.0296 22.2447C20.6246 22.1997 20.2496 22.4997 20.2046 22.9047C20.1596 23.3397 19.7846 27.2697 21.3596 28.9197C21.5096 29.0697 21.7046 29.1597 21.8996 29.1597C22.0796 29.1597 22.2746 29.0847 22.4096 28.9497C22.7096 28.6647 22.7246 28.1847 22.4396 27.8847C21.6146 27.0147 21.5396 24.4647 21.6896 23.0697Z" fill="currentColor"/>
</svg>
