<svg width="37" height="36" viewBox="0 0 37 36" fill="none" xmlns="http://www.w3.org/2000/svg">
<path d="M31.7754 8.38477C32.3965 8.38496 32.9003 8.88865 32.9004 9.50977V28.3799C32.9003 29.001 32.3965 29.5047 31.7754 29.5049C31.1541 29.5049 30.6505 29.0012 30.6504 28.3799V25.8301H6.29004V28.3789C6.29004 29.0002 5.78636 29.5039 5.16504 29.5039C4.54372 29.5039 4.04004 29.0002 4.04004 28.3789V18.0449C4.04004 17.4625 4.48262 16.9835 5.0498 16.9258C5.08769 16.9219 5.12613 16.9199 5.16504 16.9199H30.6504V9.50977C30.6505 8.88853 31.1541 8.38477 31.7754 8.38477ZM6.29004 23.5801H30.6504V19.1699H6.29004V23.5801Z" fill="currentColor"/>
</svg>
