<svg width="36" height="36" viewBox="0 0 36 36" fill="none" xmlns="http://www.w3.org/2000/svg">
<path d="M31.5 7.81445C31.08 7.81445 30.75 8.14445 30.75 8.56445V16.3495H4.89C4.89 16.3495 4.755 16.3645 4.695 16.3945C4.635 16.3795 4.56 16.3495 4.5 16.3495C4.08 16.3495 3.75 16.6795 3.75 17.0995V27.4345C3.75 27.8545 4.08 28.1845 4.5 28.1845C4.92 28.1845 5.25 27.8545 5.25 27.4345V24.5095H30.75V27.4345C30.75 27.8545 31.08 28.1845 31.5 28.1845C31.92 28.1845 32.25 27.8545 32.25 27.4345V8.56445C32.25 8.14445 31.92 7.81445 31.5 7.81445ZM5.25 23.0095V17.8495H30.75V23.0095H5.25Z" fill="currentColor"/>
</svg>
