<svg width="36" height="36" viewBox="0 0 36 36" fill="none" xmlns="http://www.w3.org/2000/svg">
<path d="M31.3125 7.81445C30.8925 7.81445 30.5625 8.14445 30.5625 8.56445V16.3495H29.4375V16.0645C29.4375 14.1595 27.8775 12.5995 25.9725 12.5995H23.9325C22.0275 12.5995 20.4675 14.1595 20.4675 16.0645V16.3495H19.1925V16.0645C19.1925 14.1595 17.6325 12.5995 15.7275 12.5995H7.41751C5.51251 12.5995 3.95251 14.1595 3.95251 16.0645V27.4345C3.95251 27.8545 4.28251 28.1845 4.70251 28.1845C5.12251 28.1845 5.45251 27.8545 5.45251 27.4345V24.5094H30.5475V27.4345C30.5475 27.8545 30.8775 28.1845 31.2975 28.1845C31.7175 28.1845 32.0475 27.8545 32.0475 27.4345V8.56445C32.0475 8.14445 31.7175 7.81445 31.2975 7.81445H31.3125ZM21.9675 16.0645C21.9675 14.9845 22.8525 14.0995 23.9325 14.0995H25.9725C27.0525 14.0995 27.9375 14.9845 27.9375 16.0645V16.3495H21.9675V16.0645ZM5.46751 16.0645C5.46751 14.9845 6.35251 14.0995 7.43251 14.0995H15.7425C16.8225 14.0995 17.7075 14.9845 17.7075 16.0645V16.3495H5.48252V16.0645H5.46751ZM5.46751 23.0095V17.8495H30.5625V23.0095H5.46751Z" fill="currentColor"/>
</svg>
