<svg width="36" height="36" viewBox="0 0 36 36" fill="none" xmlns="http://www.w3.org/2000/svg">
<path d="M31.2754 8.38477C31.8965 8.38496 32.4003 8.88865 32.4004 9.50977V28.3799C32.4003 29.001 31.8965 29.5047 31.2754 29.5049C30.6541 29.5049 30.1505 29.0012 30.1504 28.3799V25.8301H5.80469V28.3799C5.80449 29.001 5.30089 29.5049 4.67969 29.5049C4.05863 29.5047 3.55489 29.0009 3.55469 28.3799V17.0098C3.55504 14.8938 5.26582 13.1801 7.37988 13.1719V13.1699H15.6895C17.7806 13.1699 19.4804 14.8403 19.5283 16.9199H20.0566C20.1045 14.8405 21.8036 13.1703 23.8945 13.1699H25.9346C28.0258 13.1699 29.7255 14.8403 29.7734 16.9199H30.1504V9.50977C30.1505 8.88853 30.6541 8.38477 31.2754 8.38477ZM19.5303 19.1846H5.80469V23.5801H30.1504V19.1699H29.7754V19.1846H20.0547V19.1699H19.5303V19.1846ZM7.23145 15.4287C6.45923 15.5075 5.85421 16.1378 5.81055 16.9199H17.2754C17.2287 16.0833 16.5379 15.4199 15.6895 15.4199H7.39453L7.23145 15.4287ZM23.8945 15.4199C23.0464 15.4203 22.3572 16.0835 22.3105 16.9199H27.5205C27.4738 16.0833 26.783 15.4199 25.9346 15.4199H23.8945Z" fill="#71747C"/>
</svg>
