<svg width="36" height="36" viewBox="0 0 36 36" fill="none" xmlns="http://www.w3.org/2000/svg">
<path d="M24.3523 18.4125H23.5423C23.5423 18.4125 23.5723 18.3225 23.5723 18.2625V15.8025H25.5973C26.0173 15.8025 26.3473 15.4725 26.3473 15.0525V8.37748C26.3473 6.47247 24.7873 4.91248 22.8823 4.91248H13.1323C11.2273 4.91248 9.66726 6.47247 9.66726 8.37748V15.0525C9.66726 15.4725 9.99726 15.8025 10.4173 15.8025H12.4423V18.2625C12.4423 18.2625 12.4573 18.3675 12.4723 18.4125H11.6623C9.75726 18.4125 8.19727 19.9725 8.19727 21.8775V22.9125C8.19727 23.3325 8.52727 23.6625 8.94727 23.6625H9.66726V30.3375C9.66726 30.7575 9.99726 31.0875 10.4173 31.0875C10.8373 31.0875 11.1673 30.7575 11.1673 30.3375V23.6625H25.1173V30.3375C25.1173 30.7575 25.4473 31.0875 25.8673 31.0875C26.2873 31.0875 26.6173 30.7575 26.6173 30.3375V23.6625H27.0523C27.4723 23.6625 27.8023 23.3325 27.8023 22.9125V21.8775C27.8023 19.9725 26.2423 18.4125 24.3373 18.4125H24.3523ZM11.1673 8.37748C11.1673 7.29747 12.0523 6.41248 13.1323 6.41248H22.8823C23.9623 6.41248 24.8473 7.29747 24.8473 8.37748V14.3025H11.1673V8.37748ZM13.9423 18.2625V15.8025H22.0723V18.2625C22.0723 18.2625 22.0873 18.3675 22.1023 18.4125H13.9123C13.9123 18.4125 13.9423 18.3225 13.9423 18.2625ZM9.71227 21.8775C9.71227 20.7975 10.5973 19.9125 11.6773 19.9125H24.3673C25.4473 19.9125 26.3323 20.7975 26.3323 21.8775V22.1625H9.72726V21.8775H9.71227Z" fill="currentColor"/>
</svg>
