<svg width="36" height="36" viewBox="0 0 36 36" fill="none" xmlns="http://www.w3.org/2000/svg">
<path d="M28.8975 6.01562H7.10254C6.68254 6.01562 6.35254 6.34562 6.35254 6.76562V29.2356C6.35254 29.6556 6.68254 29.9856 7.10254 29.9856H28.8975C29.3175 29.9856 29.6475 29.6556 29.6475 29.2356V6.76562C29.6475 6.34562 29.3175 6.01562 28.8975 6.01562ZM28.1475 9.37562C28.1475 9.37562 28.1475 9.37562 28.1325 9.37562H18.7575V7.51562H28.1625V9.37562H28.1475ZM22.5825 23.3556H18.7425V12.0156C19.3275 11.9406 20.1825 11.7756 21.1875 11.3406L25.4475 14.2806L23.6775 16.3656L22.7775 15.8856C22.5225 15.7506 22.2225 15.7656 21.9975 15.9306C21.7725 16.0956 21.6375 16.3656 21.6825 16.6506L22.5825 23.3556ZM7.83754 7.51562H17.2425V28.4856H7.83754V7.51562ZM18.7425 28.4856V24.8556H23.4375C23.6475 24.8556 23.8575 24.7656 24.0075 24.6006C24.1575 24.4356 24.2175 24.2256 24.1875 24.0006L23.3625 17.9106L23.4975 17.9856C23.8125 18.1506 24.1875 18.0756 24.4275 17.8056L27.1275 14.6256C27.2625 14.4606 27.3225 14.2506 27.3075 14.0406C27.2775 13.8306 27.1575 13.6356 26.9925 13.5156L23.1525 10.8606H28.1325C28.1325 10.8606 28.1325 10.8606 28.1475 10.8606V28.4706H18.7425V28.4856Z" fill="currentColor"/>
<path d="M14.3173 16.7695C13.6423 16.7695 13.0873 17.3245 13.0873 17.9995C13.0873 18.6745 13.6423 19.2295 14.3173 19.2295C14.9923 19.2295 15.5473 18.6745 15.5473 17.9995C15.5473 17.3245 14.9923 16.7695 14.3173 16.7695Z" fill="currentColor"/>
</svg>
