<svg width="36" height="36" viewBox="0 0 36 36" fill="none" xmlns="http://www.w3.org/2000/svg">
<path d="M29.0195 6.08105C29.5868 6.13867 30.0293 6.61771 30.0293 7.2002V29.6709C30.0289 30.2918 29.5253 30.7959 28.9043 30.7959H18L17.999 30.7949V30.7959H7.09473C6.47381 30.7957 5.97017 30.2917 5.96973 29.6709V7.2002L5.97559 7.08398C6.03366 6.51728 6.51272 6.07533 7.09473 6.0752H28.9043L29.0195 6.08105ZM8.21973 28.5459H16.874V8.3252H8.21973V28.5459ZM27.127 13.7471L27.2871 13.8867C27.4315 14.0402 27.5259 14.2368 27.5537 14.4492C27.5814 14.6613 27.5402 14.8743 27.4404 15.0596L27.3223 15.2354L24.6211 18.416C24.3858 18.6927 24.0276 18.8135 23.6846 18.7568L24.4482 24.4043C24.4873 24.6937 24.4002 24.9871 24.208 25.207C24.0157 25.4269 23.7364 25.5527 23.4443 25.5527H19.125V28.5459H27.7793V11.6855H24.1523L27.127 13.7471ZM21.1611 12.0762C20.3657 12.4062 19.6673 12.5801 19.125 12.6689V23.5283H22.2861L21.4219 17.1309C21.371 16.754 21.5353 16.3799 21.8477 16.1631C22.1603 15.9464 22.5691 15.9226 22.9043 16.1025L23.6074 16.4795L25.0547 14.7754L21.1611 12.0762ZM14.3252 17.2051C15.0043 17.2052 15.5545 17.7555 15.5547 18.4346C15.5547 19.1138 15.0044 19.6649 14.3252 19.665C13.6459 19.665 13.0947 19.1139 13.0947 18.4346C13.0949 17.7554 13.646 17.2051 14.3252 17.2051ZM19.125 9.43555H27.7793V8.3252H19.125V9.43555Z" fill="currentColor"/>
</svg>
