<svg width="36" height="36" viewBox="0 0 36 36" fill="none" xmlns="http://www.w3.org/2000/svg">
<path d="M27.0977 18.5465H24.8177V15.7715C24.8177 15.3515 24.4877 15.0215 24.0677 15.0215H6.21765C5.79765 15.0215 5.46765 15.3515 5.46765 15.7715V23.0915C5.46765 27.6215 9.15765 31.3115 13.6877 31.3115H16.5826C20.3026 31.3115 23.4526 28.8215 24.4576 25.4315H27.0826C28.9876 25.4315 30.5327 23.8865 30.5327 21.9815C30.5327 20.0765 28.9876 18.5315 27.0826 18.5315L27.0977 18.5465ZM23.3177 16.5215V19.8065H7.11765C7.11765 19.8065 7.01265 19.8215 6.96765 19.8365V16.5215H23.3177ZM16.5976 29.8115H13.7026C9.99765 29.8115 6.98265 26.7965 6.98265 23.0915V21.2765C6.98265 21.2765 7.07265 21.3065 7.13265 21.3065H23.3326V23.0915C23.3326 26.7965 20.3177 29.8115 16.6127 29.8115H16.5976ZM27.0977 23.9315H25.1477V20.0465H27.0977C28.1777 20.0465 29.0477 20.9165 29.0477 21.9965C29.0477 23.0765 28.1777 23.9465 27.0977 23.9465V23.9315Z" fill="currentColor"/>
<path d="M12.1573 12.2775C12.1573 12.6975 12.4873 13.0275 12.9073 13.0275C13.3273 13.0275 13.6573 12.6975 13.6573 12.2775C13.6573 11.1525 13.1923 10.5675 12.8023 10.1025C12.4873 9.7125 12.2773 9.4575 12.2773 8.8575C12.2773 8.2575 12.4873 8.0025 12.8023 7.6125C13.1773 7.1475 13.6573 6.5475 13.6573 5.4375C13.6573 5.0175 13.3273 4.6875 12.9073 4.6875C12.4873 4.6875 12.1573 5.0175 12.1573 5.4375C12.1573 6.0225 11.9473 6.2925 11.6323 6.6825C11.2573 7.1475 10.7773 7.7475 10.7773 8.8575C10.7773 9.9675 11.2423 10.5675 11.6323 11.0325C11.9473 11.4225 12.1573 11.6775 12.1573 12.2775Z" fill="currentColor"/>
<path d="M17.8878 12.2775C17.8878 12.6975 18.2178 13.0275 18.6378 13.0275C19.0578 13.0275 19.3878 12.6975 19.3878 12.2775C19.3878 11.1525 18.9228 10.5675 18.5328 10.1025C18.2178 9.7125 18.0078 9.4575 18.0078 8.8575C18.0078 8.2575 18.2178 8.0025 18.5328 7.6125C18.9078 7.1475 19.3878 6.5475 19.3878 5.4375C19.3878 5.0175 19.0578 4.6875 18.6378 4.6875C18.2178 4.6875 17.8878 5.0175 17.8878 5.4375C17.8878 6.0225 17.6778 6.2925 17.3628 6.6825C16.9878 7.1475 16.5078 7.7475 16.5078 8.8575C16.5078 9.9675 16.9728 10.5675 17.3628 11.0325C17.6778 11.4225 17.8878 11.6775 17.8878 12.2775Z" fill="currentColor"/>
</svg>
