<svg width="36" height="36" viewBox="0 0 36 36" fill="none" xmlns="http://www.w3.org/2000/svg">
<path d="M25.9805 14.0693C26.6014 14.0696 27.1051 14.5735 27.1055 15.1943V17.5947H28.9951C31.0541 17.5949 32.7368 19.238 32.8115 21.2793C32.8161 21.3206 32.8203 21.3627 32.8203 21.4053V21.4199L32.8145 21.5352C32.8142 21.5381 32.812 21.5411 32.8115 21.5439C32.7377 23.586 31.0546 25.2293 28.9951 25.2295H26.665C25.528 28.6453 22.3069 31.1102 18.5098 31.1104H15.6006C10.8544 31.1104 7.00508 27.2608 7.00488 22.5146V15.1943C7.00523 14.5735 7.50905 14.0697 8.12988 14.0693H25.9805ZM9.25488 22.5146C9.25508 26.0182 12.097 28.8604 15.6006 28.8604H18.5098C22.0131 28.8601 24.8553 26.018 24.8555 22.5146V21.0898H9.25488V22.5146ZM27.4209 22.9795H28.9951C29.8562 22.9793 30.5663 22.2724 30.5703 21.4121C30.566 20.5521 29.856 19.8449 28.9951 19.8447H27.4209V22.9795ZM9.25488 18.8398H24.8555V16.3193H9.25488V18.8398ZM14.8057 3.71973C15.4266 3.72007 15.9305 4.22373 15.9307 4.84473C15.9307 5.4351 15.8093 5.92306 15.6064 6.34668C15.4152 6.74581 15.1636 7.05339 15.002 7.25586C14.8225 7.4807 14.7324 7.60082 14.668 7.73535C14.6149 7.84611 14.5654 8.00103 14.5654 8.26562C14.5655 8.52961 14.615 8.6833 14.668 8.79395C14.7324 8.92857 14.8224 9.04849 15.002 9.27344C15.1636 9.47596 15.4151 9.78506 15.6064 10.1846C15.8091 10.6079 15.9306 11.0948 15.9307 11.6846C15.9305 12.3056 15.4266 12.8092 14.8057 12.8096C14.1844 12.8096 13.6808 12.3058 13.6807 11.6846C13.6806 11.4205 13.6311 11.2659 13.5781 11.1553C13.5137 11.0207 13.4235 10.9015 13.2441 10.6768C13.0826 10.4743 12.8301 10.1661 12.6387 9.7666C12.4359 9.34319 12.3155 8.85559 12.3154 8.26562C12.3154 7.67532 12.4358 7.18726 12.6387 6.76367C12.8301 6.36401 13.0825 6.05503 13.2441 5.85254C13.4233 5.62807 13.5137 5.50849 13.5781 5.37402C13.631 5.26332 13.6807 5.10881 13.6807 4.84473C13.6808 4.22352 14.1844 3.71973 14.8057 3.71973ZM20.5352 3.71973C21.1563 3.71985 21.66 4.2236 21.6602 4.84473C21.6602 5.4351 21.5398 5.92306 21.3369 6.34668C21.1456 6.74607 20.8931 7.05337 20.7314 7.25586C20.552 7.4807 20.4619 7.60082 20.3975 7.73535C20.3445 7.84609 20.2949 8.00119 20.2949 8.26562C20.295 8.52945 20.3445 8.68332 20.3975 8.79395C20.4619 8.92857 20.5519 9.04849 20.7314 9.27344C20.8931 9.47595 21.1455 9.78489 21.3369 10.1846C21.5395 10.6078 21.6601 11.0949 21.6602 11.6846C21.66 12.3057 21.1563 12.8094 20.5352 12.8096C19.914 12.8095 19.4103 12.3057 19.4102 11.6846C19.4101 11.4205 19.3606 11.2659 19.3076 11.1553C19.2432 11.0208 19.1531 10.9015 18.9736 10.6768C18.812 10.4743 18.5606 10.1661 18.3691 9.7666C18.1663 9.34315 18.045 8.85568 18.0449 8.26562C18.0449 7.67532 18.1663 7.18726 18.3691 6.76367C18.5606 6.3641 18.812 6.055 18.9736 5.85254C19.1528 5.62802 19.2432 5.50846 19.3076 5.37402C19.3605 5.26332 19.4102 5.10881 19.4102 4.84473C19.4103 4.22356 19.914 3.71979 20.5352 3.71973Z" fill="currentColor"/>
</svg>
