<svg width="36" height="36" viewBox="0 0 36 36" fill="none" xmlns="http://www.w3.org/2000/svg">
<path d="M31.41 15.8634H29.295V14.0484C29.295 11.7234 27.405 9.81844 25.065 9.81844H18.555C18.675 9.66844 18.765 9.48844 18.765 9.29344C18.765 9.20344 18.735 9.09844 18.705 9.00844C18.66 8.91844 18.615 8.82844 18.54 8.76844C18.255 8.48344 17.76 8.48344 17.475 8.76844C17.415 8.82844 17.355 8.91844 17.325 9.00844C17.28 9.09844 17.265 9.20344 17.265 9.29344C17.265 9.47344 17.34 9.66844 17.46 9.81844H10.95C8.62498 9.81844 6.71998 11.7084 6.71998 14.0484V15.8634H4.60498C4.18498 15.8634 3.85498 16.1934 3.85498 16.6134C3.85498 17.0334 4.18498 17.3634 4.60498 17.3634H6.71998V23.2134C6.71998 25.5384 8.60998 27.4434 10.95 27.4434H25.05C27.375 27.4434 29.28 25.5534 29.28 23.2134V17.3634H31.395C31.815 17.3634 32.145 17.0334 32.145 16.6134C32.145 16.1934 31.815 15.8634 31.395 15.8634H31.41ZM8.24998 14.0484C8.24998 12.5484 9.47998 11.3184 10.98 11.3184H25.08C26.58 11.3184 27.81 12.5484 27.81 14.0484V14.2284H8.24998V14.0484ZM27.795 23.2134C27.795 24.7134 26.565 25.9434 25.065 25.9434H10.965C9.46498 25.9434 8.23498 24.7134 8.23498 23.2134V15.7284H27.795V23.2134Z" fill="currentColor"/>
</svg>
