<svg width="36" height="36" viewBox="0 0 36 36" fill="none" xmlns="http://www.w3.org/2000/svg">
<path d="M18 8.1748C18.6213 8.1748 19.1249 8.67854 19.125 9.2998C19.125 9.3454 19.1215 9.39039 19.1162 9.43457H25.0498C27.5909 9.43472 29.6552 11.4989 29.6553 14.04V15.4795H31.3955L31.5098 15.4854C32.0771 15.5428 32.5203 16.0221 32.5205 16.6045C32.5205 17.1871 32.0772 17.6661 31.5098 17.7236L31.3955 17.7295H29.6553V23.2041C29.6553 25.7453 27.591 27.8094 25.0498 27.8096H10.9502C8.40897 27.8095 6.34473 25.7454 6.34473 23.2041V17.7295H4.60547C3.98415 17.7295 3.48047 17.2258 3.48047 16.6045C3.4807 15.9834 3.98429 15.4795 4.60547 15.4795H6.34473V14.04C6.34482 11.4989 8.40903 9.43469 10.9502 9.43457H16.8838C16.8785 9.39039 16.875 9.3454 16.875 9.2998C16.8751 8.67854 17.3787 8.1748 18 8.1748ZM8.59473 16.5859C8.59483 16.5921 8.5957 16.5983 8.5957 16.6045C8.5957 16.6102 8.59481 16.6164 8.59473 16.6221V23.2041C8.59473 24.5027 9.65161 25.5595 10.9502 25.5596H25.0498C26.3484 25.5594 27.4053 24.5027 27.4053 23.2041V16.0957H8.59473V16.5859ZM10.9502 11.6846C9.71734 11.6847 8.70304 12.6371 8.60352 13.8447H27.3965C27.297 12.6371 26.2826 11.6847 25.0498 11.6846H10.9502Z" fill="#71747C"/>
</svg>
