<svg width="36" height="36" viewBox="0 0 36 36" fill="none" xmlns="http://www.w3.org/2000/svg">
<path d="M31.3049 9.81836H4.69489C4.27489 9.81836 3.94489 10.1484 3.94489 10.5684V14.1834C3.94489 14.6034 4.27489 14.9334 4.69489 14.9334H6.59988C6.59988 14.9334 6.56989 15.0384 6.56989 15.0984V25.4334C6.56989 25.8534 6.89989 26.1834 7.31989 26.1834C7.73989 26.1834 8.06989 25.8534 8.06989 25.4334V15.0984C8.06989 15.0984 8.05488 14.9934 8.03988 14.9334H20.8049C20.8049 14.9334 20.7749 15.0384 20.7749 15.0984V25.4334C20.7749 25.8534 21.1049 26.1834 21.5249 26.1834H28.8299C28.8299 26.1834 28.9349 26.1684 28.9799 26.1534C29.0249 26.1534 29.0699 26.1834 29.1299 26.1834C29.5499 26.1834 29.8799 25.8534 29.8799 25.4334V15.0984C29.8799 15.0984 29.8649 14.9934 29.8499 14.9334H31.3049C31.7249 14.9334 32.0549 14.6034 32.0549 14.1834V10.5684C32.0549 10.1484 31.7249 9.81836 31.3049 9.81836ZM28.3799 24.6834H22.2899V19.5834H28.3799V24.6834ZM28.3799 15.0984V18.0684H22.2899V15.0984C22.2899 15.0984 22.2749 14.9934 22.2599 14.9334H28.4249C28.4249 14.9334 28.3949 15.0384 28.3949 15.0984H28.3799ZM30.5549 13.4484H5.44489V11.3334H30.5549V13.4484Z" fill="currentColor"/>
<path d="M25.3339 23.3623C26.0089 23.3623 26.5639 22.8073 26.5639 22.1323C26.5639 21.4573 26.0089 20.9023 25.3339 20.9023C24.6589 20.9023 24.1039 21.4573 24.1039 22.1323C24.1039 22.8073 24.6589 23.3623 25.3339 23.3623Z" fill="currentColor"/>
</svg>
