<svg width="36" height="36" viewBox="0 0 36 36" fill="none" xmlns="http://www.w3.org/2000/svg">
<path d="M31.3896 12.3955C31.4631 12.403 31.5349 12.4176 31.6035 12.4385C31.6155 12.4421 31.6269 12.4472 31.6387 12.4512C31.6611 12.4588 31.6833 12.4666 31.7051 12.4756C31.7163 12.4802 31.7273 12.4852 31.7383 12.4902C31.7584 12.4993 31.7784 12.5083 31.7979 12.5186C31.8132 12.5266 31.8278 12.5361 31.8428 12.5449C31.8582 12.5539 31.8738 12.5625 31.8887 12.5723C31.9051 12.583 31.9207 12.5949 31.9365 12.6064C31.9484 12.6151 31.9602 12.6237 31.9717 12.6328C31.9829 12.6417 31.994 12.6508 32.0049 12.6602C32.0496 12.6983 32.0916 12.7395 32.1299 12.7842C32.1391 12.7949 32.1475 12.8063 32.1562 12.8174C32.168 12.8321 32.1795 12.847 32.1904 12.8623C32.1994 12.8749 32.2083 12.8874 32.2168 12.9004C32.2277 12.917 32.238 12.934 32.248 12.9512C32.2562 12.9653 32.2639 12.9797 32.2715 12.9941C32.2817 13.0136 32.2907 13.0336 32.2998 13.0537C32.3045 13.0641 32.3091 13.0744 32.3135 13.085C32.3685 13.2175 32.4003 13.3622 32.4004 13.5146V17.1445L32.3955 17.2529C32.3847 17.366 32.3553 17.4734 32.3135 17.5742C32.3096 17.5837 32.3059 17.5932 32.3018 17.6025C32.2915 17.6255 32.2803 17.6478 32.2686 17.6699C32.2639 17.6787 32.2597 17.6877 32.2549 17.6963C32.2415 17.72 32.227 17.743 32.2119 17.7656C32.2075 17.7723 32.2028 17.7786 32.1982 17.7852C32.1844 17.8051 32.1704 17.8248 32.1553 17.8438C32.1469 17.8543 32.1386 17.8648 32.1299 17.875C32.114 17.8936 32.0971 17.9112 32.0801 17.9287C32.0733 17.9356 32.0665 17.9425 32.0596 17.9492C32.041 17.9673 32.0217 17.9842 32.002 18.001C31.9944 18.0074 31.9872 18.0143 31.9795 18.0205C31.9633 18.0335 31.9465 18.0455 31.9297 18.0576C31.9166 18.067 31.9041 18.0771 31.8906 18.0859C31.8729 18.0975 31.8543 18.1076 31.8359 18.1182C31.8233 18.1255 31.8108 18.1328 31.7979 18.1396C31.7815 18.1483 31.7649 18.1562 31.748 18.1641C31.7334 18.1709 31.7191 18.1784 31.7041 18.1846C31.6827 18.1934 31.6607 18.2005 31.6387 18.208C31.6269 18.212 31.6155 18.2171 31.6035 18.2207C31.5856 18.2262 31.5671 18.2298 31.5488 18.2344C31.5306 18.2389 31.5127 18.2444 31.4941 18.248C31.4599 18.2548 31.4249 18.2601 31.3896 18.2637L31.2754 18.2695H30.2246V28.3789C30.2246 29.0002 29.7209 29.5039 29.0996 29.5039C29.0496 29.5039 29.0005 29.4995 28.9521 29.4932C28.9396 29.4949 28.9268 29.4977 28.9141 29.499L28.7998 29.5049H21.4951C20.8738 29.5049 20.3701 29.0012 20.3701 28.3799V18.2695H8.42969V28.3789C8.42969 29.0002 7.92601 29.5039 7.30469 29.5039C6.68351 29.5037 6.17969 29.0001 6.17969 28.3789V18.2695H4.67969C4.09728 18.2694 3.61806 17.827 3.56055 17.2598L3.55469 17.1445V13.5146C3.55489 12.8936 4.05863 12.3898 4.67969 12.3896H31.2754L31.3896 12.3955ZM22.6201 27.2549H27.9746V22.9053H22.6201V27.2549ZM25.3047 23.8496C25.984 23.8496 26.5352 24.4008 26.5352 25.0801C26.5351 25.7594 25.984 26.3096 25.3047 26.3096C24.6255 26.3094 24.0752 25.7593 24.0752 25.0801C24.0752 24.4009 24.6255 23.8498 25.3047 23.8496ZM22.6201 20.6553H27.9746V18.2695H22.6201V20.6553ZM5.80469 16.0195H30.1504V14.6396H5.80469V16.0195Z" fill="currentColor"/>
</svg>
