<svg width="36" height="36" viewBox="0 0 36 36" fill="none" xmlns="http://www.w3.org/2000/svg">
<path d="M17.9467 12.9531C14.5417 12.9531 11.7667 15.7281 11.7667 19.1331C11.7667 22.5381 14.5417 25.3131 17.9467 25.3131C21.3517 25.3131 24.1267 22.5381 24.1267 19.1331C24.1267 15.7281 21.3517 12.9531 17.9467 12.9531ZM17.9467 23.7981C15.3667 23.7981 13.2667 21.6981 13.2667 19.1181C13.2667 16.5381 15.3667 14.4381 17.9467 14.4381C20.5267 14.4381 22.6267 16.5381 22.6267 19.1181C22.6267 21.6981 20.5267 23.7981 17.9467 23.7981Z" fill="currentColor"/>
<path d="M30.4125 17.4377H29.1225V14.5727C30.8775 14.1677 32.2125 12.3526 32.2125 10.1926C32.2125 7.73265 30.4875 5.72266 28.3725 5.72266C26.2575 5.72266 24.5625 7.70265 24.5325 10.1326C22.6875 8.78265 20.4225 7.97266 17.9625 7.97266C15.5025 7.97266 13.3425 8.73765 11.5125 10.0427V7.14765C11.5125 6.72765 11.1825 6.39765 10.7625 6.39765C10.3425 6.39765 10.0125 6.72765 10.0125 7.14765V10.7927H8.40748V7.14765C8.40748 6.72765 8.07748 6.39765 7.65748 6.39765C7.23748 6.39765 6.90748 6.72765 6.90748 7.14765V10.7927H5.28748V7.14765C5.28748 6.72765 4.95748 6.39765 4.53748 6.39765C4.11748 6.39765 3.78748 6.72765 3.78748 7.14765V11.5427C3.78748 11.9627 4.11748 12.2927 4.53748 12.2927H6.90748V17.4377H5.61748C5.19748 17.4377 4.86748 17.7677 4.86748 18.1877V29.4077C4.86748 29.8277 5.19748 30.1577 5.61748 30.1577H9.71248C10.1325 30.1577 10.4625 29.8277 10.4625 29.4077V27.3527C12.4425 29.1677 15.0825 30.2776 17.9775 30.2776C20.8725 30.2776 23.6025 29.1227 25.5975 27.2477V29.4077C25.5975 29.8277 25.9275 30.1577 26.3475 30.1577H30.4425C30.8625 30.1577 31.1925 29.8277 31.1925 29.4077V18.1877C31.1925 17.7677 30.8625 17.4377 30.4425 17.4377H30.4125ZM28.3725 7.22266C29.6625 7.22266 30.7125 8.55765 30.7125 10.1926C30.7125 11.8277 29.6625 13.1627 28.3725 13.1627C27.7875 13.1627 27.2625 12.8776 26.8575 12.4426C26.7375 12.3226 26.6325 12.1877 26.5425 12.0227C26.2275 11.5127 26.0325 10.8826 26.0325 10.1926C26.0325 8.55765 27.0825 7.22266 28.3725 7.22266ZM8.39248 12.2927H9.15748C8.87248 12.6527 8.63247 13.0277 8.39248 13.4177V12.2927ZM8.94748 28.6577H6.35248V18.9377H8.94748V28.6577ZM17.9475 28.7776C14.9175 28.7776 12.2025 27.3677 10.4325 25.1777V18.1877C10.4325 17.7677 10.1025 17.4377 9.68248 17.4377H8.45248C9.26248 12.9227 13.2075 9.47266 17.9475 9.47266C20.9175 9.47266 23.5725 10.8227 25.3425 12.9377C25.4175 13.0427 25.5075 13.1477 25.5825 13.2527C26.5125 14.4527 27.1575 15.8776 27.4275 17.4226H26.3025C25.8825 17.4226 25.5525 17.7526 25.5525 18.1726V25.0276C23.7825 27.3076 21.0375 28.7776 17.9325 28.7776H17.9475ZM29.6625 28.6577H27.0675V18.9377H29.6625V28.6577Z" fill="currentColor"/>
</svg>
