<svg width="36" height="36" viewBox="0 0 36 36" fill="none" xmlns="http://www.w3.org/2000/svg">
<path d="M10.4941 5.17188C11.1197 5.17209 11.6387 5.69079 11.6387 6.31641V8.54004C13.4319 7.43756 15.4522 6.78907 17.7891 6.78906C20.1394 6.78906 22.3219 7.49126 24.1533 8.68164C24.1228 8.92582 24.0928 9.17025 24.0928 9.42969C24.0928 10.6354 24.4895 11.7342 25.1152 12.5889C23.3906 10.4522 20.7499 9.0791 17.7891 9.0791V9.06348C13.3174 9.06349 9.5632 12.2074 8.60156 16.4043H9.41016C10.0358 16.4043 10.5545 16.9232 10.5547 17.5488V24.5732C12.2945 26.644 14.8902 27.958 17.7891 27.958C20.7652 27.958 23.4365 26.5696 25.1611 24.4023V27.6377C23.1465 29.2708 20.5363 30.2471 17.7891 30.2471C15.0554 30.2471 12.5493 29.3095 10.5547 27.7363V28.9648C10.5547 29.5906 10.0359 30.1103 9.41016 30.1104H5.24316C4.61758 30.1101 4.09863 29.5905 4.09863 28.9648V17.5488C4.09879 16.9233 4.61768 16.4045 5.24316 16.4043H6.1748V11.9326H4.14453C3.51889 11.9325 3.00008 11.4137 3 10.7881V6.31641C3 5.6907 3.51884 5.17195 4.14453 5.17188C4.77028 5.17188 5.28906 5.69066 5.28906 6.31641V9.64355H6.1748V6.31641C6.1748 5.69066 6.69358 5.17188 7.31934 5.17188C7.94503 5.17195 8.46387 5.6907 8.46387 6.31641V9.64355H9.33398V6.31641C9.33398 5.69066 9.85276 5.17188 10.4785 5.17188H10.4941ZM28.3965 4.5C30.762 4.5001 32.6846 6.71308 32.6846 9.42969C32.6846 11.6732 31.3572 13.5655 29.541 14.1455V16.4043H30.4873C31.1129 16.4043 31.6316 16.9233 31.6318 17.5488V28.9648C31.6318 29.5906 31.113 30.1103 30.4873 30.1104H26.3203C25.6947 30.1102 25.1758 29.5905 25.1758 28.9648V17.5488C25.176 16.9234 25.6948 16.4045 26.3203 16.4043H26.9922C26.708 15.1481 26.1591 13.9952 25.4336 12.9873C25.4193 12.9714 25.4037 12.9566 25.3896 12.9404C25.3133 12.8183 25.2215 12.6957 25.1299 12.5889C24.5042 11.7342 24.1074 10.6353 24.1074 9.42969C24.1074 9.17023 24.1384 8.92583 24.1689 8.68164C24.4895 6.31611 26.2446 4.5 28.3965 4.5ZM27.4502 18.709V27.8359H29.3271V18.709H27.4502ZM6.37305 27.8203H8.25V18.6934H6.37305V27.8203ZM17.7891 11.8408C21.4672 11.8408 24.4589 14.8326 24.459 18.5107C24.459 22.1889 21.4673 25.1807 17.7891 25.1807C14.1109 25.1807 11.1191 22.1889 11.1191 18.5107C11.1192 14.8326 14.1109 11.8408 17.7891 11.8408ZM17.7891 14.1309C15.3777 14.1309 13.4092 16.0994 13.4092 18.5107C13.4092 20.9222 15.3776 22.8906 17.7891 22.8906C20.2005 22.8906 22.1689 20.9222 22.1689 18.5107C22.1689 16.0993 20.2005 14.1309 17.7891 14.1309ZM28.3965 6.77441C27.313 6.77441 26.3966 7.97958 26.3965 9.41406C26.3965 10.0551 26.5801 10.6359 26.8701 11.0938C26.9463 11.2004 27.0225 11.307 27.0986 11.3984C27.4497 11.7953 27.9081 12.0547 28.3965 12.0547C29.48 12.0546 30.3955 10.8486 30.3955 9.41406C30.3953 7.97965 29.4799 6.77454 28.3965 6.77441Z" fill="#71747C"/>
</svg>
