<svg width="36" height="36" viewBox="0 0 36 36" fill="none" xmlns="http://www.w3.org/2000/svg">
<path d="M28.8975 6.01514H7.10254C6.68254 6.01514 6.35254 6.34514 6.35254 6.76514V29.2351C6.35254 29.6551 6.68254 29.9851 7.10254 29.9851H28.8975C29.3175 29.9851 29.6475 29.6551 29.6475 29.2351V6.76514C29.6475 6.34514 29.3175 6.01514 28.8975 6.01514ZM7.85254 7.51514H17.2575V28.4851H7.85254V7.51514ZM28.1475 28.4851H18.7425V7.51514H28.1475V28.4851Z" fill="currentColor"/>
<path d="M14.3169 19.23C14.9962 19.23 15.5469 18.6793 15.5469 18C15.5469 17.3207 14.9962 16.77 14.3169 16.77C13.6376 16.77 13.0869 17.3207 13.0869 18C13.0869 18.6793 13.6376 19.23 14.3169 19.23Z" fill="currentColor"/>
<path d="M21.8316 19.23C22.5066 19.23 23.0616 18.675 23.0616 18C23.0616 17.325 22.5066 16.77 21.8316 16.77C21.1566 16.77 20.6016 17.325 20.6016 18C20.6016 18.675 21.1566 19.23 21.8316 19.23Z" fill="currentColor"/>
</svg>
