<svg width="36" height="36" viewBox="0 0 36 36" fill="none" xmlns="http://www.w3.org/2000/svg">
<path d="M11.0263 8.50514H24.9912C26.1012 8.50514 26.9862 7.60514 26.9862 6.51014C26.9862 5.41514 26.0862 4.51514 24.9912 4.51514H11.0263C9.91625 4.51514 9.03125 5.41514 9.03125 6.51014C9.03125 7.60514 9.93125 8.50514 11.0263 8.50514ZM11.0263 6.00014H24.9912C25.2612 6.00014 25.4862 6.22514 25.4862 6.49514C25.4862 6.76514 25.2612 6.99014 24.9912 6.99014H11.0263C10.7563 6.99014 10.5312 6.76514 10.5312 6.49514C10.5312 6.22514 10.7563 6.00014 11.0263 6.00014Z" fill="currentColor"/>
<path d="M27.8111 9.67505H8.20605C7.78605 9.67505 7.45605 10.005 7.45605 10.425V30.735C7.45605 31.155 7.78605 31.485 8.20605 31.485H27.8111C28.2311 31.485 28.5611 31.155 28.5611 30.735V10.425C28.5611 10.005 28.2311 9.67505 27.8111 9.67505ZM8.95605 11.175H17.2661V29.985H13.8311V26.3101H15.4661C15.8861 26.3101 16.2161 25.9801 16.2161 25.5601V19.68C16.2161 19.26 15.8861 18.93 15.4661 18.93H10.6961C10.2761 18.93 9.94605 19.26 9.94605 19.68V25.5601C9.94605 25.9801 10.2761 26.3101 10.6961 26.3101H12.3311V29.985H8.95605V11.175ZM11.4461 24.825V20.445H14.7161V24.825H11.4461ZM27.0611 30H18.7511V11.175H27.0611V29.985V30Z" fill="currentColor"/>
<path d="M13.0663 18.4203C14.2813 18.4203 15.2713 17.4303 15.2713 16.2153C15.2713 15.0003 14.2813 14.0103 13.0663 14.0103C11.8513 14.0103 10.8613 15.0003 10.8613 16.2153C10.8613 17.4303 11.8513 18.4203 13.0663 18.4203ZM13.0663 15.5103C13.4563 15.5103 13.7713 15.8253 13.7713 16.2153C13.7713 16.6053 13.4563 16.9203 13.0663 16.9203C12.6763 16.9203 12.3613 16.6053 12.3613 16.2153C12.3613 15.8253 12.6763 15.5103 13.0663 15.5103Z" fill="currentColor"/>
</svg>
