<svg width="36" height="36" viewBox="0 0 36 36" fill="none" xmlns="http://www.w3.org/2000/svg">
<path d="M30.3848 7.62598C30.9522 7.68348 31.3955 8.16255 31.3955 8.74512V27.2549C31.3954 27.8759 30.8915 28.3796 30.2705 28.3799H5.73047C5.10921 28.3799 4.60557 27.8761 4.60547 27.2549V8.74512L4.61133 8.62891C4.66942 8.06212 5.14834 7.62012 5.73047 7.62012H30.2705L30.3848 7.62598ZM6.85547 26.1299H29.1455V9.87012H6.85547V26.1299ZM21.9102 11.9912C22.4773 12.049 22.9199 12.528 22.9199 13.1104V23.5352C22.9198 24.1563 22.416 24.66 21.7949 24.6602H9.78027C9.15905 24.6602 8.65543 24.1563 8.65527 23.5352V13.1104L8.66113 12.9941C8.7191 12.4272 9.19805 11.9854 9.78027 11.9854H21.7949L21.9102 11.9912ZM26.6943 20.7061C27.2617 20.7636 27.7051 21.2426 27.7051 21.8252C27.705 22.4077 27.2617 22.8868 26.6943 22.9443L26.5801 22.9502H25.29C24.6688 22.9502 24.1652 22.4464 24.165 21.8252C24.165 21.2039 24.6687 20.7002 25.29 20.7002H26.5801L26.6943 20.7061ZM10.9053 22.4102H20.6699V14.2354H10.9053V22.4102ZM26.6943 17.7354C27.2616 17.7928 27.7049 18.2721 27.7051 18.8545C27.7051 19.4371 27.2617 19.9161 26.6943 19.9736L26.5801 19.9795H25.29C24.6687 19.9795 24.165 19.4758 24.165 18.8545C24.1653 18.2334 24.6689 17.7295 25.29 17.7295H26.5801L26.6943 17.7354ZM25.9346 12.8848C26.6636 12.8848 27.2549 13.4761 27.2549 14.2051C27.2548 14.934 26.6635 15.5254 25.9346 15.5254C25.2058 15.5252 24.6153 14.9339 24.6152 14.2051C24.6152 13.4762 25.2058 12.885 25.9346 12.8848Z" fill="currentColor"/>
</svg>
