<svg width="36" height="36" viewBox="0 0 36 36" fill="none" xmlns="http://www.w3.org/2000/svg">
<path d="M30.27 7.99414H5.72998C5.30998 7.99414 4.97998 8.32414 4.97998 8.74414V27.2541C4.97998 27.6741 5.30998 28.0041 5.72998 28.0041H30.27C30.69 28.0041 31.02 27.6741 31.02 27.2541V8.74414C31.02 8.32414 30.69 7.99414 30.27 7.99414ZM29.52 26.5191H6.47998V9.50914H29.52V26.5191Z" fill="currentColor"/>
<path d="M9.79492 24.2844H21.8099C22.2299 24.2844 22.5599 23.9544 22.5599 23.5344V13.1094C22.5599 12.6894 22.2299 12.3594 21.8099 12.3594H9.79492C9.37492 12.3594 9.04492 12.6894 9.04492 13.1094V23.5344C9.04492 23.9544 9.37492 24.2844 9.79492 24.2844ZM10.5449 13.8594H21.0599V22.7844H10.5449V13.8594Z" fill="currentColor"/>
<path d="M25.3054 19.6191H26.5954C27.0154 19.6191 27.3454 19.2891 27.3454 18.8691C27.3454 18.4491 27.0154 18.1191 26.5954 18.1191H25.3054C24.8854 18.1191 24.5554 18.4491 24.5554 18.8691C24.5554 19.2891 24.8854 19.6191 25.3054 19.6191Z" fill="currentColor"/>
<path d="M25.3054 22.5898H26.5954C27.0154 22.5898 27.3454 22.2598 27.3454 21.8398C27.3454 21.4198 27.0154 21.0898 26.5954 21.0898H25.3054C24.8854 21.0898 24.5554 21.4198 24.5554 21.8398C24.5554 22.2598 24.8854 22.5898 25.3054 22.5898Z" fill="currentColor"/>
<path d="M25.9501 15.5384C26.6851 15.5384 27.2701 14.9534 27.2701 14.2184C27.2701 13.4834 26.6851 12.8984 25.9501 12.8984C25.2151 12.8984 24.6301 13.4834 24.6301 14.2184C24.6301 14.9534 25.2151 15.5384 25.9501 15.5384Z" fill="currentColor"/>
</svg>
