<svg width="36" height="36" viewBox="0 0 36 36" fill="none" xmlns="http://www.w3.org/2000/svg">
<path d="M25.8975 5.2793H10.1025C9.68248 5.2793 9.35248 5.6093 9.35248 6.0293V29.9693C9.35248 30.3893 9.68248 30.7193 10.1025 30.7193H25.8975C26.3175 30.7193 26.6475 30.3893 26.6475 29.9693V6.0293C26.6475 5.6093 26.3175 5.2793 25.8975 5.2793ZM10.8525 6.7793H25.1475V14.8943H10.8525V6.7793ZM25.1475 29.2193H10.8525V16.3943H25.1475V29.2193Z" fill="currentColor"/>
<path d="M22.4773 9.08984C22.0573 9.08984 21.7273 9.41984 21.7273 9.83984V11.8198C21.7273 12.2398 22.0573 12.5698 22.4773 12.5698C22.8973 12.5698 23.2273 12.2398 23.2273 11.8198V9.83984C23.2273 9.41984 22.8973 9.08984 22.4773 9.08984Z" fill="currentColor"/>
<path d="M22.4773 22.3198C22.8973 22.3198 23.2273 21.9898 23.2273 21.5698V19.5898C23.2273 19.1698 22.8973 18.8398 22.4773 18.8398C22.0573 18.8398 21.7273 19.1698 21.7273 19.5898V21.5698C21.7273 21.9898 22.0573 22.3198 22.4773 22.3198Z" fill="currentColor"/>
</svg>
