<svg width="36" height="36" viewBox="0 0 36 36" fill="none" xmlns="http://www.w3.org/2000/svg">
<path d="M26.0049 4.88086C26.5722 4.93841 27.0156 5.41747 27.0156 6V29.9248C27.0156 30.5459 26.5116 31.0495 25.8906 31.0498H10.0947C9.47357 31.0497 8.96979 30.546 8.96973 29.9248V6L8.97559 5.88477C9.03351 5.3179 9.5126 4.87514 10.0947 4.875H25.8906L26.0049 4.88086ZM11.2197 28.7998H24.7656V16.7402H11.2197V28.7998ZM22.4854 18.4346C23.1064 18.4348 23.6101 18.9386 23.6104 19.5596V21.54C23.6101 22.161 23.1064 22.6649 22.4854 22.665C21.8642 22.665 21.3606 22.1611 21.3604 21.54V19.5596C21.3606 18.9384 21.8642 18.4346 22.4854 18.4346ZM11.2197 14.4746H24.7656V7.125H11.2197V14.4746ZM22.4854 8.68457C23.1064 8.68475 23.6101 9.18856 23.6104 9.80957V11.79C23.6101 12.411 23.1064 12.9149 22.4854 12.915C21.8642 12.915 21.3606 12.4111 21.3604 11.79V9.80957C21.3606 9.18845 21.8642 8.68457 22.4854 8.68457Z" fill="currentColor"/>
</svg>
