<svg width="36" height="36" viewBox="0 0 36 36" fill="none" xmlns="http://www.w3.org/2000/svg">
<path d="M15.2852 10.5605C16.3452 10.5606 17.3044 10.9894 17.999 11.6836C18.6936 10.9892 19.6538 10.5608 20.7139 10.5605H26.0547C28.1757 10.5606 29.8942 12.2785 29.8945 14.3994V19.8779C31.1653 20.5037 32.0397 21.8116 32.04 23.3242V24.375C32.0399 24.996 31.536 25.4997 30.915 25.5H29.8945V28.2461C29.894 28.8669 29.3905 29.3711 28.7695 29.3711C28.1488 29.3708 27.6451 28.8668 27.6445 28.2461V25.5H8.35547V28.2461C8.35492 28.8668 7.85123 29.3708 7.23047 29.3711C6.60949 29.3711 6.10602 28.8669 6.10547 28.2461V25.5H5.08496C4.46374 25.5 3.96013 24.9962 3.95996 24.375V23.3242C3.96028 21.8115 4.83453 20.5037 6.10547 19.8779V14.3994C6.10582 12.2786 7.82353 10.5609 9.94434 10.5605H15.2852ZM7.7998 21.7354C6.94672 21.7357 6.25418 22.4066 6.21484 23.25H29.7871C29.7478 22.4065 29.0535 21.7355 28.2002 21.7354H7.7998ZM9.94434 12.8105C9.06617 12.8109 8.35582 13.5212 8.35547 14.3994V19.4854H16.875V14.3994C16.8747 13.5211 16.1635 12.8106 15.2852 12.8105H9.94434ZM20.7139 12.8105C19.8359 12.8111 19.1253 13.5214 19.125 14.3994V19.4854H27.6445V14.3994C27.6442 13.5211 26.9331 12.8106 26.0547 12.8105H20.7139Z" fill="currentColor"/>
</svg>
