<svg width="36" height="36" viewBox="0 0 36 36" fill="none" xmlns="http://www.w3.org/2000/svg">
<path d="M29.5202 18.1579V12.4279C29.5202 10.5229 27.9602 8.96289 26.0552 8.96289H20.7152C19.6052 8.96289 18.6452 9.48789 18.0002 10.2979C17.3702 9.48789 16.3952 8.96289 15.2852 8.96289H9.9452C8.0402 8.96289 6.48021 10.5229 6.48021 12.4279V18.1579C5.22021 18.6829 4.33521 19.9129 4.33521 21.3529V22.4029C4.33521 22.8229 4.66521 23.1529 5.08521 23.1529H6.48021V26.2879C6.48021 26.7079 6.81021 27.0379 7.23021 27.0379C7.65021 27.0379 7.98021 26.7079 7.98021 26.2879V23.1529H28.0202V26.2879C28.0202 26.7079 28.3502 27.0379 28.7702 27.0379C29.1902 27.0379 29.5202 26.7079 29.5202 26.2879V23.1529H30.9152C31.3352 23.1529 31.6652 22.8229 31.6652 22.4029V21.3529C31.6652 19.9129 30.7802 18.6679 29.5202 18.1579ZM18.7502 12.4279C18.7502 11.3479 19.6352 10.4629 20.7152 10.4629H26.0552C27.1352 10.4629 28.0202 11.3479 28.0202 12.4279V17.8879H18.7502V12.4279ZM7.98021 12.4279C7.98021 11.3479 8.8652 10.4629 9.9452 10.4629H15.2852C16.3652 10.4629 17.2502 11.3479 17.2502 12.4279V17.8879H7.98021V12.4279ZM30.1652 21.6529H5.83521V21.3529C5.83521 20.2729 6.7202 19.3879 7.8002 19.3879H28.2002C29.2802 19.3879 30.1652 20.2729 30.1652 21.3529V21.6529Z" fill="currentColor"/>
</svg>
