<svg width="36" height="36" viewBox="0 0 36 36" fill="none" xmlns="http://www.w3.org/2000/svg">
<path d="M10.9052 7.84521C14.0402 7.8453 16.0803 12.7801 16.4853 15.8101L16.4912 15.8228C16.513 15.834 16.5335 15.8437 16.5449 15.855C16.9799 16.29 16.9798 17.0098 16.5449 17.4448L16.5068 17.4819C16.5043 17.4995 16.5023 17.5171 16.4999 17.5347C16.4854 17.7523 16.4565 17.9702 16.4003 18.1743C17.6529 20.3147 17.5784 23.0052 16.1464 25.0562L16.5605 25.4702C16.9952 25.9052 16.9952 26.6251 16.5605 27.0601C16.3356 27.2849 16.0504 27.39 15.7656 27.3901C15.4806 27.3901 15.1947 27.2851 14.9697 27.0601L14.5498 26.6401C13.4548 27.405 12.1651 27.7954 10.9052 27.7954C9.64535 27.7954 8.38554 27.4199 7.30561 26.6851L6.93061 27.0601C6.70561 27.2851 6.41971 27.3901 6.13471 27.3901C5.84985 27.39 5.56468 27.2849 5.33979 27.0601C4.90504 26.6251 4.9051 25.9052 5.33979 25.4702L5.70014 25.1099C4.23211 23.0575 4.14029 20.332 5.4101 18.1733C5.35343 17.9247 5.32402 17.6623 5.29487 17.3999C5.29334 17.38 5.28913 17.3607 5.28706 17.3413C4.93632 16.9217 4.9437 16.3107 5.31049 15.8999C5.27673 16.1588 5.25072 16.4009 5.24018 16.6196L5.2353 16.8296C5.23636 16.5487 5.2663 16.2386 5.31049 15.9146C5.68567 12.8995 7.7704 7.84521 10.9052 7.84521ZM25.4853 7.84521C28.5224 7.84538 30.5317 12.4769 31.0224 15.521L31.0654 15.8101L31.1406 15.855C31.5753 16.2899 31.5752 17.0099 31.1406 17.4448L31.0849 17.4995C31.0833 17.5112 31.0816 17.5229 31.08 17.5347C31.0655 17.752 31.0364 17.9695 30.9804 18.1733C32.2335 20.314 32.1579 23.0049 30.7255 25.0562L31.1406 25.4702C31.5752 25.9052 31.5753 26.6251 31.1406 27.0601C30.9156 27.2851 30.6297 27.3901 30.3447 27.3901C30.0598 27.39 29.7746 27.2849 29.5498 27.0601L29.1298 26.6401C28.0349 27.405 26.7451 27.7954 25.4853 27.7954C24.2253 27.7954 22.9647 27.4201 21.8847 26.6851L21.5097 27.0601C21.2847 27.2849 20.9997 27.3901 20.7148 27.3901C20.4299 27.3901 20.1448 27.285 19.9199 27.0601C19.4851 26.6251 19.4851 25.9052 19.9199 25.4702L20.2802 25.1099C18.8122 23.0575 18.7203 20.332 19.9902 18.1733C19.9335 17.9247 19.9041 17.6623 19.8749 17.3999C19.8734 17.3803 19.8692 17.3613 19.8671 17.3423C19.516 16.9227 19.5236 16.3109 19.8906 15.8999C19.8568 16.1587 19.8308 16.4009 19.8203 16.6196L19.8154 16.8306C19.8164 16.5494 19.8463 16.239 19.8906 15.9146C20.2657 12.8995 22.3505 7.84521 25.4853 7.84521ZM14.9853 20.7603C14.5503 21.2102 14.0397 21.5846 13.4697 21.8696C13.463 21.8732 13.4558 21.8758 13.4492 21.8794C13.3563 22.3807 13.1338 22.8667 12.7353 23.2651C12.2254 23.775 11.5654 24.0297 10.8906 24.0298C10.2306 24.0298 9.55487 23.7751 9.04487 23.2651C8.65682 22.8771 8.41713 22.3849 8.32612 21.8628C7.76186 21.5787 7.25653 21.2065 6.82514 20.7603C6.82391 20.759 6.82247 20.7576 6.82124 20.7563C6.67843 21.693 6.84464 22.6576 7.33491 23.4897L7.42475 23.3999C7.85975 22.9649 8.58057 22.9649 9.01557 23.3999C9.4503 23.8348 9.45015 24.5548 9.01557 24.9897L8.95502 25.0503C10.185 25.7103 11.685 25.71 12.915 25.02L12.8847 24.9897C12.4501 24.5548 12.45 23.8348 12.8847 23.3999C13.3197 22.9649 14.0405 22.9649 14.4755 23.3999L14.5048 23.4302C14.9803 22.5982 15.1311 21.6632 14.9882 20.7563C14.9871 20.7575 14.9864 20.7591 14.9853 20.7603ZM29.5654 20.7603C29.1304 21.2103 28.6198 21.5846 28.0498 21.8696C28.0431 21.8732 28.0359 21.8758 28.0292 21.8794C27.9364 22.3807 27.7138 22.8667 27.3154 23.2651C26.8054 23.7751 26.1447 24.0298 25.4697 24.0298C24.8098 24.0297 24.1348 23.775 23.6249 23.2651C23.2369 22.877 22.9972 22.3849 22.9062 21.8628C22.3419 21.5787 21.8366 21.2065 21.4052 20.7603C21.404 20.759 21.4025 20.7576 21.4013 20.7563C21.2585 21.693 21.4247 22.6576 21.915 23.4897L22.0048 23.3999C22.4397 22.965 23.1596 22.9652 23.5947 23.3999C24.0297 23.8349 24.0297 24.5547 23.5947 24.9897L23.5351 25.0503C24.7651 25.7102 26.2651 25.71 27.4951 25.02L27.4648 24.9897C27.0301 24.5547 27.03 23.8348 27.4648 23.3999C27.8998 22.9649 28.6206 22.9649 29.0556 23.3999L29.0849 23.4302C29.5603 22.5982 29.7112 21.6632 29.5683 20.7563C29.5672 20.7575 29.5665 20.7591 29.5654 20.7603ZM10.8906 16.6646C10.7556 16.7696 10.5904 17.0104 10.4404 17.2954C10.1704 17.8054 9.92971 18.4804 9.88471 19.0054C9.86979 19.0802 9.87006 19.1554 9.87006 19.2153C9.87023 19.7852 10.3357 20.2349 10.8906 20.2349C11.4603 20.2346 11.9099 19.7701 11.9101 19.2153C11.9101 19.1404 11.8955 19.0802 11.8955 19.0054C11.8355 18.4654 11.6098 17.8054 11.3398 17.2954C11.1898 17.0104 11.0256 16.7696 10.8906 16.6646ZM25.4697 16.6646C25.3347 16.7696 25.1704 17.0105 25.0205 17.2954C24.7505 17.8054 24.5098 18.4804 24.4648 19.0054C24.4499 19.0802 24.4501 19.1554 24.4501 19.2153C24.4503 19.785 24.915 20.2346 25.4697 20.2349C26.0396 20.2349 26.49 19.7702 26.4902 19.2153C26.4902 19.1404 26.4756 19.0802 26.4755 19.0054C26.4155 18.4654 26.1898 17.8054 25.9199 17.2954C25.7699 17.0104 25.6047 16.7696 25.4697 16.6646ZM10.8906 10.0796C9.60057 10.0796 7.88987 13.5001 7.54487 15.9751C7.52987 16.1251 7.49995 16.2753 7.49995 16.4253C7.48498 16.5602 7.4853 16.695 7.4853 16.8149C7.4853 17.3099 7.59045 17.7602 7.77045 18.1802C7.84545 17.8052 7.95053 17.4149 8.10053 17.0249C8.34053 16.38 8.69977 15.7646 9.13471 15.2847C9.61471 14.7447 10.1856 14.3696 10.8906 14.3696C11.5954 14.3698 12.1656 14.7598 12.6455 15.2847C13.0954 15.7947 13.4549 16.4401 13.7099 17.1001C13.8577 17.4695 13.9471 17.8243 14.0214 18.1646C14.1937 17.7524 14.2949 17.2982 14.2949 16.8296V16.5151C14.2799 16.3352 14.2653 16.1551 14.2353 15.9751C13.8903 13.5004 12.1805 10.0804 10.8906 10.0796ZM25.4697 10.0796C24.1797 10.0804 22.4699 13.5004 22.1249 15.9751C22.1099 16.1251 22.08 16.2753 22.08 16.4253C22.0651 16.5602 22.0654 16.695 22.0654 16.8149C22.0654 17.3099 22.1705 17.7602 22.3505 18.1802C22.4255 17.8052 22.5306 17.4149 22.6806 17.0249C22.9206 16.38 23.2799 15.7646 23.7148 15.2847C24.1947 14.7448 24.7649 14.3698 25.4697 14.3696C26.1747 14.3696 26.7455 14.7597 27.2255 15.2847C27.6755 15.7947 28.035 16.4401 28.29 17.1001C28.4377 17.4695 28.5272 17.8243 28.6015 18.1646C28.7738 17.7524 28.8749 17.2982 28.8749 16.8296V16.5151C28.8599 16.3352 28.8454 16.1551 28.8154 15.9751C28.4704 13.5001 26.7597 10.0796 25.4697 10.0796Z" fill="currentColor"/>
</svg>
