<svg width="36" height="36" viewBox="0 0 36 36" fill="none" xmlns="http://www.w3.org/2000/svg">
<path d="M28.845 23.3991C28.845 21.3591 27.555 19.5141 25.5 18.1941C25.5 18.0891 25.53 17.9691 25.53 17.8641C25.53 14.2641 22.53 5.36914 18 5.36914C13.47 5.36914 10.47 14.2641 10.47 17.8641C10.47 17.9841 10.5 18.0891 10.5 18.1941C8.44503 19.5141 7.15503 21.3591 7.15503 23.3991C7.15503 25.6791 8.76003 27.7042 11.235 29.0392L10.935 29.3391C10.635 29.6391 10.635 30.1041 10.935 30.4041C11.085 30.5541 11.28 30.6291 11.46 30.6291C11.64 30.6291 11.85 30.5541 11.985 30.4041L12.69 29.6991C14.265 30.2841 16.065 30.6291 17.985 30.6291C19.905 30.6291 21.675 30.2991 23.235 29.7141L23.925 30.4041C24.075 30.5541 24.27 30.6291 24.45 30.6291C24.63 30.6291 24.84 30.5541 24.975 30.4041C25.275 30.1041 25.275 29.6391 24.975 29.3391L24.69 29.0541C27.195 27.7341 28.815 25.6941 28.815 23.3991H28.845ZM18.015 6.86914C20.73 6.86914 23.295 12.6291 23.91 16.3791C23.97 16.7391 24 17.0691 24.03 17.3841C24.03 17.5491 24.06 17.7142 24.06 17.8492C24.06 18.0442 24.015 18.2241 24 18.4191C23.985 18.5991 23.97 18.7791 23.94 18.9591C23.67 20.3841 22.905 21.6291 21.825 22.5141C21.93 22.1691 21.99 21.8092 21.99 21.4342C21.99 21.1342 21.945 20.7741 21.885 20.3841C21.795 19.9041 21.66 19.3791 21.48 18.8391C21.39 18.5541 21.27 18.2841 21.15 17.9991C20.865 17.3691 20.535 16.7841 20.13 16.3041C19.56 15.6141 18.855 15.1491 18.06 15.1491C17.265 15.1491 16.56 15.6141 15.99 16.3041C15.585 16.7841 15.24 17.3691 14.97 17.9991C14.835 18.2841 14.73 18.5841 14.625 18.8841C14.445 19.4091 14.31 19.9191 14.235 20.3841C14.16 20.7741 14.13 21.1342 14.13 21.4342C14.13 21.8092 14.205 22.1691 14.295 22.5141C13.215 21.6291 12.45 20.3841 12.18 18.9591C12.15 18.8091 12.15 18.6441 12.12 18.4941C12.09 18.2841 12.045 18.0742 12.045 17.8492C12.045 17.6992 12.045 17.5341 12.075 17.3841C12.09 17.0841 12.12 16.7691 12.18 16.4241C12.765 12.6741 15.345 6.85415 18.075 6.85415L18.015 6.86914ZM15.555 21.4342C15.555 20.3542 16.095 18.7791 16.755 17.7291C17.16 17.0841 17.61 16.6491 18 16.6491C18.39 16.6491 18.84 17.0841 19.245 17.7291C19.905 18.7791 20.445 20.3542 20.445 21.4342C20.445 21.4492 20.445 21.4791 20.445 21.4941C20.445 22.0491 20.235 22.5741 19.905 22.9791C19.56 23.4141 19.065 23.7141 18.51 23.8341C18.345 23.8341 18.18 23.8791 18.015 23.8791C17.85 23.8791 17.685 23.8491 17.52 23.8341C16.965 23.7141 16.47 23.4141 16.11 22.9791C15.78 22.5741 15.585 22.0641 15.57 21.4941C15.57 21.4791 15.57 21.4492 15.57 21.4342H15.555ZM23.625 27.9441L22.2 26.5191C21.9 26.2192 21.435 26.2192 21.135 26.5191C20.835 26.8191 20.835 27.2841 21.135 27.5841L22.08 28.5291C20.85 28.9041 19.47 29.1141 18 29.1141C16.53 29.1141 15.12 28.8891 13.875 28.5141L14.805 27.5841C15.105 27.2841 15.105 26.8191 14.805 26.5191C14.505 26.2192 14.04 26.2192 13.74 26.5191L12.33 27.9291C10.095 26.8791 8.65503 25.2441 8.65503 23.3991C8.65503 22.0341 9.45003 20.7741 10.755 19.7991C11.34 21.9591 12.855 23.7291 14.865 24.6441C15.465 25.4391 16.635 25.9791 18 25.9791C19.365 25.9791 20.535 25.4391 21.135 24.6441C23.145 23.7141 24.66 21.9591 25.23 19.7991C26.535 20.7891 27.33 22.0341 27.33 23.3991C27.33 25.2591 25.86 26.9091 23.61 27.9591L23.625 27.9441Z" fill="currentColor"/>
</svg>
