<svg width="36" height="36" viewBox="0 0 36 36" fill="none" xmlns="http://www.w3.org/2000/svg">
<path d="M30.24 12.7828H23.73L25.71 7.50277C25.86 7.11277 25.665 6.67776 25.275 6.54276C24.885 6.39276 24.45 6.58776 24.315 6.97776L22.155 12.7078C22.155 12.7078 22.155 12.7528 22.155 12.7828H13.815C13.815 12.7828 13.815 12.7378 13.815 12.7078L11.655 6.97776C11.505 6.58776 11.07 6.39276 10.695 6.54276C10.305 6.69276 10.11 7.12777 10.26 7.50277L12.24 12.7828H5.72998C5.30998 12.7828 4.97998 13.1128 4.97998 13.5328V28.7578C4.97998 29.1778 5.30998 29.5078 5.72998 29.5078H30.27C30.69 29.5078 31.02 29.1778 31.02 28.7578V13.5328C31.02 13.1128 30.69 12.7828 30.27 12.7828H30.24ZM29.49 28.0078H6.44998V14.2828H29.49V28.0078Z" fill="currentColor"/>
<path d="M9.76636 25.5773H21.7814C22.2014 25.5773 22.5314 25.2473 22.5314 24.8273V17.4473C22.5314 17.0273 22.2014 16.6973 21.7814 16.6973H9.76636C9.34636 16.6973 9.01636 17.0273 9.01636 17.4473V24.8273C9.01636 25.2473 9.34636 25.5773 9.76636 25.5773ZM10.5164 18.1973H21.0314V24.0773H10.5164V18.1973Z" fill="currentColor"/>
<path d="M25.9205 19.8177C26.6555 19.8177 27.2405 19.2327 27.2405 18.4977C27.2405 17.7627 26.6555 17.1777 25.9205 17.1777C25.1855 17.1777 24.6005 17.7627 24.6005 18.4977C24.6005 19.2327 25.1855 19.8177 25.9205 19.8177Z" fill="currentColor"/>
</svg>
