<svg width="36" height="36" viewBox="0 0 36 36" fill="none" xmlns="http://www.w3.org/2000/svg">
<path d="M24.0146 6.74128C24.2693 6.23149 24.8734 5.98759 25.418 6.19343C25.9988 6.41329 26.2919 7.06261 26.0723 7.64363L24.2725 12.4044H30.2402L30.3545 12.4102C30.9217 12.4677 31.365 12.947 31.3652 13.5294V28.755C31.3649 29.3758 30.8611 29.8797 30.2402 29.88H5.7002C5.07907 29.88 4.57551 29.376 4.5752 28.755V13.5294L4.58105 13.4141C4.63899 12.8472 5.11795 12.4044 5.7002 12.4044H11.6816L9.88281 7.64363L9.84766 7.53327C9.70086 6.98258 9.99196 6.39984 10.5361 6.19343C11.0808 5.98756 11.6868 6.23131 11.9414 6.74128L11.9863 6.84675L14.0879 12.4044H21.8682L23.9678 6.84675L24.0146 6.74128ZM6.8252 27.63H29.1152V14.6544H6.8252V27.63ZM21.8955 16.3409C22.4625 16.3987 22.9043 16.8777 22.9043 17.46V24.8399C22.9042 25.4612 22.4006 25.9649 21.7793 25.9649H9.76465C9.14354 25.9647 8.63974 25.461 8.63965 24.8399V17.46L8.64551 17.3438C8.70356 16.7771 9.18265 16.3352 9.76465 16.335H21.7793L21.8955 16.3409ZM10.8896 23.7149H20.6543V18.585H10.8896V23.7149ZM25.9199 17.1749C26.6489 17.1749 27.2402 17.7662 27.2402 18.4952C27.24 19.224 26.6488 19.8145 25.9199 19.8145C25.1911 19.8145 24.5998 19.224 24.5996 18.4952C24.5996 17.7662 25.1909 17.1749 25.9199 17.1749Z" fill="currentColor"/>
</svg>
