<svg width="36" height="36" viewBox="0 0 36 36" fill="none" xmlns="http://www.w3.org/2000/svg">
<path d="M31.08 16.95H29.25C26.94 16.95 24.81 17.73 23.085 19.005L21.255 17.175L25.755 12.495C27.33 10.86 27.3 8.235 25.695 6.63C24.81 5.745 23.625 5.25 22.38 5.25H22.35C21.09 5.25 19.905 5.75999 19.02 6.65999L7.87498 18.03C7.73998 18.165 7.66497 18.36 7.66497 18.555V24.855C7.66497 24.855 7.67998 24.93 7.69498 24.96H7.34998C5.59498 24.96 4.16998 26.385 4.16998 28.14C4.16998 28.56 4.49998 28.89 4.91998 28.89H11.94C12.36 28.89 12.69 28.56 12.69 28.14C12.69 26.385 11.265 24.96 9.50998 24.96H9.16497C9.16497 24.96 9.19498 24.885 9.19498 24.855V18.855L20.13 7.695C20.73 7.08 21.54 6.75 22.395 6.735C23.265 6.675 24.06 7.06499 24.66 7.66499C25.695 8.69999 25.71 10.38 24.69 11.43L19.68 16.635C19.395 16.935 19.395 17.4 19.68 17.685L21.945 19.95C20.07 21.825 18.915 24.405 18.915 27.255C18.915 27.675 19.245 28.005 19.665 28.005H22.275C22.62 29.565 24.015 30.75 25.68 30.75C27.345 30.75 28.74 29.58 29.085 28.005H31.08C31.5 28.005 31.83 27.675 31.83 27.255V17.67C31.83 17.25 31.5 16.92 31.08 16.92V16.95ZM10.995 27.42H5.81998C6.08998 26.865 6.67498 26.49 7.33498 26.49H9.47998C10.14 26.49 10.71 26.865 10.995 27.42ZM25.68 29.28C24.84 29.28 24.135 28.77 23.835 28.035C23.745 27.81 23.685 27.555 23.685 27.285C23.685 27.015 23.745 26.76 23.835 26.535C24.135 25.815 24.84 25.29 25.68 25.29C26.52 25.29 27.225 25.8 27.525 26.535C27.615 26.76 27.675 27.015 27.675 27.285C27.675 27.555 27.615 27.81 27.525 28.035C27.225 28.755 26.52 29.28 25.68 29.28ZM30.33 26.535H29.085C28.74 24.975 27.345 23.79 25.68 23.79C24.015 23.79 22.62 24.96 22.275 26.535H20.445C20.64 24.285 21.675 22.275 23.235 20.82C23.415 20.655 23.61 20.535 23.79 20.385C25.29 19.2 27.18 18.45 29.235 18.45H30.315V26.535H30.33Z" fill="currentColor"/>
</svg>
