<svg width="28" height="26" viewBox="0 0 28 26" fill="none" xmlns="http://www.w3.org/2000/svg">
<path d="M27.0799 11.95H25.2499C22.9399 11.95 20.8099 12.73 19.0849 14.005L17.2549 12.175L21.7549 7.49499C23.3299 5.85999 23.2999 3.235 21.6949 1.63C20.8099 0.744997 19.6249 0.25 18.3799 0.25H18.3499C17.0899 0.25 15.9049 0.759992 15.0199 1.65999L3.87492 13.03C3.73992 13.165 3.66491 13.36 3.66491 13.555V19.855C3.66491 19.855 3.67992 19.93 3.69492 19.96H3.34991C1.59491 19.96 0.169922 21.385 0.169922 23.14C0.169922 23.56 0.499922 23.89 0.919922 23.89H7.93992C8.35992 23.89 8.68992 23.56 8.68992 23.14C8.68992 21.385 7.26492 19.96 5.50992 19.96H5.16491C5.16491 19.96 5.19492 19.885 5.19492 19.855V13.855L16.1299 2.695C16.7299 2.08 17.5399 1.75 18.3949 1.735C19.2649 1.675 20.0599 2.06499 20.6599 2.66499C21.6949 3.69999 21.7099 5.37999 20.6899 6.42999L15.6799 11.635C15.3949 11.935 15.3949 12.4 15.6799 12.685L17.9449 14.95C16.0699 16.825 14.9149 19.405 14.9149 22.255C14.9149 22.675 15.2449 23.005 15.6649 23.005H18.2749C18.6199 24.565 20.0149 25.75 21.6799 25.75C23.3449 25.75 24.7399 24.58 25.0849 23.005H27.0799C27.4999 23.005 27.8299 22.675 27.8299 22.255V12.67C27.8299 12.25 27.4999 11.92 27.0799 11.92V11.95ZM6.99492 22.42H1.81992C2.08992 21.865 2.67492 21.49 3.33492 21.49H5.47992C6.13992 21.49 6.70992 21.865 6.99492 22.42ZM21.6799 24.28C20.8399 24.28 20.1349 23.77 19.8349 23.035C19.7449 22.81 19.6849 22.555 19.6849 22.285C19.6849 22.015 19.7449 21.76 19.8349 21.535C20.1349 20.815 20.8399 20.29 21.6799 20.29C22.5199 20.29 23.2249 20.8 23.5249 21.535C23.6149 21.76 23.6749 22.015 23.6749 22.285C23.6749 22.555 23.6149 22.81 23.5249 23.035C23.2249 23.755 22.5199 24.28 21.6799 24.28ZM26.3299 21.535H25.0849C24.7399 19.975 23.3449 18.79 21.6799 18.79C20.0149 18.79 18.6199 19.96 18.2749 21.535H16.4449C16.6399 19.285 17.6749 17.275 19.2349 15.82C19.4149 15.655 19.6099 15.535 19.7899 15.385C21.2899 14.2 23.1799 13.45 25.2349 13.45H26.3149V21.535H26.3299Z" fill="currentColor"/>
</svg>
