<svg width="36" height="36" viewBox="0 0 36 36" fill="none" xmlns="http://www.w3.org/2000/svg">
<path d="M29.445 15.9899H28.725C26.205 15.9899 23.865 16.7999 21.945 18.1649L20.88 17.0999L26.25 11.7299C27.09 10.8899 27.525 9.77993 27.51 8.60993C27.495 7.43993 26.985 6.34493 26.115 5.54993C25.32 4.82993 24.3 4.42493 23.22 4.42493H22.29C21.105 4.42493 19.965 4.91993 19.155 5.78993L7.725 18.0749C7.53 18.2849 7.425 18.5549 7.425 18.8399V23.3999H5.475C4.11 23.3999 3 24.5099 3 25.8749V27.7349C3 28.3499 3.51 28.8599 4.125 28.8599H12.975C13.59 28.8599 14.1 28.3499 14.1 27.7349V25.8749C14.1 24.5099 12.99 23.3999 11.625 23.3999H9.675V19.2749L20.805 7.30493C21.195 6.89993 21.735 6.65993 22.29 6.65993H23.22C23.73 6.65993 24.21 6.85493 24.585 7.18493C25.005 7.55993 25.23 8.08493 25.245 8.63993C25.245 9.19493 25.05 9.71993 24.645 10.1249L18.48 16.2899C18.27 16.4999 18.15 16.7849 18.15 17.0849C18.15 17.3849 18.27 17.6699 18.48 17.8799L20.22 19.6199C18.21 21.7349 16.965 24.5849 16.965 27.7199C16.965 28.3349 17.475 28.8449 18.09 28.8449H22.455C22.935 30.4049 24.375 31.5449 26.085 31.5449C27.795 31.5449 29.235 30.4049 29.715 28.8449H30.765C31.38 28.8449 31.89 28.3349 31.89 27.7199V18.4349C31.89 17.0699 30.78 15.9599 29.415 15.9599L29.445 15.9899ZM11.835 25.8749V26.6099H5.25V25.8749C5.25 25.7549 5.355 25.6499 5.475 25.6499H11.64C11.76 25.6499 11.865 25.7549 11.865 25.8749H11.835ZM27.195 28.8749C26.91 29.1449 26.535 29.3249 26.1 29.3249C25.665 29.3249 25.29 29.1599 25.005 28.8749C24.705 28.5899 24.525 28.1999 24.525 27.7499C24.525 27.2999 24.705 26.9099 25.005 26.6249C25.29 26.3549 25.665 26.1749 26.1 26.1749C26.535 26.1749 26.91 26.3399 27.195 26.6249C27.495 26.9099 27.675 27.2999 27.675 27.7499C27.675 28.1999 27.495 28.5899 27.195 28.8749ZM29.655 26.3849C29.1 24.9449 27.72 23.9249 26.1 23.9249C24.39 23.9249 22.95 25.0649 22.47 26.6249H19.29C19.845 21.9149 23.865 18.2549 28.725 18.2549H29.445C29.565 18.2549 29.67 18.3449 29.67 18.4799V26.3999L29.655 26.3849Z" fill="#71747C"/>
</svg>
