<svg width="36" height="36" viewBox="0 0 36 36" fill="none" xmlns="http://www.w3.org/2000/svg">
<path d="M17.6853 23.9247C18.8366 23.9249 19.7701 24.8584 19.7703 26.0096C19.7703 27.161 18.8367 28.0944 17.6853 28.0946C16.5338 28.0946 15.6004 27.1611 15.6004 26.0096C15.6005 24.8582 16.5339 23.9247 17.6853 23.9247ZM15.7107 18.9266C17.4143 18.3875 19.666 18.3968 22.0105 20.1717L22.4812 20.5497L22.5642 20.6288C22.9583 21.0414 22.9833 21.6939 22.6043 22.1366C22.2256 22.5788 21.5784 22.6547 21.1101 22.3299L21.0174 22.2596L20.6707 21.9784C18.95 20.6677 17.462 20.7314 16.3885 21.0712C15.7853 21.2621 15.284 21.5529 14.9314 21.7997C14.7571 21.9217 14.623 22.0303 14.5369 22.1044C14.4944 22.1409 14.464 22.1697 14.4461 22.1864C14.4373 22.1945 14.4308 22.1998 14.4285 22.202L14.3465 22.2762C13.9053 22.6373 13.2533 22.613 12.8406 22.202C12.4007 21.7636 12.3995 21.0513 12.8377 20.6112L13.6346 21.4051C12.8729 20.6466 12.8388 20.6122 12.8377 20.6102H12.8396L12.8426 20.6073C12.844 20.6059 12.8448 20.6033 12.8465 20.6014C12.8506 20.5974 12.8571 20.5926 12.8631 20.5868C12.8751 20.5751 12.8906 20.559 12.9099 20.5409C12.9488 20.5046 13.0036 20.4573 13.0711 20.3993C13.2062 20.2831 13.3986 20.1275 13.6424 19.9569C14.1268 19.6178 14.833 19.2044 15.7107 18.9266ZM14.4929 13.6405C17.3149 12.8171 21.1622 12.8562 25.2986 16.0272C25.7917 16.4052 25.8846 17.1113 25.5066 17.6044C25.1286 18.0969 24.4233 18.19 23.9304 17.8124C20.4176 15.1194 17.3266 15.157 15.1238 15.7997C13.9986 16.128 13.0814 16.6239 12.4461 17.0379C12.1298 17.244 11.887 17.4281 11.7273 17.5565C11.6482 17.6202 11.589 17.6691 11.5525 17.701C11.5347 17.7167 11.5214 17.7289 11.5144 17.7352L11.5086 17.7411C11.0562 18.1645 10.3459 18.1426 9.92068 17.6913C9.49514 17.2393 9.51611 16.5275 9.96756 16.1014L10.8045 16.9881C10.7837 16.966 10.7621 16.9422 10.74 16.9188C10.0128 16.147 9.9714 16.1034 9.96951 16.1004L9.97928 16.0897C9.98475 16.0846 9.99319 16.0789 10.0017 16.0712C10.0188 16.0556 10.0409 16.0332 10.0701 16.0077C10.1284 15.9567 10.2112 15.8871 10.3162 15.8026C10.5267 15.6333 10.831 15.4041 11.2176 15.1522C11.9883 14.65 13.1063 14.0452 14.4929 13.6405ZM12.9637 8.20787C17.0384 7.08482 22.6458 7.11932 28.8347 11.5028C29.3416 11.8619 29.4621 12.5632 29.1033 13.0702C28.7441 13.577 28.0409 13.6968 27.534 13.3378C21.9486 9.38202 17.0501 9.41613 13.5613 10.3778C11.797 10.8641 10.3718 11.5941 9.39041 12.203C8.90114 12.5065 8.52566 12.7789 8.27615 12.9706C8.15159 13.0663 8.05801 13.1417 7.99881 13.1913C7.96929 13.216 7.94689 13.235 7.93436 13.246C7.92928 13.2503 7.92464 13.253 7.92264 13.2547L7.92459 13.2557C7.46339 13.672 6.75106 13.6348 6.33475 13.1737C5.91867 12.7125 5.95485 12.0011 6.4158 11.5848L7.40311 12.6786C7.33477 12.6028 7.25717 12.5167 7.16971 12.4198C6.47317 11.6481 6.42028 11.5897 6.41678 11.5848L6.42166 11.5799C6.42391 11.5779 6.42721 11.576 6.43045 11.5731C6.4374 11.5669 6.44641 11.5576 6.45779 11.5477C6.48088 11.5276 6.5136 11.4999 6.55447 11.4657C6.63633 11.3972 6.75417 11.3023 6.90506 11.1864C7.20671 10.9547 7.64355 10.6385 8.20389 10.2909C9.32291 9.59664 10.9462 8.764 12.9637 8.20787Z" fill="#71747C"/>
</svg>
