<svg width="36" height="36" viewBox="0 0 36 36" fill="none" xmlns="http://www.w3.org/2000/svg">
<path d="M28.9453 12.2279C16.8253 3.64794 7.09026 12.1979 6.98526 12.2879C6.67026 12.5579 6.65526 13.0379 6.92526 13.3529C7.19526 13.6679 7.67527 13.6829 7.99027 13.4129C8.35027 13.0829 16.9453 5.58292 28.0753 13.4729C28.2103 13.5629 28.3603 13.6079 28.5103 13.6079C28.7503 13.6079 28.9753 13.5029 29.1253 13.2929C29.3653 12.9479 29.2903 12.4829 28.9453 12.2429V12.2279Z" fill="currentColor"/>
<path d="M10.5402 16.803C10.2402 17.088 10.2252 17.5531 10.5102 17.8681C10.7952 18.1681 11.2602 18.1831 11.5752 17.8981C11.8152 17.6731 17.4552 12.5581 24.4902 17.9431C24.6252 18.0481 24.7902 18.093 24.9402 18.093C25.1652 18.093 25.3902 17.988 25.5402 17.793C25.7952 17.463 25.7352 16.9981 25.4052 16.7431C17.3352 10.563 10.6302 16.743 10.5552 16.788L10.5402 16.803Z" fill="currentColor"/>
<path d="M13.4054 21.2871C13.1204 21.5871 13.1204 22.0521 13.4054 22.3521C13.7054 22.6521 14.1704 22.6371 14.4704 22.3521C14.6054 22.2171 17.7854 19.1421 21.5654 22.3971C21.7004 22.5171 21.8804 22.5771 22.0604 22.5771C22.2704 22.5771 22.4804 22.4871 22.6304 22.3221C22.9004 22.0071 22.8704 21.5421 22.5554 21.2571C17.7104 17.1021 13.4654 21.2571 13.4204 21.3021L13.4054 21.2871Z" fill="currentColor"/>
<path d="M17.9954 24.168C17.0504 24.168 16.2854 24.933 16.2854 25.878C16.2854 26.823 17.0504 27.588 17.9954 27.588C18.9404 27.588 19.7054 26.823 19.7054 25.878C19.7054 24.933 18.9404 24.168 17.9954 24.168Z" fill="currentColor"/>
</svg>
