<svg width="24" height="24" viewBox="0 0 24 24" fill="none" xmlns="http://www.w3.org/2000/svg">
<path d="M9.09863 20.0601C6.14474 20.0598 3.74923 17.6643 3.74902 14.7104V14.3403C3.74902 13.9261 4.08483 13.5904 4.49902 13.5903L19.7891 13.5903C20.2033 13.5903 20.5391 13.9261 20.5391 14.3403V14.7104C20.5389 17.6578 18.1539 20.0483 15.209 20.0591C15.2057 20.0591 15.2025 20.0601 15.1992 20.0601H9.09863ZM15.1895 18.5601C17.1867 18.5599 18.8295 17.0376 19.0205 15.0903L5.26758 15.0903C5.45862 17.0376 7.10136 18.5598 9.09863 18.5601H15.1895Z" fill="#9498A2"/>
<path d="M4.5 13.2749C4.5 13.4454 4.63952 13.5901 4.81934 13.5903L19.4795 13.5903C19.6595 13.5903 19.7998 13.4456 19.7998 13.2749C19.7996 13.1044 19.6594 12.9604 19.4795 12.9604L4.81934 12.9604C4.63967 12.9607 4.50024 13.1046 4.5 13.2749ZM3 13.2749C3.00023 12.2696 3.81785 11.4607 4.81934 11.4604L19.4795 11.4604C20.4812 11.4604 21.2996 12.2694 21.2998 13.2749C21.2998 14.2806 20.4813 15.0903 19.4795 15.0903L4.81934 15.0903C3.81771 15.0901 3 14.2805 3 13.2749Z" fill="#9498A2"/>
<path d="M7.72949 20.5298V19.3101C7.72949 18.8958 8.06528 18.5601 8.47949 18.5601C8.89371 18.5601 9.22949 18.8958 9.22949 19.3101V20.5298C9.22949 20.944 8.89371 21.2798 8.47949 21.2798C8.06528 21.2798 7.72949 20.944 7.72949 20.5298Z" fill="#9498A2"/>
<path d="M15.0693 20.5298V19.3101C15.0693 18.8958 15.4051 18.5601 15.8193 18.5601C16.2335 18.5601 16.5693 18.8958 16.5693 19.3101V20.5298C16.5693 20.944 16.2335 21.2798 15.8193 21.2798C15.4051 21.2798 15.0693 20.944 15.0693 20.5298Z" fill="#9498A2"/>
<path d="M14.7189 7.87973C15.1816 7.4171 15.1829 6.66364 14.7224 6.19966C14.2583 5.73978 13.5054 5.74137 13.043 6.2038L12.9304 6.31636L14.6064 7.99229L14.7189 7.87973ZM15.1367 9.58328C14.8438 9.87614 14.3689 9.87609 14.076 9.58328L11.3395 6.84669C11.0466 6.5538 11.0466 6.07892 11.3395 5.78603L11.9823 5.14314C13.0104 4.11506 14.6658 4.09625 15.7195 5.08238C15.7401 5.09901 15.7604 5.11641 15.7796 5.13555L15.7872 5.14314L15.8383 5.19977C15.8389 5.20055 15.839 5.20175 15.8397 5.20253C16.8264 6.25626 16.8079 7.9121 15.7796 8.94039L15.1367 9.58328Z" fill="#9498A2"/>
<path d="M18.0293 3L18.1064 3.00391C18.4845 3.04249 18.7793 3.36181 18.7793 3.75V12.2002H17.2793V4.5H15.3594V5.15039H13.8594V3.75L13.8633 3.67285C13.9019 3.29488 14.2212 3 14.6094 3H18.0293Z" fill="#9498A2"/>
</svg>
