<svg width="19" height="19" viewBox="0 0 19 19" fill="none" xmlns="http://www.w3.org/2000/svg">
<path d="M10.671 0.345711C11.7585 -0.425562 13.3303 0.15305 13.5782 1.52735L13.7921 2.6504L13.7931 2.65919L13.8282 2.78614C13.9341 3.07296 14.208 3.26759 14.5157 3.26759H15.673L15.8038 3.27442C17.1351 3.38433 17.9625 4.85686 17.2677 6.06837L16.7091 7.06153L16.7052 7.07032C16.5312 7.3728 16.5987 7.77305 16.8741 8.01075H16.8732L17.7335 8.74805H17.7345C18.825 9.67455 18.5044 11.4113 17.1876 11.918L17.1837 11.9199L16.1163 12.3242L16.1134 12.3252C15.8121 12.4384 15.6242 12.7131 15.6241 13.0195L15.6368 13.1533L15.6378 13.1582L15.8282 14.2813L15.8302 14.2891L15.8458 14.418C15.9652 15.7001 14.754 16.7437 13.4952 16.3926L13.3692 16.3516L12.2901 15.9697L12.2862 15.9688C11.9543 15.8496 11.5777 15.9807 11.3868 16.3018L11.3858 16.3008L10.8028 17.29L10.8019 17.2881C10.0828 18.5145 8.30789 18.5147 7.58898 17.2881V17.29L7.00401 16.3008V16.2998C6.81291 15.9799 6.43593 15.85 6.1046 15.9688L6.10069 15.9697L5.02257 16.3516C3.69808 16.8202 2.31554 15.7025 2.56261 14.2793L2.75304 13.1631C2.81158 12.8048 2.60582 12.4502 2.27452 12.3232V12.3242L1.20714 11.9199V11.918C-0.132535 11.4172 -0.41412 9.67934 0.650499 8.75489L0.654405 8.75098L1.51964 8.00977L1.52257 8.00489L2.05675 8.63575L1.52355 8.00587C1.79561 7.77548 1.86513 7.38088 1.68663 7.07032L1.68077 7.06153L1.11925 6.06251V6.06153C0.42515 4.83057 1.30565 3.29979 2.71886 3.2793H3.86437C4.22652 3.27364 4.53327 3.01225 4.59679 2.65919L4.59874 2.6504L4.81163 1.52735L4.81261 1.5254L4.84191 1.39845C5.1792 0.112027 6.76166 -0.458356 7.83019 0.428718L7.82921 0.429695L8.71397 1.15723L8.71593 1.15821L8.82237 1.23145C9.04724 1.35764 9.33175 1.36025 9.56749 1.2295L9.68175 1.15333L10.5646 0.426765L10.5675 0.424812L10.671 0.345711ZM11.921 1.82911C11.8999 1.70802 11.7568 1.63312 11.6358 1.72755L10.7482 2.45802L10.7423 2.46192C9.84096 3.19272 8.54209 3.19892 7.64366 2.45704V2.45802L6.75597 1.72755L6.75401 1.72559C6.70675 1.68636 6.65006 1.67645 6.588 1.69923C6.52501 1.72258 6.48049 1.77114 6.46691 1.8418L6.25401 2.96387L6.25304 2.9629C6.04384 4.11054 5.05106 4.9464 3.88878 4.96387H2.74327L2.69444 4.97169C2.60337 4.99896 2.54753 5.09684 2.56944 5.18848L2.58702 5.23438L2.58898 5.23731L3.1505 6.23634H3.14855C3.72791 7.24985 3.50567 8.53574 2.61241 9.292L1.75401 10.0264L1.75499 10.0274C1.64729 10.1212 1.67345 10.259 1.75792 10.3203L1.79796 10.3408L1.8048 10.3438L2.87218 10.7481L2.87316 10.749L3.07042 10.834C4.03325 11.3022 4.59242 12.3619 4.41612 13.4365L4.41515 13.4414L4.22374 14.5645V14.5674C4.20187 14.694 4.32455 14.8104 4.46007 14.7627L5.53819 14.3809C6.5739 14.0106 7.70828 14.3861 8.33605 15.2607L8.45421 15.4424L8.45519 15.4434L9.03917 16.4326L9.04112 16.4365L9.0714 16.4746C9.15085 16.5509 9.29016 16.5384 9.34972 16.4365L9.35265 16.4326L9.93663 15.4434L9.93761 15.4424L10.0558 15.2607C10.6844 14.3853 11.82 14.0103 12.8566 14.3828H12.8556L13.9308 14.7627L13.9747 14.7725C14.0184 14.7764 14.0613 14.7637 14.1007 14.7305C14.154 14.6854 14.1768 14.6243 14.1661 14.5576H14.1651L13.9767 13.4453V13.4463C13.7706 12.2776 14.4284 11.1588 15.5196 10.7481L16.5821 10.3447L16.631 10.3203C16.7286 10.2493 16.7304 10.1063 16.6437 10.0322L16.6407 10.0303L15.7745 9.28907L15.7726 9.28614C14.903 8.5354 14.6562 7.25124 15.2452 6.22852L15.8019 5.23731L15.8067 5.2295L15.8253 5.1836C15.849 5.08969 15.7938 4.98922 15.6993 4.96095L15.6485 4.95313H14.5157C13.3395 4.95313 12.3409 4.10512 12.1349 2.95509V2.95411L11.923 1.84083L11.921 1.82911ZM12.088 6.33497C12.4171 6.00617 12.9504 6.00601 13.2794 6.33497C13.6081 6.66395 13.6081 7.19742 13.2794 7.52637L9.39269 11.4131C9.08428 11.7213 8.59561 11.7404 8.26476 11.4707L8.2003 11.4131L5.69542 8.90821C5.36662 8.57923 5.36664 8.04482 5.69542 7.71583C6.02435 7.38721 6.55786 7.38728 6.88683 7.71583L8.79601 9.62501L12.088 6.33497Z" fill="#1F9F8A"/>
</svg>
