<svg width="18" height="18" viewBox="0 0 18 18" fill="none" xmlns="http://www.w3.org/2000/svg">
<path fill-rule="evenodd" clip-rule="evenodd" d="M11.3469 3.22981C11.0595 2.99231 10.6341 3.03271 10.3966 3.32006C10.1591 3.60741 10.1995 4.03288 10.4868 4.27038L13.124 6.45009H3.00023C2.62744 6.45009 2.32523 6.7523 2.32523 7.12509C2.32523 7.49788 2.62744 7.80009 3.00023 7.80009H15.0002C15.2849 7.80009 15.5389 7.62148 15.6353 7.3536C15.7317 7.08572 15.6496 6.78618 15.4302 6.60481L11.3469 3.22981ZM6.65352 14.7704C6.94086 15.0079 7.36633 14.9675 7.60383 14.6801C7.84133 14.3928 7.80092 13.9673 7.51358 13.7298L4.8764 11.5501H15.0002C15.373 11.5501 15.6752 11.2479 15.6752 10.8751C15.6752 10.5023 15.373 10.2001 15.0002 10.2001H3.00023C2.71554 10.2001 2.46146 10.3787 2.36509 10.6466C2.26871 10.9145 2.35076 11.214 2.5702 11.3954L6.65352 14.7704Z" fill="currentColor"/>
</svg>
