<svg width="24" height="24" viewBox="0 0 24 24" fill="none" xmlns="http://www.w3.org/2000/svg">
<path d="M14.6001 12.7412C17.6681 12.7414 20.1692 15.2302 20.1694 18.3105V20.251L20.1655 20.3379C20.122 20.7665 19.7599 21.1006 19.3198 21.1006H4.69971L4.61279 21.0967C4.18432 21.053 3.8501 20.691 3.8501 20.251V18.3105C3.85033 15.2427 6.33923 12.7415 9.41943 12.7412H14.6001ZM11.9995 3.12109C14.225 3.12109 16.0295 4.92494 16.0298 7.15039C16.0298 9.3761 14.2252 11.1807 11.9995 11.1807C9.77403 11.1804 7.97021 9.37593 7.97021 7.15039C7.97052 4.92511 9.77422 3.12136 11.9995 3.12109Z" fill="#9498A2"/>
</svg>
