<svg width="18" height="18" viewBox="0 0 18 18" fill="none" xmlns="http://www.w3.org/2000/svg">
<path fill-rule="evenodd" clip-rule="evenodd" d="M9.00017 2.92495C5.64505 2.92495 2.92519 5.64482 2.92519 8.99995C2.92519 12.3551 5.64505 15.075 9.00017 15.075C12.3553 15.075 15.0751 12.3551 15.0751 8.99995C15.0751 5.64482 12.3553 2.92495 9.00017 2.92495ZM1.5752 8.99995C1.5752 4.89924 4.89947 1.57495 9.00017 1.57495C13.1009 1.57495 16.4251 4.89924 16.4251 8.99995C16.4251 13.1007 13.1009 16.425 9.00017 16.425C4.89947 16.425 1.5752 13.1007 1.5752 8.99995Z" fill="currentColor"/>
<path d="M9.75016 12.375C9.75016 12.7892 9.41438 13.125 9.00017 13.125C8.58595 13.125 8.25017 12.7892 8.25017 12.375C8.25017 11.9607 8.58595 11.625 9.00017 11.625C9.41438 11.625 9.75016 11.9607 9.75016 12.375Z" fill="currentColor"/>
<path fill-rule="evenodd" clip-rule="evenodd" d="M8.89866 4.95185C9.32797 4.93581 9.75665 5.0217 10.1439 5.20398C10.5313 5.38634 10.8677 5.66084 11.1155 6.00645C11.3636 6.35257 11.5134 6.75706 11.5442 7.18081C11.5751 7.6047 11.4853 8.02622 11.2876 8.40308C11.0902 8.77936 10.7937 9.0953 10.4332 9.32509L10.4277 9.32863L10.422 9.33205C10.1829 9.47799 9.99045 9.67002 9.85578 9.88857C9.72411 10.1023 9.65029 10.3369 9.6361 10.5744V10.7812H8.28611V10.5396L8.28692 10.523C8.31029 10.0478 8.45543 9.58777 8.70645 9.18038C8.95592 8.77552 9.30186 8.43554 9.71218 8.18374C9.8809 8.07513 10.0097 7.93306 10.0921 7.77592C10.175 7.61791 10.21 7.44708 10.1978 7.27876C10.1855 7.1103 10.1258 6.94289 10.0183 6.79307C9.91055 6.64273 9.75739 6.51412 9.56897 6.42543C9.38037 6.33666 9.1665 6.29278 8.94905 6.30091C8.73161 6.30903 8.52344 6.36864 8.34506 6.47021C8.1669 6.57164 8.02748 6.70958 7.93467 6.8653C7.84219 7.02047 7.79757 7.19021 7.80029 7.35878L6.45047 7.38059C6.44361 6.95569 6.55708 6.5398 6.77502 6.17414C6.99262 5.80904 7.30535 5.5087 7.67709 5.29704C8.04861 5.08551 8.46935 4.96788 8.89866 4.95185Z" fill="currentColor"/>
</svg>
