<svg width="18" height="18" viewBox="0 0 18 18" fill="none" xmlns="http://www.w3.org/2000/svg">
<path fill-rule="evenodd" clip-rule="evenodd" d="M8.99992 2.92422C5.64481 2.92422 2.92495 5.64409 2.92495 8.99922C2.92495 12.3543 5.64481 15.0742 8.99992 15.0742C12.355 15.0742 15.0749 12.3543 15.0749 8.99922C15.0749 5.64409 12.355 2.92422 8.99992 2.92422ZM1.57495 8.99922C1.57495 4.8985 4.89922 1.57422 8.99992 1.57422C13.1006 1.57422 16.4249 4.8985 16.4249 8.99922C16.4249 13.0999 13.1006 16.4242 8.99992 16.4242C4.89922 16.4242 1.57495 13.0999 1.57495 8.99922Z" fill="#9498A2"/>
<path d="M9.74992 12.3742C9.74992 12.7884 9.41413 13.1242 8.99992 13.1242C8.58571 13.1242 8.24993 12.7884 8.24993 12.3742C8.24993 11.96 8.58571 11.6242 8.99992 11.6242C9.41413 11.6242 9.74992 11.96 9.74992 12.3742Z" fill="#9498A2"/>
<path fill-rule="evenodd" clip-rule="evenodd" d="M8.89842 4.95111C9.32772 4.93508 9.75641 5.02097 10.1437 5.20324C10.5311 5.3856 10.8674 5.6601 11.1152 6.00571C11.3634 6.35184 11.5132 6.75633 11.544 7.18008C11.5748 7.60397 11.485 8.02549 11.2873 8.40234C11.0899 8.77863 10.7935 9.09457 10.433 9.32436L10.4274 9.3279L10.4218 9.33132C10.1827 9.47726 9.9902 9.66928 9.85554 9.88784C9.72387 10.1015 9.65005 10.3361 9.63586 10.5736V10.7805H8.28586V10.5388L8.28668 10.5223C8.31005 10.0471 8.45518 9.58704 8.70621 9.17964C8.95567 8.77479 9.30162 8.4348 9.71194 8.18301C9.88066 8.07439 10.0094 7.93233 10.0919 7.77518C10.1747 7.61718 10.2098 7.44634 10.1975 7.27803C10.1853 7.10957 10.1255 6.94216 10.0181 6.79233C9.91031 6.642 9.75714 6.51339 9.56872 6.4247C9.38012 6.33592 9.16625 6.29205 8.94881 6.30017C8.73137 6.30829 8.52319 6.36791 8.34481 6.46948C8.16666 6.57091 8.02723 6.70885 7.93442 6.86457C7.84195 7.01974 7.79732 7.18948 7.80005 7.35804L6.45023 7.37985C6.44336 6.95496 6.55684 6.53907 6.77477 6.17341C6.99238 5.80831 7.30511 5.50797 7.67685 5.29631C8.04836 5.08478 8.46911 4.96715 8.89842 4.95111Z" fill="#9498A2"/>
</svg>
