<svg width="67" height="66" viewBox="0 0 67 66" fill="none" xmlns="http://www.w3.org/2000/svg">
<path d="M48.4652 17.7484L43.6369 14.8593V9.49668C43.6369 8.97119 43.2103 8.54684 42.687 8.54684H40.1827C39.6572 8.54684 39.2329 8.97339 39.2329 9.49668V12.2231L29.9873 6.69113C29.3519 6.31076 28.556 6.31076 27.9206 6.69113L9.44049 17.7484C8.9194 18.0606 8.60059 18.6213 8.60059 19.2281V41.5098C8.60059 41.9913 8.99195 42.3826 9.47347 42.3826H48.4322C48.9138 42.3826 49.3051 41.9913 49.3051 41.5098V19.2281C49.3051 18.6213 48.9863 18.0584 48.4652 17.7484Z" fill="#56E2C3"/>
<path d="M27.7967 17.3153H29.9624C30.8353 17.3153 31.5433 18.0232 31.5433 18.8961V24.0037H26.2158V18.8961C26.2158 18.0232 26.9238 17.3153 27.7967 17.3153Z" fill="#CAFFF3"/>
<path d="M29.116 15.2134H28.6455V25.2483H29.116V15.2134Z" fill="#56E2C3"/>
<path d="M33.8984 20.8969V20.4264H23.8636V20.8969H33.8984Z" fill="#56E2C3"/>
<path d="M31.6917 28.3197H26.2543C25.9192 28.3197 25.6475 28.5914 25.6475 28.9266V39.4781C25.6475 39.8133 25.9192 40.085 26.2543 40.085H31.6917C32.0268 40.085 32.2985 39.8133 32.2985 39.4781V28.9266C32.2985 28.5914 32.0268 28.3197 31.6917 28.3197Z" fill="#CAFFF3"/>
<path d="M38.2237 36.9892C36.656 35.4215 34.1143 35.4215 32.5466 36.9892L24.8182 44.7176H13.7258C11.5095 44.7176 9.71094 46.514 9.71094 48.7325C9.71094 50.9488 11.5073 52.7473 13.7258 52.7473H26.3199C26.3463 52.7473 26.3727 52.7429 26.3991 52.7429C27.4545 52.7649 28.5142 52.3757 29.3189 51.571L38.2237 42.6663C39.7914 41.0986 39.7914 38.5569 38.2237 36.9892Z" fill="#F0E5FF"/>
<path d="M24.8952 40.5313H22.3447C21.2607 38.2051 18.9015 36.5912 16.1663 36.5912C12.4021 36.5912 9.35254 39.6408 9.35254 43.405C9.35254 47.1692 12.4021 50.2188 16.1663 50.2188C16.7578 50.2188 17.3316 50.144 17.8791 50.0011H24.8952C27.5094 50.0011 29.6312 47.8816 29.6312 45.2651C29.6312 42.6487 27.5116 40.5291 24.8952 40.5291V40.5313Z" fill="#DBDEE8"/>
<path d="M18.8585 51.0976L9.04975 41.2889C8.46244 40.7016 7.51022 40.7016 6.9229 41.2889L2.06286 46.149C1.47555 46.7363 1.47555 47.6885 2.06286 48.2758L11.8716 58.0845C12.4589 58.6718 13.4111 58.6718 13.9984 58.0845L18.8585 53.2245C19.4458 52.6372 19.4458 51.6849 18.8585 51.0976Z" fill="#A568FF"/>
<path d="M56.7321 19.1644C59.3618 19.1644 61.4945 17.0317 61.4945 14.402C61.4945 11.7724 59.3618 9.63965 56.7321 9.63965C54.1025 9.63965 51.9697 11.7724 51.9697 14.402C51.9697 17.0317 54.1025 19.1644 56.7321 19.1644Z" fill="#A568FF"/>
<path d="M59.6806 20.5365H53.8056C52.7151 20.5365 51.6883 20.8135 50.7934 21.3016C50.5252 21.4468 50.2679 21.6139 50.0261 21.7942C49.7029 22.036 49.4016 22.3109 49.1312 22.6099C48.9949 22.7594 48.8674 22.9155 48.7464 23.0782C48.6255 23.2409 48.5112 23.408 48.4056 23.5817C48.1418 24.0148 47.9285 24.4832 47.7768 24.9779C47.5921 25.5715 47.4932 26.2003 47.4932 26.8534V29.0543C47.4932 29.5534 47.8713 29.9645 48.3573 30.0129L48.4562 30.0173H65.0366C65.1619 30.0173 65.2807 29.9931 65.3906 29.9513C65.7182 29.8216 65.96 29.5182 65.9952 29.1532L65.9996 29.0543V26.8534C65.9996 23.3596 63.1633 20.5387 59.6828 20.5365H59.6806Z" fill="#A568FF"/>
<path d="M63.7182 34.2035H53.0084C52.5469 34.2035 52.1729 34.5775 52.1729 35.039V56.0278C52.1729 56.4892 52.5469 56.8633 53.0084 56.8633H63.7182C64.1797 56.8633 64.5537 56.4892 64.5537 56.0278V35.039C64.5537 34.5775 64.1797 34.2035 63.7182 34.2035Z" fill="#E9ECF3"/>
<path d="M61.8402 36.2922H54.8857V38.3832H61.8402V36.2922Z" fill="#DBDEE8"/>
<path d="M61.8402 39.7465H54.8857V41.8375H61.8402V39.7465Z" fill="#DBDEE8"/>
<path d="M61.8402 43.2007H54.8857V45.2917H61.8402V43.2007Z" fill="#DBDEE8"/>
<path d="M61.8402 52.8705H54.8857V54.9615H61.8402V52.8705Z" fill="#DBDEE8"/>
<path d="M56.7437 23.9597C57.1954 23.9597 57.5616 23.5936 57.5616 23.1418C57.5616 22.6901 57.1954 22.3239 56.7437 22.3239C56.292 22.3239 55.9258 22.6901 55.9258 23.1418C55.9258 23.5936 56.292 23.9597 56.7437 23.9597Z" fill="#F0E5FF"/>
<path d="M56.7437 26.7477C57.1954 26.7477 57.5616 26.3815 57.5616 25.9298C57.5616 25.478 57.1954 25.1118 56.7437 25.1118C56.292 25.1118 55.9258 25.478 55.9258 25.9298C55.9258 26.3815 56.292 26.7477 56.7437 26.7477Z" fill="#F0E5FF"/>
</svg>
