<svg width="67" height="66" viewBox="0 0 67 66" fill="none" xmlns="http://www.w3.org/2000/svg">
<g clip-path="url(#clip0_530_51172)">
<path d="M22.5049 55.855C22.4461 55.4637 22.3465 55.0859 22.2153 54.7239C22.1814 54.6334 22.1475 54.5452 22.109 54.457C21.9597 54.1041 21.7765 53.7693 21.5638 53.4548C21.5118 53.3757 21.4552 53.2987 21.3987 53.2241C20.8286 52.464 20.0775 51.8464 19.2134 51.4324C18.6704 51.1723 18.0823 50.9936 17.4624 50.9121C17.4013 50.9031 17.3403 50.894 17.2769 50.8872C17.0801 50.8669 16.8788 50.8578 16.6752 50.8578H11.1893C11.0717 50.8578 10.9563 50.8623 10.8432 50.8691C10.807 50.8691 10.7708 50.8737 10.7346 50.8782C10.6962 50.8804 10.6577 50.885 10.6192 50.8895C10.5785 50.894 10.5378 50.8963 10.4971 50.9008C10.4564 50.9053 10.4179 50.9099 10.3794 50.9166C10.3003 50.9279 10.2234 50.9393 10.1464 50.9528C10.1125 50.9596 10.0763 50.9641 10.0424 50.9709C9.93379 50.9936 9.8252 51.0162 9.71888 51.0433H9.71435C9.60803 51.0705 9.50171 51.1021 9.39764 51.1361C9.36371 51.1474 9.33204 51.1587 9.30037 51.17C9.22798 51.1949 9.15559 51.2198 9.0832 51.2492C9.05605 51.2605 9.0289 51.2695 9.00176 51.2809C8.99271 51.2854 8.98366 51.2876 8.97687 51.2899C8.90675 51.3193 8.83435 51.3487 8.76649 51.3804C8.73482 51.394 8.70315 51.4075 8.67374 51.4234C8.57646 51.4709 8.47919 51.5184 8.38417 51.5704C8.27333 51.6315 8.16474 51.6971 8.05842 51.765C8.03127 51.7808 8.00412 51.7989 7.97924 51.817C7.87291 51.8849 7.76885 51.9573 7.66932 52.0319C7.51775 52.145 7.37297 52.2649 7.23271 52.3916C6.95446 52.645 6.69883 52.9255 6.47261 53.2286C6.29389 53.4662 6.13554 53.7195 5.99528 53.9819C5.97944 54.0113 5.96361 54.043 5.94777 54.0724C5.91384 54.1403 5.87991 54.2082 5.84824 54.2783C5.8324 54.3122 5.81657 54.3484 5.80073 54.3823C5.76906 54.4525 5.74191 54.5226 5.7125 54.595C5.69893 54.6267 5.68762 54.6583 5.67405 54.69C5.59034 54.9117 5.52248 55.1424 5.46592 55.3755C5.45914 55.4071 5.45009 55.4388 5.4433 55.4705C5.38675 55.7238 5.34603 55.984 5.3234 56.2487C5.32114 56.2826 5.31888 56.3143 5.31662 56.3482C5.30757 56.4817 5.30078 56.6151 5.30078 56.7509V58.805C5.30078 58.9792 5.35055 59.142 5.43651 59.28C5.52248 59.418 5.64464 59.5311 5.79168 59.6058C5.88896 59.6556 5.99528 59.6872 6.10839 59.6985L6.20114 59.7031H21.6814C21.7968 59.7031 21.9099 59.6804 22.0117 59.6397C22.057 59.6216 22.1022 59.599 22.1429 59.5741C22.1565 59.5673 22.1678 59.5583 22.1791 59.5515C22.2085 59.5311 22.238 59.5108 22.2651 59.4859C22.2764 59.4768 22.2877 59.4678 22.2968 59.4587C22.3669 59.3931 22.428 59.314 22.4732 59.228C22.48 59.2144 22.4868 59.2031 22.4913 59.1895C22.5072 59.1556 22.5207 59.1217 22.532 59.0877C22.5366 59.0742 22.5411 59.0606 22.5456 59.0448C22.5592 58.9973 22.5705 58.9475 22.575 58.8955L22.5795 58.8027V56.7486C22.5795 56.4432 22.5569 56.1423 22.5117 55.8505L22.5049 55.855Z" fill="#F0E5FF"/>
<path d="M66.1672 18.2662L47.8117 7.2832C47.4949 7.09318 47.1398 7.00043 46.7846 7.00043H21.5587C21.3687 7.00043 21.2148 7.15426 21.2148 7.34428V42.7366H66.1333C66.6129 42.7366 66.9997 42.3475 66.9997 41.8701V19.7389C66.9997 19.1372 66.683 18.5784 66.165 18.2685L66.1672 18.2662Z" fill="#CAFFF3"/>
<path d="M40.5977 18.2662L35.8019 15.3955V10.0702C35.8019 9.54994 35.3788 9.12691 34.8585 9.12691H32.3701C31.8498 9.12691 31.4267 9.54994 31.4267 10.0702V12.7781L22.2444 7.2832C21.6133 6.90542 20.8238 6.90542 20.1903 7.2832L1.83476 18.2662C1.31671 18.5762 1 19.1349 1 19.7367V41.8679C1 42.3475 1.3891 42.7343 1.86643 42.7343H40.5638C41.0434 42.7343 41.4302 42.3452 41.4302 41.8679V19.7367C41.4302 19.1349 41.1135 18.5762 40.5955 18.2662H40.5977Z" fill="#56E2C3"/>
<path d="M50.0448 23.1119H47.5654V25.5913H50.0448V23.1119Z" fill="#56E2C3"/>
<path d="M52.9921 23.1119H50.5127V25.5913H52.9921V23.1119Z" fill="#56E2C3"/>
<path d="M50.0448 26.0188H47.5654V28.4982H50.0448V26.0188Z" fill="#56E2C3"/>
<path d="M52.9921 26.0188H50.5127V28.4982H52.9921V26.0188Z" fill="#56E2C3"/>
<path d="M60.6952 23.1119H58.2158V25.5913H60.6952V23.1119Z" fill="#56E2C3"/>
<path d="M63.6425 23.1119H61.1631V25.5913H63.6425V23.1119Z" fill="#56E2C3"/>
<path d="M60.6952 26.0188H58.2158V28.4982H60.6952V26.0188Z" fill="#56E2C3"/>
<path d="M63.6425 26.0188H61.1631V28.4982H63.6425V26.0188Z" fill="#56E2C3"/>
<path d="M20.1265 17.8387H22.1648C23.0629 17.8387 23.7913 18.5671 23.7913 19.4652V24.4806H18.5V19.4652C18.5 18.5671 19.2284 17.8387 20.1265 17.8387Z" fill="#CAFFF3"/>
<path d="M21.3804 15.7485H20.9121V25.7158H21.3804V15.7485Z" fill="#56E2C3"/>
<path d="M26.1279 21.3927V20.9245H16.1606V21.3927H26.1279Z" fill="#56E2C3"/>
<mask id="mask0_530_51172" style="mask-type:luminance" maskUnits="userSpaceOnUse" x="1" y="7" width="66" height="36">
<path d="M66.9186 7.00043H1.05664V42.7366H66.9186V7.00043Z" fill="white"/>
</mask>
<g mask="url(#mask0_530_51172)">
<path d="M24.5432 29.4641V39.7413C24.5432 40.1349 24.2242 40.4539 23.8328 40.4539H18.6478C18.2565 40.4539 17.9375 40.1349 17.9375 39.7413V29.4641C17.9375 29.0705 18.2565 28.7515 18.6478 28.7515H23.8328C24.2242 28.7515 24.5432 29.0705 24.5432 29.4641Z" fill="#CAFFF3"/>
</g>
<path d="M33.886 49.5753C36.3427 49.5753 38.3335 47.5846 38.3335 45.1278C38.3335 42.671 36.3427 40.6803 33.886 40.6803C31.4292 40.6803 29.4407 42.671 29.4385 45.1278C29.4385 47.5846 31.4292 49.5753 33.886 49.5753Z" fill="#F0E5FF"/>
<path d="M36.931 42.481C35.8588 42.481 34.9471 43.1755 34.5897 44.1505C34.0513 44.0012 33.5671 44.0555 33.1848 44.1686C32.8319 43.1845 31.9157 42.481 30.8389 42.481C29.4567 42.481 28.3369 43.6347 28.3369 45.0554C28.3369 46.4761 29.4567 47.6298 30.8389 47.6298C32.0492 47.6298 33.0581 46.7475 33.2912 45.5734C33.5739 45.4241 33.9902 45.3246 34.4766 45.5599C34.705 46.7385 35.7162 47.6275 36.931 47.6275C38.3133 47.6275 39.4331 46.4738 39.4331 45.0531C39.4331 43.6325 38.3133 42.4787 36.931 42.4787V42.481Z" fill="#A568FF"/>
<path d="M53.8365 39.5831C53.6849 39.6125 53.5311 39.6306 53.3773 39.6238C52.5199 39.5922 49.1651 39.7663 48.8054 44.3541C48.742 45.1662 48.7058 45.906 48.69 46.5756C48.6628 47.8266 49.674 48.8514 50.925 48.8514H57.637C58.9333 48.8514 59.9626 47.752 59.8676 46.458C59.6006 42.7932 58.3949 38.6918 53.8343 39.5831H53.8365Z" fill="#A568FF"/>
<path d="M54.0579 49.5754C56.5146 49.5754 58.5054 47.5846 58.5054 45.1279C58.5054 42.6711 56.5146 40.6803 54.0579 40.6803C51.6011 40.6803 49.6126 42.6711 49.6104 45.1279C49.6104 47.5846 51.6011 49.5754 54.0579 49.5754Z" fill="#F0E5FF"/>
<path d="M56.8109 50.8579H51.325C50.3048 50.8579 49.3478 51.1158 48.5131 51.5705C48.262 51.7062 48.0222 51.86 47.796 52.032C47.4928 52.2582 47.2123 52.5138 46.9589 52.7943C46.8323 52.9346 46.7124 53.0794 46.5992 53.2309C46.4861 53.3825 46.3798 53.5386 46.2825 53.7015C46.036 54.1064 45.8369 54.543 45.6944 55.0045C45.5224 55.5588 45.4297 56.1469 45.4297 56.7555V58.8095C45.4297 59.2756 45.7826 59.6579 46.2373 59.7054L46.33 59.7099H61.8104C61.9257 59.7099 62.0388 59.6873 62.1406 59.6466C62.4483 59.5267 62.6723 59.2416 62.7062 58.9023L62.7107 58.8095V56.7555C62.7107 53.4934 60.0617 50.8579 56.8131 50.8579H56.8109Z" fill="#F0E5FF"/>
<path d="M49.2169 45.8901C49.2169 45.8901 51.7189 45.0418 52.7278 43.0623C52.7278 43.0623 54.1847 44.483 58.8177 44.7431C58.8177 44.7431 57.9581 39.626 53.5513 40.3341C49.1445 41.0422 49.2169 45.8878 49.2169 45.8878V45.8901Z" fill="#A568FF"/>
<path d="M37.5145 50.9236C37.8289 51.2606 38.1502 51.6678 38.2995 52.0592C38.5709 52.7673 37.5009 53.4527 37.0394 53.7083C37.3041 54.0386 37.6344 54.4707 37.7452 54.6924C37.9375 55.0792 37.6298 55.552 37.6298 55.552C37.0711 56.5406 34.9491 57.9658 34.3112 58.2622C34.1212 58.3504 33.9877 58.3798 33.8881 58.373C33.7886 58.3775 33.6551 58.3504 33.4651 58.2622C32.8272 57.9658 30.703 56.5384 30.1465 55.552C30.1465 55.552 29.8411 55.0792 30.0311 54.6924C30.1397 54.4707 30.4722 54.0386 30.7369 53.7083C30.2754 53.4527 29.2054 52.7673 29.4768 52.0592C29.6261 51.6678 29.9474 51.2606 30.2596 50.9258C27.425 51.3579 25.2578 53.8101 25.2578 56.7555V58.8096C25.2578 59.2756 25.6107 59.658 26.0654 59.7055L26.1582 59.71H41.6385C42.1045 59.71 42.4868 59.3571 42.5343 58.9024L42.5388 58.8096V56.7555C42.5388 53.792 40.3535 51.3466 37.5167 50.9236H37.5145Z" fill="#F0E5FF"/>
<path d="M33.8859 57.3618L36.4286 50.919C36.4377 50.8964 36.449 50.8783 36.4581 50.8602H31.3115C31.3206 50.8805 31.3341 50.8986 31.3409 50.919L33.8837 57.3618H33.8859Z" fill="#F0E5FF"/>
<path d="M38.2991 52.0592C38.1475 51.6656 37.8263 51.2584 37.5141 50.9236C37.4281 50.8308 37.3422 50.7449 37.263 50.6657C37.0006 50.41 36.6341 50.5096 36.4622 50.858C36.4531 50.8783 36.4395 50.8964 36.4328 50.9168L33.89 57.3596L31.3473 50.9168C31.3383 50.8942 31.3269 50.8761 31.3179 50.858C31.1437 50.5073 30.7772 50.41 30.5171 50.6657C30.4356 50.7449 30.3497 50.8331 30.2637 50.9258C29.9515 51.2606 29.6303 51.6678 29.481 52.0592C29.2095 52.7673 30.2795 53.4527 30.741 53.7083C30.4764 54.0386 30.1461 54.4707 30.0352 54.6924C29.8429 55.0793 30.1506 55.5521 30.1506 55.5521C30.7094 56.5406 32.8313 57.9658 33.4693 58.2622C33.6593 58.3504 33.7928 58.3798 33.8923 58.373C33.9918 58.3776 34.1253 58.3504 34.3153 58.2622C34.9533 57.9658 37.0775 56.5384 37.634 55.5521C37.634 55.5521 37.9394 55.0793 37.7494 54.6924C37.6408 54.4707 37.3082 54.0386 37.0436 53.7083C37.505 53.4527 38.5751 52.7673 38.3036 52.0592H38.2991Z" fill="#A568FF"/>
<path d="M54.2481 54.3055C54.5917 54.3055 54.8702 54.0269 54.8702 53.6834C54.8702 53.3398 54.5917 53.0612 54.2481 53.0612C53.9045 53.0612 53.626 53.3398 53.626 53.6834C53.626 54.0269 53.9045 54.3055 54.2481 54.3055Z" fill="#A568FF"/>
<path d="M54.2481 57.0609C54.5917 57.0609 54.8702 56.7824 54.8702 56.4388C54.8702 56.0952 54.5917 55.8167 54.2481 55.8167C53.9045 55.8167 53.626 56.0952 53.626 56.4388C53.626 56.7824 53.9045 57.0609 54.2481 57.0609Z" fill="#A568FF"/>
<path d="M10.2347 47.6139C10.7143 48.3242 11.393 48.8875 12.1915 49.2246C12.325 49.2812 12.4607 49.3309 12.601 49.3739C13.0195 49.5028 13.4629 49.573 13.9221 49.573C16.3789 49.573 18.3696 47.5822 18.3696 45.1255C18.3696 42.6687 16.3789 40.678 13.9221 40.678C11.4654 40.678 9.47687 42.6687 9.47461 45.1255C9.47461 45.7385 9.59903 46.3244 9.82525 46.8561C9.93836 47.123 10.0764 47.3741 10.2347 47.6116V47.6139Z" fill="#F0E5FF"/>
<path d="M18.4889 44.275C18.5952 44.275 18.6835 44.1868 18.6789 44.0805C18.5771 41.5468 16.4914 39.5244 13.9328 39.5244C11.3742 39.5244 9.28849 41.5468 9.18669 44.0805C9.18217 44.1868 9.27039 44.275 9.37672 44.275H18.4889Z" fill="#A568FF"/>
<path d="M14.0501 39.1805C14.5727 39.1805 14.9957 39.6035 14.9957 40.1261V44.2704C14.9957 44.3677 14.9165 44.4469 14.8192 44.4469H13.2809C13.1837 44.4469 13.1045 44.3677 13.1045 44.2704V40.1261C13.1045 39.6035 13.5275 39.1805 14.0501 39.1805Z" fill="#A568FF"/>
<path d="M14.0504 43.3836C14.9175 43.3836 15.6204 42.6807 15.6204 41.8136C15.6204 40.9465 14.9175 40.2436 14.0504 40.2436C13.1834 40.2436 12.4805 40.9465 12.4805 41.8136C12.4805 42.6807 13.1834 43.3836 14.0504 43.3836Z" fill="#F0E5FF"/>
<path d="M14.0507 42.8994C14.6504 42.8994 15.1366 42.4133 15.1366 41.8136C15.1366 41.2139 14.6504 40.7277 14.0507 40.7277C13.451 40.7277 12.9648 41.2139 12.9648 41.8136C12.9648 42.4133 13.451 42.8994 14.0507 42.8994Z" fill="#A568FF"/>
<path d="M10.4083 50.6204L15.03 55.2421C15.2404 55.4525 15.0911 55.8144 14.7924 55.8144H10.1707C9.98524 55.8144 9.83594 55.6651 9.83594 55.4796V50.8579C9.83594 50.5593 10.1979 50.41 10.4083 50.6204Z" fill="#A568FF"/>
<path d="M17.6957 50.6204L13.074 55.2421C12.8636 55.4525 13.0129 55.8144 13.3115 55.8144H17.9332C18.1187 55.8144 18.268 55.6651 18.268 55.4796V50.8579C18.268 50.5593 17.906 50.41 17.6957 50.6204Z" fill="#A568FF"/>
</g>
<defs>
<clipPath id="clip0_530_51172">
<rect width="66" height="66" fill="white" transform="translate(0.5)"/>
</clipPath>
</defs>
</svg>
