<svg width="25" height="25" viewBox="0 0 25 25" fill="none" xmlns="http://www.w3.org/2000/svg">
<path d="M15.2783 1.67776C15.6058 1.44065 16.0572 1.44084 16.3848 1.67776L23.0039 6.35354L23.0156 6.36526C23.2753 6.54596 23.4218 6.82842 23.4219 7.14455V15.5938C23.4217 16.1245 22.9927 16.5537 22.4619 16.5537H21.7373C21.561 16.742 21.3693 16.9057 21.1523 17.0283L15.3457 20.3828C14.9844 20.586 14.5892 20.6987 14.1602 20.71H10.5684C10.4893 20.8681 10.3875 20.9815 10.252 21.0606L6.5127 23.3535C6.36606 23.4549 6.19701 23.5 6.0166 23.5C5.6892 23.5 5.38388 23.331 5.20313 23.0489L1.02344 16.249C0.899189 16.0344 0.854656 15.7739 0.911133 15.5254C0.967681 15.2771 1.12534 15.0623 1.33984 14.9268L5.0791 12.6338C5.29363 12.4985 5.55343 12.4651 5.80176 12.5215C5.99367 12.5667 6.16292 12.6683 6.28711 12.8037C6.78874 12.1847 7.47303 11.72 8.25195 11.4893V7.13283C8.25212 6.8281 8.39962 6.53417 8.65918 6.35354L15.2783 1.67776ZM3.1582 16.0908L6.33203 21.252L8.43359 19.9649L5.25977 14.8028L3.1582 16.0908ZM9.95801 13.334C9.42727 13.176 8.96399 13.2214 8.50098 13.4473C7.99275 13.6958 7.60929 14.1366 7.45117 14.6787L9.99219 18.8242H14.1377C14.2167 18.8242 14.3067 18.801 14.3857 18.7559L14.5898 18.6436C14.4544 18.6774 14.3073 18.6768 14.1719 18.6768H10.9971C10.4664 18.6766 10.0371 18.2476 10.0371 17.7168C10.0372 17.1861 10.4664 16.7571 10.9971 16.7569H14.1719L14.1602 16.7344C14.5441 16.7344 14.8602 16.4181 14.8604 16.0342C14.8604 15.7971 14.7365 15.5706 14.5107 15.4463C14.4883 15.4351 14.4764 15.4243 14.4541 15.4131C14.3526 15.368 14.2621 15.3448 14.1719 15.3447H12.1836C11.8448 15.3447 11.5288 15.1642 11.3594 14.8594C11.3255 14.7916 11.2911 14.7348 11.2686 14.667C11.0765 14.0346 10.5905 13.5373 9.95801 13.334ZM20.0566 14.2949C19.8985 14.2498 19.7283 14.2715 19.5928 14.3506L16.7803 15.9776H16.8037V16.0567C16.8037 16.6779 16.5885 17.2543 16.2158 17.7061L20.2148 15.4014C20.3502 15.3223 20.4519 15.1981 20.4971 15.0401C20.5083 14.9724 20.5078 14.8934 20.5078 14.8145C20.4965 14.7241 20.4739 14.6449 20.4287 14.5772C20.3384 14.4417 20.2146 14.3402 20.0566 14.2949ZM14.7695 13.501C15.2361 13.617 15.6623 13.8523 16.0127 14.1924L16.8486 13.709V11.1992H14.7695V13.501ZM10.1836 7.62991V11.3985C11.3294 11.6463 12.3079 12.3845 12.8389 13.4248H12.8496V10.2393C12.8498 9.7087 13.279 9.27957 13.8096 9.27932H17.8086C18.3392 9.27949 18.7684 9.70866 18.7686 10.2393V12.6114C19.3236 12.3417 19.948 12.274 20.5537 12.4307C20.9017 12.5302 21.2249 12.6971 21.502 12.9258V7.62991L15.8428 3.63186L10.1836 7.62991Z" fill="currentColor"/>
</svg>
