<svg width="25" height="25" viewBox="0 0 25 25" fill="none" xmlns="http://www.w3.org/2000/svg">
<path fill-rule="evenodd" clip-rule="evenodd" d="M11.6362 7.74081C10.2271 5.88635 7.55059 5.60543 5.78323 7.10069C3.97862 8.62745 3.86757 11.3651 5.54971 13.0306L12.625 19.792L19.7002 13.0306C21.3824 11.3651 21.2714 8.62746 19.4668 7.1007C17.6994 5.60543 15.0229 5.88635 13.6138 7.74082L13.3272 8.11793C13.1646 8.33196 12.9033 8.45879 12.625 8.45879C12.3467 8.45879 12.0854 8.33196 11.9228 8.11793L11.6362 7.74081ZM12.625 6.29378C14.7091 4.10539 18.2396 3.86354 20.6193 5.87677C23.1611 8.02724 23.3065 11.8397 20.944 14.1715L20.9342 14.181L13.75 21.0465C13.131 21.6512 12.119 21.6512 11.5 21.0465L4.31573 14.181L4.30597 14.1715C1.94348 11.8397 2.08889 8.02725 4.63071 5.87678C7.01032 3.86354 10.5409 4.10539 12.625 6.29378Z" fill="currentColor"/>
</svg>
