<svg width="25" height="25" viewBox="0 0 25 25" fill="none" xmlns="http://www.w3.org/2000/svg">
<g clip-path="url(#clip0_191_551)">
<path d="M17.5527 12.8414C18.1076 12.8795 18.6468 13.0502 19.124 13.3404C19.6692 13.6722 20.1138 14.1477 20.4072 14.7145C20.7004 15.281 20.8319 15.9179 20.7881 16.5543C20.7441 17.1909 20.5256 17.8038 20.1572 18.3248C19.7888 18.8458 19.2837 19.2547 18.6982 19.5084C18.1126 19.762 17.4681 19.85 16.8359 19.7623C16.204 19.6745 15.6076 19.4157 15.1133 19.0123C14.6464 18.6313 14.289 18.1345 14.0713 17.5738H10.9268C10.631 18.3359 10.0788 18.9721 9.36035 19.3668C8.6107 19.7785 7.73574 19.9008 6.90234 19.7086C6.06884 19.5163 5.33445 19.0234 4.84082 18.3248C4.34744 17.6263 4.12852 16.7701 4.22559 15.9205C4.32281 15.0706 4.7305 14.2855 5.36914 13.7164C6.00765 13.1476 6.83334 12.8337 7.68848 12.8346C8.54386 12.8356 9.36948 13.1518 10.0068 13.7223C10.6108 14.263 11.0032 14.9967 11.124 15.7955H13.876C13.9966 14.9959 14.3894 14.2614 14.9941 13.7203C15.6322 13.1495 16.4583 12.8328 17.3145 12.8326L17.5527 12.8414ZM8.33691 14.7408C8.02568 14.612 7.68292 14.5784 7.35254 14.6441C7.02227 14.7099 6.7186 14.8718 6.48047 15.11C6.24241 15.3481 6.08044 15.6518 6.01465 15.982C5.94899 16.3124 5.98247 16.6552 6.11133 16.9664C6.24026 17.2777 6.45914 17.5439 6.73926 17.7311C7.01935 17.9181 7.34873 18.0182 7.68555 18.0182L7.85254 18.0104C8.01884 17.994 8.18196 17.9524 8.33691 17.8883C8.54354 17.8027 8.73149 17.6773 8.88965 17.5191C9.04783 17.361 9.17415 17.1731 9.25977 16.9664C9.3453 16.7598 9.38867 16.5377 9.38867 16.3141C9.38857 15.9776 9.28931 15.6486 9.10254 15.3688C8.91534 15.0886 8.64822 14.8698 8.33691 14.7408ZM17.9668 14.7408C17.6555 14.6119 17.3119 14.5784 16.9814 14.6441C16.6514 14.71 16.3484 14.872 16.1104 15.11C15.8722 15.3481 15.7103 15.6518 15.6445 15.982C15.5789 16.3124 15.6114 16.6552 15.7402 16.9664C15.8691 17.2776 16.0882 17.5439 16.3682 17.7311C16.6482 17.9181 16.9777 18.0181 17.3145 18.0182C17.7663 18.0182 18.2 17.8386 18.5195 17.5191C18.8389 17.1997 19.0176 16.7658 19.0176 16.3141C19.0175 15.9775 18.9183 15.6486 18.7314 15.3688C18.5443 15.0887 18.278 14.8698 17.9668 14.7408ZM15.4766 3.20567C15.7254 3.21278 15.9702 3.27616 16.1904 3.39219C16.3554 3.47917 16.5032 3.59451 16.6289 3.73106L16.7471 3.87462L21.1016 9.86973H23.6104C23.846 9.86973 24.0726 9.96386 24.2393 10.1305C24.4059 10.2972 24.5 10.5237 24.5 10.7594C24.4999 10.995 24.4059 11.2216 24.2393 11.3883C24.0726 11.5548 23.8459 11.6481 23.6104 11.6481H1.38965C1.15405 11.6481 0.927407 11.5548 0.760742 11.3883C0.594116 11.2216 0.500055 10.995 0.5 10.7594C0.500016 10.5237 0.594063 10.2972 0.760742 10.1305C0.927424 9.96386 1.15397 9.86973 1.38965 9.86973H3.89844L8.25293 3.87462L8.37109 3.73106C8.49678 3.59451 8.64459 3.47917 8.80957 3.39219C9.02982 3.27616 9.2746 3.21278 9.52344 3.20567C9.77228 3.19861 10.0196 3.24884 10.2461 3.35215C10.4712 3.45487 10.6698 3.6075 10.8271 3.79844L12.0166 5.17735L12.0361 5.19883L12.04 5.20372L12.084 5.25352C12.1304 5.29996 12.1847 5.33908 12.2441 5.36778C12.3238 5.40618 12.4116 5.4254 12.5 5.4254L12.5654 5.42149C12.6311 5.41411 12.696 5.39663 12.7559 5.36778C12.8354 5.32939 12.905 5.27279 12.96 5.20372L12.9639 5.19883L14.1729 3.79844C14.3302 3.6075 14.5288 3.45487 14.7539 3.35215C14.9804 3.24884 15.2277 3.19861 15.4766 3.20567ZM6.0957 9.86973H18.9043L15.4209 5.07286L14.3359 6.33067L14.335 6.32969C14.1133 6.60118 13.835 6.82065 13.5186 6.9713C13.2004 7.12262 12.8523 7.20176 12.5 7.20176C12.1477 7.20176 11.7996 7.12262 11.4814 6.9713C11.1648 6.82056 10.8858 6.6014 10.6641 6.32969L9.57812 5.07188L6.0957 9.86973Z" fill="#A568FF"/>
</g>
<defs>
<clipPath id="clip0_191_551">
<rect width="24" height="24" fill="white" transform="translate(0.5 0.5)"/>
</clipPath>
</defs>
</svg>
