<svg width="25" height="24" viewBox="0 0 25 24" fill="none" xmlns="http://www.w3.org/2000/svg">
<g clip-path="url(#clip0_462_18194)">
<path d="M17.5527 12.341C18.1076 12.3791 18.6468 12.5498 19.124 12.8401C19.6693 13.1718 20.1138 13.6473 20.4072 14.2141C20.7005 14.7808 20.832 15.4183 20.7881 16.0549C20.744 16.6913 20.5255 17.3035 20.1572 17.8244C19.7888 18.3454 19.2837 18.7553 18.6982 19.009C18.1127 19.2626 17.468 19.3506 16.8359 19.2629C16.204 19.1752 15.6077 18.9153 15.1133 18.5119C14.6465 18.131 14.289 17.6349 14.0713 17.0744H10.9268C10.631 17.8363 10.0787 18.4728 9.36035 18.8674C8.61074 19.279 7.73566 19.4004 6.90234 19.2082C6.06882 19.016 5.33445 18.5231 4.84082 17.8244C4.34745 17.1259 4.12844 16.2698 4.22559 15.4201C4.32281 14.5703 4.7305 13.7852 5.36914 13.216C6.00763 12.6473 6.83342 12.3334 7.68848 12.3342C8.54384 12.3352 9.36948 12.6514 10.0068 13.2219C10.6108 13.7626 11.0031 14.4964 11.124 15.2951H13.876C13.9967 14.4956 14.3894 13.7609 14.9941 13.22C15.6322 12.6492 16.4583 12.3335 17.3145 12.3332L17.5527 12.341ZM8.33691 14.2405C8.02571 14.1116 7.68288 14.0781 7.35254 14.1438C7.02226 14.2096 6.71861 14.3715 6.48047 14.6096C6.24234 14.8477 6.08045 15.1514 6.01465 15.4817C5.94894 15.812 5.98253 16.1549 6.11133 16.466C6.24027 16.7773 6.45909 17.0445 6.73926 17.2317C7.0193 17.4186 7.34882 17.5178 7.68555 17.5178L7.85254 17.51C8.01874 17.4936 8.18204 17.453 8.33691 17.3889C8.5436 17.3033 8.73146 17.177 8.88965 17.0188C9.04782 16.8606 9.17416 16.6727 9.25977 16.466C9.3452 16.2596 9.38865 16.0381 9.38867 15.8147C9.38866 15.478 9.2895 15.1484 9.10254 14.8684C8.91534 14.5882 8.64822 14.3694 8.33691 14.2405ZM17.9668 14.2405C17.6555 14.1115 17.3119 14.078 16.9814 14.1438C16.6514 14.2096 16.3484 14.3717 16.1104 14.6096C15.8723 14.8477 15.7104 15.1515 15.6445 15.4817C15.5788 15.8119 15.6115 16.1549 15.7402 16.466C15.8692 16.7773 16.088 17.0445 16.3682 17.2317C16.6482 17.4187 16.9777 17.5178 17.3145 17.5178C17.7663 17.5178 18.2 17.3383 18.5195 17.0188C18.8388 16.6994 19.0175 16.2663 19.0176 15.8147C19.0176 15.4779 18.9185 15.1485 18.7314 14.8684C18.5443 14.5883 18.278 14.3694 17.9668 14.2405ZM15.4766 2.7053C15.7254 2.71241 15.9702 2.77677 16.1904 2.8928C16.3552 2.97972 16.5033 3.09429 16.6289 3.23069L16.7471 3.37425L21.1016 9.37034H23.6104C23.846 9.37034 24.0726 9.4636 24.2393 9.63011C24.4059 9.79676 24.5 10.0233 24.5 10.259C24.5 10.4947 24.4059 10.7212 24.2393 10.8879C24.0726 11.0545 23.846 11.1487 23.6104 11.1487H1.38965C1.15398 11.1487 0.927422 11.0545 0.760742 10.8879C0.594067 10.7212 0.5 10.4947 0.5 10.259C0.500046 10.0233 0.59409 9.79676 0.760742 9.63011C0.927408 9.4636 1.15404 9.37034 1.38965 9.37034H3.89844L8.25293 3.37425L8.37109 3.23069C8.49668 3.09429 8.64476 2.97972 8.80957 2.8928C9.02982 2.77677 9.27459 2.71241 9.52344 2.7053C9.77228 2.69825 10.0196 2.74848 10.2461 2.85179C10.4712 2.95447 10.6698 3.10719 10.8271 3.29808L12.0166 4.67796L12.0361 4.69847L12.04 4.70335L12.084 4.75413C12.1304 4.80053 12.1848 4.83872 12.2441 4.86741C12.3238 4.90581 12.4116 4.92601 12.5 4.92601L12.5654 4.9221C12.6311 4.91472 12.696 4.89626 12.7559 4.86741C12.8353 4.82902 12.905 4.77239 12.96 4.70335L12.9639 4.69847L14.1729 3.29808C14.3302 3.10719 14.5288 2.95447 14.7539 2.85179C14.9804 2.74848 15.2277 2.69825 15.4766 2.7053ZM6.0957 9.37034H18.9043L15.4209 4.57249L14.3359 5.8303L14.335 5.82933C14.1132 6.10096 13.8352 6.32122 13.5186 6.47191C13.2005 6.62321 12.8522 6.70237 12.5 6.70237C12.1478 6.70237 11.7995 6.62321 11.4814 6.47191C11.1646 6.32113 10.8859 6.10118 10.6641 5.82933L9.57812 4.57152L6.0957 9.37034Z" fill="#37CDAC"/>
</g>
<defs>
<clipPath id="clip0_462_18194">
<rect width="24" height="24" fill="white" transform="translate(0.5)"/>
</clipPath>
</defs>
</svg>
