<svg width="147" height="104" viewBox="0 0 147 104" fill="none" xmlns="http://www.w3.org/2000/svg">
<g clip-path="url(#clip0_452_24602)">
<path d="M92.3886 104C99.4259 104 105.132 98.4042 105.132 91.5024C105.132 84.6006 99.4259 79.0046 92.3886 79.0046C85.3513 79.0046 79.6456 84.6006 79.6456 91.5024C79.6456 98.4042 85.3513 104 92.3886 104Z" fill="#A468FF"/>
<path d="M85.9782 11.8833C86.2493 11.8833 86.5023 11.7473 86.6469 11.5169L93.6662 0.366432C93.8891 0.011886 94.3591 -0.106296 94.7266 0.106432L146.615 29.5042C146.952 29.6933 147.097 30.1069 146.946 30.4614L131.486 66.9324C131.335 67.2928 130.925 67.4819 130.546 67.3755L74.5908 51.6928C73.8858 51.4978 73.1387 51.4978 72.4277 51.6928L16.4728 67.3755C16.0872 67.4819 15.6835 67.2869 15.5329 66.9324L0.0604694 30.4555C-0.0901577 30.101 0.0544443 29.6933 0.391849 29.4983L52.2799 0.106432C52.6474 -0.106296 53.1174 0.011886 53.3403 0.366432L60.3595 11.5169C60.4981 11.7473 60.7572 11.8833 61.0283 11.8833H85.9782Z" fill="white"/>
</g>
<defs>
<clipPath id="clip0_452_24602">
<rect width="147" height="104" fill="white"/>
</clipPath>
</defs>
</svg>
