<svg width="24" height="24" viewBox="0 0 24 24" fill="none" xmlns="http://www.w3.org/2000/svg">
<path fill-rule="evenodd" clip-rule="evenodd" d="M11.9993 7.34976C9.29307 7.34976 7.09927 9.54356 7.09927 12.2498C7.09927 14.956 9.29307 17.1498 11.9993 17.1498C14.7055 17.1498 16.8993 14.956 16.8993 12.2498C16.8993 9.54356 14.7055 7.34976 11.9993 7.34976ZM8.89927 12.2498C8.89927 10.5377 10.2872 9.14976 11.9993 9.14976C13.7114 9.14976 15.0993 10.5377 15.0993 12.2498C15.0993 13.9618 13.7114 15.3498 11.9993 15.3498C10.2872 15.3498 8.89927 13.9618 8.89927 12.2498Z" fill="#484A4F"/>
<path fill-rule="evenodd" clip-rule="evenodd" d="M10.1097 2.09967C9.58502 2.09916 9.14279 2.09872 8.72733 2.22491C8.3625 2.33572 8.02311 2.51738 7.72857 2.7595C7.39315 3.03523 7.14825 3.40345 6.85769 3.84034L6.01837 5.09974L5.16422 5.09974C4.63435 5.09973 4.18316 5.09971 3.81273 5.12998C3.42357 5.16177 3.04497 5.23141 2.68304 5.41582C2.13737 5.69386 1.69373 6.1375 1.41569 6.68317C1.23128 7.0451 1.16164 7.4237 1.12985 7.81286C1.09958 8.18328 1.0996 8.63445 1.09961 9.16431V16.8351C1.0996 17.365 1.09958 17.8162 1.12985 18.1866C1.16164 18.5758 1.23128 18.9544 1.41569 19.3163C1.69373 19.862 2.13737 20.3056 2.68304 20.5837C3.04497 20.7681 3.42357 20.8377 3.81273 20.8695C4.18315 20.8998 4.63433 20.8998 5.16419 20.8997H18.835C19.3649 20.8998 19.8161 20.8998 20.1865 20.8695C20.5757 20.8377 20.9543 20.7681 21.3162 20.5837C21.8619 20.3056 22.3055 19.862 22.5835 19.3163C22.7679 18.9544 22.8376 18.5758 22.8694 18.1866C22.8996 17.8162 22.8996 17.365 22.8996 16.8352V9.16434C22.8996 8.63448 22.8996 8.18328 22.8694 7.81286C22.8376 7.4237 22.7679 7.0451 22.5835 6.68317C22.3055 6.1375 21.8619 5.69386 21.3162 5.41582C20.9543 5.23141 20.5757 5.16177 20.1865 5.12998C19.8161 5.09971 19.3649 5.09973 18.835 5.09974L17.9817 5.09974L17.1415 3.83961C16.8509 3.4029 16.606 3.03482 16.2706 2.75921C15.9761 2.51719 15.6367 2.33561 15.272 2.22485C14.8566 2.09872 14.4145 2.09916 13.8899 2.09967L10.1097 2.09967ZM9.25045 3.94722C9.37657 3.90891 9.53016 3.89974 10.2124 3.89974H13.7873C14.4693 3.89974 14.6229 3.90891 14.749 3.9472C14.8874 3.98921 15.0161 4.05808 15.1278 4.14989C15.2296 4.23355 15.3224 4.35622 15.7008 4.92372L16.5138 6.14289L16.5313 6.16937C16.5934 6.26404 16.7111 6.4436 16.8788 6.58138C17.021 6.69821 17.1848 6.78587 17.3609 6.83934C17.5685 6.90239 17.7833 6.90077 17.8965 6.89991L17.9282 6.89974H18.7996C19.3745 6.89974 19.7516 6.90044 20.0399 6.924C20.3178 6.9467 20.4331 6.98606 20.499 7.01963C20.706 7.12509 20.8743 7.29337 20.9797 7.50035C21.0133 7.56624 21.0527 7.68159 21.0754 7.95943C21.0989 8.24779 21.0996 8.62484 21.0996 9.19974V16.7997C21.0996 17.3746 21.0989 17.7517 21.0754 18.04C21.0527 18.3179 21.0133 18.4332 20.9797 18.4991C20.8743 18.7061 20.706 18.8744 20.499 18.9798C20.4331 19.0134 20.3178 19.0528 20.0399 19.0755C19.7516 19.099 19.3745 19.0997 18.7996 19.0997H5.19961C4.62471 19.0997 4.24766 19.099 3.9593 19.0755C3.68146 19.0528 3.56611 19.0134 3.50022 18.9798C3.29324 18.8744 3.12496 18.7061 3.0195 18.4991C2.98593 18.4332 2.94657 18.3179 2.92387 18.04C2.90031 17.7517 2.89961 17.3746 2.89961 16.7997V9.19974C2.89961 8.62484 2.90031 8.24779 2.92387 7.95943C2.94657 7.68159 2.98593 7.56624 3.0195 7.50035C3.12496 7.29337 3.29324 7.12509 3.50022 7.01963C3.56611 6.98606 3.68146 6.9467 3.9593 6.924C4.24766 6.90044 4.62471 6.89974 5.19961 6.89974H6.07189L6.10362 6.89991C6.21686 6.90077 6.43165 6.9024 6.63934 6.83932C6.81546 6.78582 6.97931 6.69812 7.1215 6.58124C7.28917 6.4434 7.40694 6.26377 7.46903 6.16906L7.48649 6.14257L8.29857 4.92415C8.67696 4.35642 8.76978 4.2337 8.8716 4.15C8.98332 4.05816 9.11206 3.98925 9.25045 3.94722Z" fill="#484A4F"/>
</svg>
